{
.appVersion = "1209";
DisplayStrings = (
"12345678901234567823456789012345678934567890123456789045678901234567890156789012345678901267890123456789012378901234567890123489012345678901234590123456789012345601234567890123456\012\0120102003040506070809000 \0121112131415166171819101 \012212223242526272829202 \012313233343536373839303\012414243444546474849404 515253545556575859505 616263646566676869606 717273747576777879707\012818283848586878889808 919293949596979899909\01200 01 02 03 04 05 06 07 08 09 \01210 11 12 13 14 15 16 17 18 19 \01220 21 22 23 24 25 26 27 28 29   \01230 31 32 33 34 35 36 37 38 39 \01240 41 42 43 44 45 46 47 48 49  \01250 51 52 53 54 55 56 57 58 59 \01260 61 62 63 64 65 66 67 68 69  \01270 71 72 73 74 75 76 77 78 79 \01280 81 82 83 84 85 86 87 88 89\01290 91 92 93 94 95 96 97 98 99",

glyphs = (
{
color = 3;
glyphname = A;
lastChange = "2019-02-05 19:53:34 +0000";
layers = (
{
anchors = (
{
name = bottom;
position = "{290, 0}";
},
{
name = ogonek;
position = "{551, 10}";
},
{
name = top;
position = "{398, 743}";
}
);
background = {
anchors = (
{
name = bottom;
position = "{335, 0}";
},
{
name = mark0;
position = "{329, -83}";
},
{
name = ogonek;
position = "{615, 10}";
},
{
name = top;
position = "{340, 743}";
}
);
paths = (
{
closed = 1;
nodes = (
"-11 43 LINE",
"-11 0 LINE",
"214 0 LINE",
"214 43 LINE",
"125 53 LINE",
"178 211 LINE",
"490 211 LINE",
"543 52 LINE",
"455 43 LINE",
"455 0 LINE",
"699 0 LINE",
"699 43 LINE",
"634 52 LINE",
"383 750 LINE",
"301 750 LINE",
"53 52 LINE"
);
},
{
closed = 1;
nodes = (
"195 263 LINE",
"304 593 LINE",
"331 691 LINE",
"359 596 LINE",
"472 263 LINE"
);
}
);
};
layerId = UUID0;
paths = (
{
closed = 1;
nodes = (
"13 45 LINE",
"-55 34 LINE",
"-59 0 LINE",
"171 0 LINE",
"174 34 LINE",
"84 46 LINE",
"169 225 LINE",
"458 225 LINE",
"488 45 LINE",
"398 34 LINE",
"396 0 LINE",
"642 0 LINE",
"644 34 LINE",
"562 47 LINE",
"434 749 LINE",
"359 749 LINE"
);
},
{
closed = 1;
nodes = (
"392 628 LINE",
"450 272 LINE",
"192 272 LINE",
"385 685 LINE"
);
}
);
width = 661;
},
{
anchors = (
{
name = bottom;
position = "{275, 0}";
},
{
name = ogonek;
position = "{555, 10}";
},
{
name = top;
position = "{394, 743}";
}
);
background = {
anchors = (
{
name = bottom;
position = "{344, 0}";
},
{
name = mark0;
position = "{280, -83}";
},
{
name = ogonek;
position = "{649, 10}";
},
{
name = top;
position = "{355, 743}";
}
);
paths = (
{
closed = 1;
nodes = (
"-22 74 LINE",
"-21 0 LINE",
"260 0 LINE",
"260 74 LINE",
"186 83 LINE",
"213 191 LINE",
"426 191 LINE",
"454 85 LINE",
"389 74 LINE",
"389 0 LINE",
"729 0 LINE",
"729 74 LINE",
"677 85 LINE",
"463 745 LINE",
"248 745 LINE",
"34 86 LINE"
);
},
{
closed = 1;
nodes = (
"234 276 LINE",
"306 563 LINE",
"317 625 LINE",
"328 563 LINE",
"404 276 LINE"
);
}
);
};
layerId = "809C3DC2-6073-4494-AA7C-C910FAB1DD5E";
paths = (
{
closed = 1;
nodes = (
"-7 66 LINE",
"-75 52 LINE",
"-79 0 LINE",
"194 0 LINE",
"198 52 LINE",
"106 66 LINE",
"164 203 LINE",
"401 203 LINE",
"421 66 LINE",
"344 52 LINE",
"342 0 LINE",
"678 0 LINE",
"681 52 LINE",
"603 67 LINE",
"482 745 LINE",
"313 745 LINE"
);
},
{
closed = 1;
nodes = (
"353 545 LINE",
"391 277 LINE",
"195 277 LINE",
"349 639 LINE"
);
}
);
width = 660;
}
);
leftKerningGroup = A;
rightKerningGroup = A;
unicode = 0041;
},
{
color = 4;
glyphname = Aacute;
layers = (
{
background = {
anchors = (
{
name = bottom;
position = "{335, 0}";
},
{
name = mark0;
position = "{329, -83}";
},
{
name = ogonek;
position = "{615, 10}";
},
{
name = top;
position = "{340, 980}";
}
);
paths = (
{
closed = 1;
nodes = (
"-11 43 LINE",
"-11 0 LINE",
"214 0 LINE",
"214 43 LINE",
"125 53 LINE",
"178 211 LINE",
"490 211 LINE",
"543 52 LINE",
"455 43 LINE",
"455 0 LINE",
"699 0 LINE",
"699 43 LINE",
"634 52 LINE",
"383 750 LINE",
"301 750 LINE",
"53 52 LINE"
);
},
{
closed = 1;
nodes = (
"195 263 LINE",
"304 593 LINE",
"331 691 LINE",
"359 596 LINE",
"472 263 LINE"
);
},
{
closed = 1;
nodes = (
"362 828 OFFCURVE",
"441 892 OFFCURVE",
"474 936 CURVE",
"405 980 LINE",
"269 827 LINE",
"311 802 LINE"
);
}
);
};
components = (
{
name = A;
},
{
name = acutecomb.case;
transform = "{1, 0, 0, 1, 332, 0}";
}
);
layerId = UUID0;
width = 661;
},
{
background = {
anchors = (
{
name = bottom;
position = "{344, 0}";
},
{
name = mark0;
position = "{280, -83}";
},
{
name = ogonek;
position = "{649, 10}";
},
{
name = top;
position = "{355, 983}";
}
);
paths = (
{
closed = 1;
nodes = (
"-22 74 LINE",
"-21 0 LINE",
"260 0 LINE",
"260 74 LINE",
"186 83 LINE",
"213 191 LINE",
"426 191 LINE",
"454 85 LINE",
"389 74 LINE",
"389 0 LINE",
"729 0 LINE",
"729 74 LINE",
"677 85 LINE",
"463 745 LINE",
"248 745 LINE",
"34 86 LINE"
);
},
{
closed = 1;
nodes = (
"234 276 LINE",
"306 563 LINE",
"317 625 LINE",
"328 563 LINE",
"404 276 LINE"
);
},
{
closed = 1;
nodes = (
"380 798 OFFCURVE",
"457 840 OFFCURVE",
"519 905 CURVE",
"391 983 LINE",
"265 839 LINE",
"346 789 LINE"
);
}
);
};
components = (
{
name = A;
},
{
name = acutecomb.case;
transform = "{1, 0, 0, 1, 329, 0}";
}
);
layerId = "809C3DC2-6073-4494-AA7C-C910FAB1DD5E";
width = 660;
}
);
leftKerningGroup = A;
rightKerningGroup = A;
unicode = 00C1;
},
{
color = 4;
glyphname = Abreve;
layers = (
{
background = {
anchors = (
{
name = bottom;
position = "{335, 0}";
},
{
name = mark0;
position = "{329, -83}";
},
{
name = ogonek;
position = "{615, 10}";
},
{
name = top;
position = "{340, 974}";
}
);
paths = (
{
closed = 1;
nodes = (
"-11 43 LINE",
"-11 0 LINE",
"214 0 LINE",
"214 43 LINE",
"125 53 LINE",
"178 211 LINE",
"490 211 LINE",
"543 52 LINE",
"455 43 LINE",
"455 0 LINE",
"699 0 LINE",
"699 43 LINE",
"634 52 LINE",
"383 750 LINE",
"301 750 LINE",
"53 52 LINE"
);
},
{
closed = 1;
nodes = (
"195 263 LINE",
"304 593 LINE",
"331 691 LINE",
"359 596 LINE",
"472 263 LINE"
);
},
{
closed = 1;
nodes = (
"439 808 OFFCURVE",
"502 872 OFFCURVE",
"502 955 CURVE SMOOTH",
"502 961 OFFCURVE",
"502 967 OFFCURVE",
"501 974 CURVE",
"457 974 LINE",
"457 971 OFFCURVE",
"457 967 OFFCURVE",
"456 961 CURVE SMOOTH",
"450 925 OFFCURVE",
"427 874 OFFCURVE",
"340 874 CURVE SMOOTH",
"257 874 OFFCURVE",
"232 924 OFFCURVE",
"226 960 CURVE SMOOTH",
"225 966 OFFCURVE",
"225 971 OFFCURVE",
"225 974 CURVE",
"179 974 LINE",
"178 967 OFFCURVE",
"178 961 OFFCURVE",
"178 954 CURVE SMOOTH",
"178 872 OFFCURVE",
"236 808 OFFCURVE",
"340 808 CURVE SMOOTH"
);
}
);
};
components = (
{
name = A;
},
{
name = brevecomb.case;
transform = "{1, 0, 0, 1, 332, 0}";
}
);
layerId = UUID0;
width = 661;
},
{
background = {
anchors = (
{
name = bottom;
position = "{344, 0}";
},
{
name = mark0;
position = "{280, -83}";
},
{
name = ogonek;
position = "{649, 10}";
},
{
name = top;
position = "{355, 981}";
}
);
paths = (
{
closed = 1;
nodes = (
"-22 74 LINE",
"-21 0 LINE",
"260 0 LINE",
"260 74 LINE",
"186 83 LINE",
"213 191 LINE",
"426 191 LINE",
"454 85 LINE",
"389 74 LINE",
"389 0 LINE",
"729 0 LINE",
"729 74 LINE",
"677 85 LINE",
"463 745 LINE",
"248 745 LINE",
"34 86 LINE"
);
},
{
closed = 1;
nodes = (
"234 276 LINE",
"306 563 LINE",
"317 625 LINE",
"328 563 LINE",
"404 276 LINE"
);
},
{
closed = 1;
nodes = (
"485 789 OFFCURVE",
"554 871 OFFCURVE",
"554 959 CURVE SMOOTH",
"554 967 OFFCURVE",
"554 974 OFFCURVE",
"553 981 CURVE",
"460 981 LINE",
"460 979 OFFCURVE",
"460 975 OFFCURVE",
"459 971 CURVE SMOOTH",
"452 944 OFFCURVE",
"434 902 OFFCURVE",
"355 902 CURVE SMOOTH",
"275 902 OFFCURVE",
"256 945 OFFCURVE",
"249 971 CURVE SMOOTH",
"248 975 OFFCURVE",
"248 979 OFFCURVE",
"248 981 CURVE",
"157 981 LINE",
"156 974 OFFCURVE",
"156 966 OFFCURVE",
"156 958 CURVE SMOOTH",
"156 870 OFFCURVE",
"219 789 OFFCURVE",
"354 789 CURVE SMOOTH"
);
}
);
};
components = (
{
name = A;
},
{
name = brevecomb.case;
transform = "{1, 0, 0, 1, 328, 0}";
}
);
layerId = "809C3DC2-6073-4494-AA7C-C910FAB1DD5E";
width = 660;
}
);
leftKerningGroup = A;
rightKerningGroup = A;
unicode = 0102;
},
{
color = 4;
glyphname = Abreveacute;
layers = (
{
background = {
anchors = (
{
name = bottom;
position = "{335, 0}";
},
{
name = mark0;
position = "{329, -83}";
},
{
name = ogonek;
position = "{615, 10}";
},
{
name = top;
position = "{337, 977}";
}
);
paths = (
{
closed = 1;
nodes = (
"-11 43 LINE",
"-11 0 LINE",
"214 0 LINE",
"214 43 LINE",
"125 53 LINE",
"178 211 LINE",
"490 211 LINE",
"543 52 LINE",
"455 43 LINE",
"455 0 LINE",
"699 0 LINE",
"699 43 LINE",
"634 52 LINE",
"383 750 LINE",
"301 750 LINE",
"53 52 LINE"
);
},
{
closed = 1;
nodes = (
"195 263 LINE",
"304 593 LINE",
"331 691 LINE",
"359 596 LINE",
"472 263 LINE"
);
},
{
closed = 1;
nodes = (
"430 740 OFFCURVE",
"487 775 OFFCURVE",
"487 826 CURVE SMOOTH",
"487 833 OFFCURVE",
"486 845 OFFCURVE",
"485 852 CURVE",
"436 852 LINE",
"437 849 OFFCURVE",
"437 846 OFFCURVE",
"437 840 CURVE SMOOTH",
"437 815 OFFCURVE",
"401 801 OFFCURVE",
"340 801 CURVE SMOOTH",
"279 801 OFFCURVE",
"246 815 OFFCURVE",
"246 841 CURVE SMOOTH",
"246 847 OFFCURVE",
"246 849 OFFCURVE",
"246 852 CURVE",
"195 852 LINE",
"193 845 OFFCURVE",
"193 832 OFFCURVE",
"193 825 CURVE SMOOTH",
"193 775 OFFCURVE",
"254 740 OFFCURVE",
"340 740 CURVE SMOOTH"
);
},
{
closed = 1;
nodes = (
"386 877 OFFCURVE",
"425 911 OFFCURVE",
"445 940 CURVE",
"392 983 LINE",
"297 881 LINE",
"333 847 LINE"
);
}
);
};
components = (
{
name = A;
},
{
name = brevecomb_acutecomb.case;
transform = "{1, 0, 0, 1, 332, 0}";
}
);
layerId = UUID0;
width = 661;
},
{
background = {
anchors = (
{
name = bottom;
position = "{344, 0}";
},
{
name = mark0;
position = "{280, -83}";
},
{
name = ogonek;
position = "{649, 10}";
},
{
name = top;
position = "{358, 981}";
}
);
paths = (
{
closed = 1;
nodes = (
"-22 74 LINE",
"-21 0 LINE",
"260 0 LINE",
"260 74 LINE",
"186 83 LINE",
"213 191 LINE",
"426 191 LINE",
"454 85 LINE",
"389 74 LINE",
"389 0 LINE",
"729 0 LINE",
"729 74 LINE",
"677 85 LINE",
"463 745 LINE",
"248 745 LINE",
"34 86 LINE"
);
},
{
closed = 1;
nodes = (
"234 276 LINE",
"306 563 LINE",
"317 625 LINE",
"328 563 LINE",
"404 276 LINE"
);
},
{
closed = 1;
nodes = (
"455 720 OFFCURVE",
"502 756 OFFCURVE",
"502 820 CURVE SMOOTH",
"502 827 OFFCURVE",
"501 845 OFFCURVE",
"500 852 CURVE",
"441 852 LINE",
"442 849 OFFCURVE",
"442 846 OFFCURVE",
"442 840 CURVE SMOOTH",
"442 825 OFFCURVE",
"416 801 OFFCURVE",
"355 801 CURVE SMOOTH",
"294 801 OFFCURVE",
"271 825 OFFCURVE",
"271 841 CURVE SMOOTH",
"271 847 OFFCURVE",
"271 849 OFFCURVE",
"271 852 CURVE",
"210 852 LINE",
"208 845 OFFCURVE",
"208 826 OFFCURVE",
"208 819 CURVE SMOOTH",
"208 756 OFFCURVE",
"259 720 OFFCURVE",
"355 720 CURVE SMOOTH"
);
},
{
closed = 1;
nodes = (
"406 857 OFFCURVE",
"447 892 OFFCURVE",
"467 921 CURVE",
"393 983 LINE",
"302 881 LINE",
"353 830 LINE"
);
}
);
};
components = (
{
name = A;
},
{
name = brevecomb_acutecomb.case;
transform = "{1, 0, 0, 1, 328, 0}";
}
);
layerId = "809C3DC2-6073-4494-AA7C-C910FAB1DD5E";
width = 660;
}
);
leftKerningGroup = A;
rightKerningGroup = A;
unicode = 1EAE;
},
{
color = 4;
glyphname = Abrevedotbelow;
layers = (
{
background = {
anchors = (
{
name = bottom;
position = "{335, -173}";
},
{
name = mark0;
position = "{329, -83}";
},
{
name = ogonek;
position = "{615, 10}";
},
{
name = top;
position = "{340, 974}";
}
);
paths = (
{
closed = 1;
nodes = (
"-11 43 LINE",
"-11 0 LINE",
"214 0 LINE",
"214 43 LINE",
"125 53 LINE",
"178 211 LINE",
"490 211 LINE",
"543 52 LINE",
"455 43 LINE",
"455 0 LINE",
"699 0 LINE",
"699 43 LINE",
"634 52 LINE",
"383 750 LINE",
"301 750 LINE",
"53 52 LINE"
);
},
{
closed = 1;
nodes = (
"195 263 LINE",
"304 593 LINE",
"331 691 LINE",
"359 596 LINE",
"472 263 LINE"
);
},
{
closed = 1;
nodes = (
"439 808 OFFCURVE",
"502 872 OFFCURVE",
"502 955 CURVE SMOOTH",
"502 961 OFFCURVE",
"502 967 OFFCURVE",
"501 974 CURVE",
"457 974 LINE",
"457 971 OFFCURVE",
"457 967 OFFCURVE",
"456 961 CURVE SMOOTH",
"450 925 OFFCURVE",
"427 874 OFFCURVE",
"340 874 CURVE SMOOTH",
"257 874 OFFCURVE",
"232 924 OFFCURVE",
"226 960 CURVE SMOOTH",
"225 966 OFFCURVE",
"225 971 OFFCURVE",
"225 974 CURVE",
"179 974 LINE",
"178 967 OFFCURVE",
"178 961 OFFCURVE",
"178 954 CURVE SMOOTH",
"178 872 OFFCURVE",
"236 808 OFFCURVE",
"340 808 CURVE SMOOTH"
);
},
{
closed = 1;
nodes = (
"330 -196 LINE",
"373 -196 OFFCURVE",
"393 -165 OFFCURVE",
"393 -126 CURVE SMOOTH",
"393 -97 OFFCURVE",
"374 -66 OFFCURVE",
"338 -66 CURVE SMOOTH",
"296 -66 OFFCURVE",
"275 -101 OFFCURVE",
"275 -136 CURVE SMOOTH",
"275 -169 OFFCURVE",
"296 -196 OFFCURVE",
"328 -196 CURVE"
);
}
);
};
components = (
{
name = A;
},
{
name = dotbelowcomb.case;
transform = "{1, 0, 0, 1, 290, 0}";
},
{
name = brevecomb.case;
transform = "{1, 0, 0, 1, 332, 0}";
}
);
layerId = UUID0;
width = 661;
},
{
background = {
anchors = (
{
name = bottom;
position = "{344, -194}";
},
{
name = mark0;
position = "{280, -83}";
},
{
name = ogonek;
position = "{649, 10}";
},
{
name = top;
position = "{355, 981}";
}
);
paths = (
{
closed = 1;
nodes = (
"-22 74 LINE",
"-21 0 LINE",
"260 0 LINE",
"260 74 LINE",
"186 83 LINE",
"213 191 LINE",
"426 191 LINE",
"454 85 LINE",
"389 74 LINE",
"389 0 LINE",
"729 0 LINE",
"729 74 LINE",
"677 85 LINE",
"463 745 LINE",
"248 745 LINE",
"34 86 LINE"
);
},
{
closed = 1;
nodes = (
"234 276 LINE",
"306 563 LINE",
"317 625 LINE",
"328 563 LINE",
"404 276 LINE"
);
},
{
closed = 1;
nodes = (
"485 789 OFFCURVE",
"554 871 OFFCURVE",
"554 959 CURVE SMOOTH",
"554 967 OFFCURVE",
"554 974 OFFCURVE",
"553 981 CURVE",
"460 981 LINE",
"460 979 OFFCURVE",
"460 975 OFFCURVE",
"459 971 CURVE SMOOTH",
"452 944 OFFCURVE",
"434 902 OFFCURVE",
"355 902 CURVE SMOOTH",
"275 902 OFFCURVE",
"256 945 OFFCURVE",
"249 971 CURVE SMOOTH",
"248 975 OFFCURVE",
"248 979 OFFCURVE",
"248 981 CURVE",
"157 981 LINE",
"156 974 OFFCURVE",
"156 966 OFFCURVE",
"156 958 CURVE SMOOTH",
"156 870 OFFCURVE",
"219 789 OFFCURVE",
"354 789 CURVE SMOOTH"
);
},
{
closed = 1;
nodes = (
"337 -234 LINE",
"407 -234 OFFCURVE",
"442 -191 OFFCURVE",
"442 -136 CURVE SMOOTH",
"442 -89 OFFCURVE",
"410 -52 OFFCURVE",
"348 -52 CURVE SMOOTH",
"284 -52 OFFCURVE",
"247 -95 OFFCURVE",
"247 -151 CURVE SMOOTH",
"247 -198 OFFCURVE",
"284 -234 OFFCURVE",
"337 -234 CURVE"
);
}
);
};
components = (
{
name = A;
},
{
name = dotbelowcomb.case;
transform = "{1, 0, 0, 1, 275, 0}";
},
{
name = brevecomb.case;
transform = "{1, 0, 0, 1, 328, 0}";
}
);
layerId = "809C3DC2-6073-4494-AA7C-C910FAB1DD5E";
width = 660;
}
);
leftKerningGroup = A;
rightKerningGroup = A;
unicode = 1EB6;
},
{
color = 4;
glyphname = Abrevegrave;
layers = (
{
background = {
anchors = (
{
name = bottom;
position = "{335, 0}";
},
{
name = mark0;
position = "{329, -83}";
},
{
name = ogonek;
position = "{615, 10}";
},
{
name = top;
position = "{566, 974}";
}
);
paths = (
{
closed = 1;
nodes = (
"-11 43 LINE",
"-11 0 LINE",
"214 0 LINE",
"214 43 LINE",
"125 53 LINE",
"178 211 LINE",
"490 211 LINE",
"543 52 LINE",
"455 43 LINE",
"455 0 LINE",
"699 0 LINE",
"699 43 LINE",
"634 52 LINE",
"383 750 LINE",
"301 750 LINE",
"53 52 LINE"
);
},
{
closed = 1;
nodes = (
"195 263 LINE",
"304 593 LINE",
"331 691 LINE",
"359 596 LINE",
"472 263 LINE"
);
},
{
closed = 1;
nodes = (
"430 740 OFFCURVE",
"487 775 OFFCURVE",
"487 826 CURVE SMOOTH",
"487 833 OFFCURVE",
"486 845 OFFCURVE",
"485 852 CURVE",
"436 852 LINE",
"437 849 OFFCURVE",
"437 846 OFFCURVE",
"437 840 CURVE SMOOTH",
"437 815 OFFCURVE",
"401 801 OFFCURVE",
"340 801 CURVE SMOOTH",
"279 801 OFFCURVE",
"246 815 OFFCURVE",
"246 841 CURVE SMOOTH",
"246 847 OFFCURVE",
"246 849 OFFCURVE",
"246 852 CURVE",
"195 852 LINE",
"193 845 OFFCURVE",
"193 832 OFFCURVE",
"193 825 CURVE SMOOTH",
"193 775 OFFCURVE",
"254 740 OFFCURVE",
"340 740 CURVE SMOOTH"
);
},
{
closed = 1;
nodes = (
"386 877 LINE",
"291 979 LINE",
"238 936 LINE",
"258 907 OFFCURVE",
"297 873 OFFCURVE",
"350 843 CURVE"
);
}
);
};
components = (
{
name = A;
},
{
name = brevecomb_gravecomb.case;
transform = "{1, 0, 0, 1, 332, 0}";
}
);
layerId = UUID0;
width = 661;
},
{
background = {
anchors = (
{
name = bottom;
position = "{344, 0}";
},
{
name = mark0;
position = "{280, -83}";
},
{
name = ogonek;
position = "{649, 10}";
},
{
name = top;
position = "{355, 981}";
}
);
paths = (
{
closed = 1;
nodes = (
"-22 74 LINE",
"-21 0 LINE",
"260 0 LINE",
"260 74 LINE",
"186 83 LINE",
"213 191 LINE",
"426 191 LINE",
"454 85 LINE",
"389 74 LINE",
"389 0 LINE",
"729 0 LINE",
"729 74 LINE",
"677 85 LINE",
"463 745 LINE",
"248 745 LINE",
"34 86 LINE"
);
},
{
closed = 1;
nodes = (
"234 276 LINE",
"306 563 LINE",
"317 625 LINE",
"328 563 LINE",
"404 276 LINE"
);
},
{
closed = 1;
nodes = (
"455 720 OFFCURVE",
"502 756 OFFCURVE",
"502 820 CURVE SMOOTH",
"502 827 OFFCURVE",
"501 845 OFFCURVE",
"500 852 CURVE",
"441 852 LINE",
"442 849 OFFCURVE",
"442 846 OFFCURVE",
"442 840 CURVE SMOOTH",
"442 825 OFFCURVE",
"416 801 OFFCURVE",
"355 801 CURVE SMOOTH",
"294 801 OFFCURVE",
"271 825 OFFCURVE",
"271 841 CURVE SMOOTH",
"271 847 OFFCURVE",
"271 849 OFFCURVE",
"271 852 CURVE",
"210 852 LINE",
"208 845 OFFCURVE",
"208 826 OFFCURVE",
"208 819 CURVE SMOOTH",
"208 756 OFFCURVE",
"259 720 OFFCURVE",
"355 720 CURVE SMOOTH"
);
},
{
closed = 1;
nodes = (
"418 877 LINE",
"328 979 LINE",
"256 918 LINE",
"276 889 OFFCURVE",
"315 855 OFFCURVE",
"368 825 CURVE"
);
}
);
};
components = (
{
name = A;
},
{
name = brevecomb_gravecomb.case;
transform = "{1, 0, 0, 1, 328, 0}";
}
);
layerId = "809C3DC2-6073-4494-AA7C-C910FAB1DD5E";
width = 660;
}
);
leftKerningGroup = A;
rightKerningGroup = A;
unicode = 1EB0;
},
{
color = 4;
glyphname = Abrevehookabove;
layers = (
{
background = {
anchors = (
{
name = bottom;
position = "{335, 0}";
},
{
name = mark0;
position = "{329, -83}";
},
{
name = ogonek;
position = "{615, 10}";
},
{
name = top;
position = "{340, 974}";
}
);
paths = (
{
closed = 1;
nodes = (
"-11 43 LINE",
"-11 0 LINE",
"214 0 LINE",
"214 43 LINE",
"125 53 LINE",
"178 211 LINE",
"490 211 LINE",
"543 52 LINE",
"455 43 LINE",
"455 0 LINE",
"699 0 LINE",
"699 43 LINE",
"634 52 LINE",
"383 750 LINE",
"301 750 LINE",
"53 52 LINE"
);
},
{
closed = 1;
nodes = (
"195 263 LINE",
"304 593 LINE",
"331 691 LINE",
"359 596 LINE",
"472 263 LINE"
);
},
{
closed = 1;
nodes = (
"430 740 OFFCURVE",
"477 775 OFFCURVE",
"477 826 CURVE SMOOTH",
"477 833 OFFCURVE",
"476 845 OFFCURVE",
"475 852 CURVE",
"426 852 LINE",
"427 849 OFFCURVE",
"427 846 OFFCURVE",
"427 840 CURVE SMOOTH",
"427 815 OFFCURVE",
"401 801 OFFCURVE",
"340 801 CURVE SMOOTH",
"279 801 OFFCURVE",
"256 815 OFFCURVE",
"256 841 CURVE SMOOTH",
"256 847 OFFCURVE",
"256 849 OFFCURVE",
"256 852 CURVE",
"205 852 LINE",
"203 845 OFFCURVE",
"203 832 OFFCURVE",
"203 825 CURVE SMOOTH",
"203 775 OFFCURVE",
"254 740 OFFCURVE",
"340 740 CURVE SMOOTH"
);
},
{
closed = 1;
nodes = (
"365 825 LINE",
"357 845 OFFCURVE",
"375 862 OFFCURVE",
"388 872 CURVE SMOOTH",
"403 884 OFFCURVE",
"414 897 OFFCURVE",
"414 918 CURVE SMOOTH",
"414 957 OFFCURVE",
"374 983 OFFCURVE",
"310 983 CURVE SMOOTH",
"299 983 OFFCURVE",
"252 979 OFFCURVE",
"249 975 CURVE",
"252 922 LINE",
"269 930 OFFCURVE",
"282 932 OFFCURVE",
"299 932 CURVE SMOOTH",
"324 932 OFFCURVE",
"340 921 OFFCURVE",
"340 905 CURVE SMOOTH",
"340 876 OFFCURVE",
"304 870 OFFCURVE",
"304 846 CURVE SMOOTH",
"304 838 OFFCURVE",
"309 828 OFFCURVE",
"314 824 CURVE"
);
}
);
};
components = (
{
name = A;
},
{
name = brevecomb_hookabovecomb.case;
transform = "{1, 0, 0, 1, 332, 0}";
}
);
layerId = UUID0;
width = 661;
},
{
background = {
anchors = (
{
name = bottom;
position = "{344, 0}";
},
{
name = mark0;
position = "{280, -83}";
},
{
name = ogonek;
position = "{649, 10}";
},
{
name = top;
position = "{355, 981}";
}
);
paths = (
{
closed = 1;
nodes = (
"-22 74 LINE",
"-21 0 LINE",
"260 0 LINE",
"260 74 LINE",
"186 83 LINE",
"213 191 LINE",
"426 191 LINE",
"454 85 LINE",
"389 74 LINE",
"389 0 LINE",
"729 0 LINE",
"729 74 LINE",
"677 85 LINE",
"463 745 LINE",
"248 745 LINE",
"34 86 LINE"
);
},
{
closed = 1;
nodes = (
"234 276 LINE",
"306 563 LINE",
"317 625 LINE",
"328 563 LINE",
"404 276 LINE"
);
},
{
closed = 1;
nodes = (
"455 720 OFFCURVE",
"502 756 OFFCURVE",
"502 820 CURVE SMOOTH",
"502 827 OFFCURVE",
"501 845 OFFCURVE",
"500 852 CURVE",
"441 852 LINE",
"442 849 OFFCURVE",
"442 846 OFFCURVE",
"442 840 CURVE SMOOTH",
"442 825 OFFCURVE",
"416 801 OFFCURVE",
"355 801 CURVE SMOOTH",
"294 801 OFFCURVE",
"271 825 OFFCURVE",
"271 841 CURVE SMOOTH",
"271 847 OFFCURVE",
"271 849 OFFCURVE",
"271 852 CURVE",
"210 852 LINE",
"208 845 OFFCURVE",
"208 826 OFFCURVE",
"208 819 CURVE SMOOTH",
"208 756 OFFCURVE",
"259 720 OFFCURVE",
"355 720 CURVE SMOOTH"
);
},
{
closed = 1;
nodes = (
"387 825 LINE",
"383 840 OFFCURVE",
"391 853 OFFCURVE",
"399 858 CURVE SMOOTH",
"423 873 OFFCURVE",
"434 886 OFFCURVE",
"434 908 CURVE SMOOTH",
"434 966 OFFCURVE",
"389 983 OFFCURVE",
"325 983 CURVE SMOOTH",
"314 983 OFFCURVE",
"267 980 OFFCURVE",
"264 976 CURVE",
"267 906 LINE",
"284 914 OFFCURVE",
"297 916 OFFCURVE",
"314 916 CURVE SMOOTH",
"339 916 OFFCURVE",
"350 906 OFFCURVE",
"350 890 CURVE SMOOTH",
"350 872 OFFCURVE",
"316 859 OFFCURVE",
"316 843 CURVE SMOOTH",
"316 835 OFFCURVE",
"321 828 OFFCURVE",
"326 824 CURVE"
);
}
);
};
components = (
{
name = A;
},
{
name = brevecomb_hookabovecomb.case;
transform = "{1, 0, 0, 1, 329, 0}";
}
);
layerId = "809C3DC2-6073-4494-AA7C-C910FAB1DD5E";
width = 660;
}
);
leftKerningGroup = A;
rightKerningGroup = A;
unicode = 1EB2;
},
{
color = 4;
glyphname = Abrevetilde;
layers = (
{
background = {
anchors = (
{
name = bottom;
position = "{335, 0}";
},
{
name = mark0;
position = "{329, -83}";
},
{
name = ogonek;
position = "{615, 10}";
},
{
name = top;
position = "{340, 974}";
}
);
paths = (
{
closed = 1;
nodes = (
"-11 43 LINE",
"-11 0 LINE",
"214 0 LINE",
"214 43 LINE",
"125 53 LINE",
"178 211 LINE",
"490 211 LINE",
"543 52 LINE",
"455 43 LINE",
"455 0 LINE",
"699 0 LINE",
"699 43 LINE",
"634 52 LINE",
"383 750 LINE",
"301 750 LINE",
"53 52 LINE"
);
},
{
closed = 1;
nodes = (
"195 263 LINE",
"304 593 LINE",
"331 691 LINE",
"359 596 LINE",
"472 263 LINE"
);
},
{
closed = 1;
nodes = (
"430 740 OFFCURVE",
"477 775 OFFCURVE",
"477 826 CURVE SMOOTH",
"477 833 OFFCURVE",
"476 845 OFFCURVE",
"475 852 CURVE",
"426 852 LINE",
"427 849 OFFCURVE",
"427 846 OFFCURVE",
"427 840 CURVE SMOOTH",
"427 815 OFFCURVE",
"401 801 OFFCURVE",
"340 801 CURVE SMOOTH",
"289 801 OFFCURVE",
"256 815 OFFCURVE",
"256 841 CURVE SMOOTH",
"256 847 OFFCURVE",
"256 849 OFFCURVE",
"256 852 CURVE",
"205 852 LINE",
"203 845 OFFCURVE",
"203 832 OFFCURVE",
"203 825 CURVE SMOOTH",
"203 775 OFFCURVE",
"254 740 OFFCURVE",
"340 740 CURVE SMOOTH"
);
},
{
closed = 1;
nodes = (
"207 878 LINE",
"222 898 OFFCURVE",
"239 919 OFFCURVE",
"265 919 CURVE SMOOTH",
"307 919 OFFCURVE",
"349 865 OFFCURVE",
"398 861 CURVE SMOOTH",
"436 858 OFFCURVE",
"488 891 OFFCURVE",
"496 935 CURVE",
"462 959 LINE",
"446 937 OFFCURVE",
"435 921 OFFCURVE",
"401 921 CURVE SMOOTH",
"360 921 OFFCURVE",
"326 983 OFFCURVE",
"268 983 CURVE SMOOTH",
"209 983 OFFCURVE",
"175 935 OFFCURVE",
"174 901 CURVE"
);
}
);
};
components = (
{
name = A;
},
{
name = brevecomb_tildecomb.case;
transform = "{1, 0, 0, 1, 332, 0}";
}
);
layerId = UUID0;
width = 661;
},
{
background = {
anchors = (
{
name = bottom;
position = "{344, 0}";
},
{
name = mark0;
position = "{280, -83}";
},
{
name = ogonek;
position = "{649, 10}";
},
{
name = top;
position = "{355, 981}";
}
);
paths = (
{
closed = 1;
nodes = (
"-22 74 LINE",
"-21 0 LINE",
"260 0 LINE",
"260 74 LINE",
"186 83 LINE",
"213 191 LINE",
"426 191 LINE",
"454 85 LINE",
"389 74 LINE",
"389 0 LINE",
"729 0 LINE",
"729 74 LINE",
"677 85 LINE",
"463 745 LINE",
"248 745 LINE",
"34 86 LINE"
);
},
{
closed = 1;
nodes = (
"234 276 LINE",
"306 563 LINE",
"317 625 LINE",
"328 563 LINE",
"404 276 LINE"
);
},
{
closed = 1;
nodes = (
"455 720 OFFCURVE",
"502 756 OFFCURVE",
"502 820 CURVE SMOOTH",
"502 827 OFFCURVE",
"501 845 OFFCURVE",
"500 852 CURVE",
"441 852 LINE",
"442 849 OFFCURVE",
"442 846 OFFCURVE",
"442 840 CURVE SMOOTH",
"442 825 OFFCURVE",
"416 801 OFFCURVE",
"355 801 CURVE SMOOTH",
"294 801 OFFCURVE",
"271 825 OFFCURVE",
"271 841 CURVE SMOOTH",
"271 847 OFFCURVE",
"271 849 OFFCURVE",
"271 852 CURVE",
"210 852 LINE",
"208 845 OFFCURVE",
"208 826 OFFCURVE",
"208 819 CURVE SMOOTH",
"208 756 OFFCURVE",
"259 720 OFFCURVE",
"355 720 CURVE SMOOTH"
);
},
{
closed = 1;
nodes = (
"222 871 LINE",
"237 891 OFFCURVE",
"253 910 OFFCURVE",
"275 910 CURVE SMOOTH",
"317 910 OFFCURVE",
"348 854 OFFCURVE",
"407 854 CURVE SMOOTH",
"470 854 OFFCURVE",
"503 896 OFFCURVE",
"511 940 CURVE",
"477 964 LINE",
"461 942 OFFCURVE",
"454 929 OFFCURVE",
"420 929 CURVE SMOOTH",
"379 929 OFFCURVE",
"341 983 OFFCURVE",
"283 983 CURVE SMOOTH",
"224 983 OFFCURVE",
"190 928 OFFCURVE",
"189 894 CURVE"
);
}
);
};
components = (
{
name = A;
},
{
name = brevecomb_tildecomb.case;
transform = "{1, 0, 0, 1, 328, 0}";
}
);
layerId = "809C3DC2-6073-4494-AA7C-C910FAB1DD5E";
width = 660;
}
);
leftKerningGroup = A;
rightKerningGroup = A;
unicode = 1EB4;
},
{
color = 4;
glyphname = Acaron;
layers = (
{
background = {
anchors = (
{
name = bottom;
position = "{335, 0}";
},
{
name = mark0;
position = "{329, -83}";
},
{
name = ogonek;
position = "{615, 10}";
},
{
name = top;
position = "{340, 982}";
}
);
paths = (
{
closed = 1;
nodes = (
"-11 43 LINE",
"-11 0 LINE",
"214 0 LINE",
"214 43 LINE",
"125 53 LINE",
"178 211 LINE",
"490 211 LINE",
"543 52 LINE",
"455 43 LINE",
"455 0 LINE",
"699 0 LINE",
"699 43 LINE",
"634 52 LINE",
"383 750 LINE",
"301 750 LINE",
"53 52 LINE"
);
},
{
closed = 1;
nodes = (
"195 263 LINE",
"304 593 LINE",
"331 691 LINE",
"359 596 LINE",
"472 263 LINE"
);
},
{
closed = 1;
nodes = (
"182 960 LINE",
"303 826 LINE",
"379 826 LINE",
"498 961 LINE",
"465 982 LINE",
"341 882 LINE",
"218 982 LINE"
);
}
);
};
components = (
{
name = A;
},
{
name = caroncomb.case;
transform = "{1, 0, 0, 1, 332, 0}";
}
);
layerId = UUID0;
width = 661;
},
{
background = {
anchors = (
{
name = bottom;
position = "{344, 0}";
},
{
name = mark0;
position = "{280, -83}";
},
{
name = ogonek;
position = "{649, 10}";
},
{
name = top;
position = "{355, 983}";
}
);
paths = (
{
closed = 1;
nodes = (
"-22 74 LINE",
"-21 0 LINE",
"260 0 LINE",
"260 74 LINE",
"186 83 LINE",
"213 191 LINE",
"426 191 LINE",
"454 85 LINE",
"389 74 LINE",
"389 0 LINE",
"729 0 LINE",
"729 74 LINE",
"677 85 LINE",
"463 745 LINE",
"248 745 LINE",
"34 86 LINE"
);
},
{
closed = 1;
nodes = (
"234 276 LINE",
"306 563 LINE",
"317 625 LINE",
"328 563 LINE",
"404 276 LINE"
);
},
{
closed = 1;
nodes = (
"156 931 LINE",
"305 789 LINE",
"407 789 LINE",
"554 930 LINE",
"493 983 LINE",
"356 898 LINE",
"218 983 LINE"
);
}
);
};
components = (
{
name = A;
},
{
name = caroncomb.case;
transform = "{1, 0, 0, 1, 329, 0}";
}
);
layerId = "809C3DC2-6073-4494-AA7C-C910FAB1DD5E";
width = 660;
}
);
leftKerningGroup = A;
rightKerningGroup = A;
unicode = 01CD;
},
{
color = 4;
glyphname = Acircumflex;
layers = (
{
background = {
anchors = (
{
name = bottom;
position = "{335, 0}";
},
{
name = mark0;
position = "{329, -83}";
},
{
name = ogonek;
position = "{615, 10}";
},
{
name = top;
position = "{340, 983}";
}
);
paths = (
{
closed = 1;
nodes = (
"-11 43 LINE",
"-11 0 LINE",
"214 0 LINE",
"214 43 LINE",
"125 53 LINE",
"178 211 LINE",
"490 211 LINE",
"543 52 LINE",
"455 43 LINE",
"455 0 LINE",
"699 0 LINE",
"699 43 LINE",
"634 52 LINE",
"383 750 LINE",
"301 750 LINE",
"53 52 LINE"
);
},
{
closed = 1;
nodes = (
"195 263 LINE",
"304 593 LINE",
"331 691 LINE",
"359 596 LINE",
"472 263 LINE"
);
},
{
closed = 1;
nodes = (
"175 838 LINE",
"208 817 LINE",
"341 923 LINE",
"471 817 LINE",
"507 839 LINE",
"378 983 LINE",
"303 983 LINE"
);
}
);
};
components = (
{
name = A;
},
{
name = circumflexcomb.case;
transform = "{1, 0, 0, 1, 332, 0}";
}
);
layerId = UUID0;
width = 661;
},
{
background = {
anchors = (
{
name = bottom;
position = "{344, 0}";
},
{
name = mark0;
position = "{280, -83}";
},
{
name = ogonek;
position = "{649, 10}";
},
{
name = top;
position = "{355, 979}";
}
);
paths = (
{
closed = 1;
nodes = (
"-22 74 LINE",
"-21 0 LINE",
"260 0 LINE",
"260 74 LINE",
"186 83 LINE",
"213 191 LINE",
"426 191 LINE",
"454 85 LINE",
"389 74 LINE",
"389 0 LINE",
"729 0 LINE",
"729 74 LINE",
"677 85 LINE",
"463 745 LINE",
"248 745 LINE",
"34 86 LINE"
);
},
{
closed = 1;
nodes = (
"234 276 LINE",
"306 563 LINE",
"317 625 LINE",
"328 563 LINE",
"404 276 LINE"
);
},
{
closed = 1;
nodes = (
"147 832 LINE",
"208 779 LINE",
"356 870 LINE",
"504 779 LINE",
"565 833 LINE",
"408 979 LINE",
"306 979 LINE"
);
}
);
};
components = (
{
name = A;
},
{
name = circumflexcomb.case;
transform = "{1, 0, 0, 1, 329, 0}";
}
);
layerId = "809C3DC2-6073-4494-AA7C-C910FAB1DD5E";
width = 660;
}
);
leftKerningGroup = A;
rightKerningGroup = A;
unicode = 00C2;
},
{
color = 4;
glyphname = Acircumflexacute;
layers = (
{
background = {
anchors = (
{
name = bottom;
position = "{335, 0}";
},
{
name = mark0;
position = "{329, -83}";
},
{
name = ogonek;
position = "{615, 10}";
},
{
name = top;
position = "{340, 983}";
}
);
paths = (
{
closed = 1;
nodes = (
"-11 43 LINE",
"-11 0 LINE",
"214 0 LINE",
"214 43 LINE",
"125 53 LINE",
"178 211 LINE",
"490 211 LINE",
"543 52 LINE",
"455 43 LINE",
"455 0 LINE",
"699 0 LINE",
"699 43 LINE",
"634 52 LINE",
"383 750 LINE",
"301 750 LINE",
"53 52 LINE"
);
},
{
closed = 1;
nodes = (
"195 263 LINE",
"304 593 LINE",
"331 691 LINE",
"359 596 LINE",
"472 263 LINE"
);
},
{
closed = 1;
nodes = (
"587 877 OFFCURVE",
"626 911 OFFCURVE",
"646 940 CURVE",
"593 983 LINE",
"498 881 LINE",
"534 847 LINE"
);
},
{
closed = 1;
nodes = (
"182 815 LINE",
"215 783 LINE",
"340 878 LINE",
"465 783 LINE",
"497 815 LINE",
"380 941 LINE",
"300 941 LINE"
);
}
);
};
components = (
{
name = A;
},
{
name = circumflexcomb_acutecomb.case;
transform = "{1, 0, 0, 1, 332, 0}";
}
);
layerId = UUID0;
width = 661;
},
{
background = {
anchors = (
{
name = bottom;
position = "{344, 0}";
},
{
name = mark0;
position = "{280, -83}";
},
{
name = ogonek;
position = "{649, 10}";
},
{
name = top;
position = "{355, 979}";
}
);
paths = (
{
closed = 1;
nodes = (
"-22 74 LINE",
"-21 0 LINE",
"260 0 LINE",
"260 74 LINE",
"186 83 LINE",
"213 191 LINE",
"426 191 LINE",
"454 85 LINE",
"389 74 LINE",
"389 0 LINE",
"729 0 LINE",
"729 74 LINE",
"677 85 LINE",
"463 745 LINE",
"248 745 LINE",
"34 86 LINE"
);
},
{
closed = 1;
nodes = (
"234 276 LINE",
"306 563 LINE",
"317 625 LINE",
"328 563 LINE",
"404 276 LINE"
);
},
{
closed = 1;
nodes = (
"167 812 LINE",
"214 766 LINE",
"355 870 LINE",
"494 767 LINE",
"542 812 LINE",
"405 970 LINE",
"305 970 LINE"
);
},
{
closed = 1;
nodes = (
"626 857 OFFCURVE",
"667 892 OFFCURVE",
"687 921 CURVE",
"613 983 LINE",
"522 881 LINE",
"573 830 LINE"
);
}
);
};
components = (
{
name = A;
},
{
name = circumflexcomb_acutecomb.case;
transform = "{1, 0, 0, 1, 328, 0}";
}
);
layerId = "809C3DC2-6073-4494-AA7C-C910FAB1DD5E";
width = 660;
}
);
leftKerningGroup = A;
rightKerningGroup = A;
unicode = 1EA4;
},
{
color = 4;
glyphname = Acircumflexdotbelow;
layers = (
{
background = {
anchors = (
{
name = _bottom;
position = "{335, 0}";
},
{
name = bottom;
position = "{335, 0}";
},
{
name = mark0;
position = "{329, -83}";
},
{
name = ogonek;
position = "{615, 10}";
},
{
name = top;
position = "{340, 983}";
}
);
paths = (
{
closed = 1;
nodes = (
"330 -196 LINE",
"373 -196 OFFCURVE",
"393 -165 OFFCURVE",
"393 -126 CURVE SMOOTH",
"393 -97 OFFCURVE",
"374 -66 OFFCURVE",
"338 -66 CURVE SMOOTH",
"296 -66 OFFCURVE",
"275 -101 OFFCURVE",
"275 -136 CURVE SMOOTH",
"275 -169 OFFCURVE",
"296 -196 OFFCURVE",
"328 -196 CURVE"
);
},
{
closed = 1;
nodes = (
"-11 43 LINE",
"-11 0 LINE",
"214 0 LINE",
"214 43 LINE",
"125 53 LINE",
"178 211 LINE",
"490 211 LINE",
"543 52 LINE",
"455 43 LINE",
"455 0 LINE",
"699 0 LINE",
"699 43 LINE",
"634 52 LINE",
"383 750 LINE",
"301 750 LINE",
"53 52 LINE"
);
},
{
closed = 1;
nodes = (
"195 263 LINE",
"304 593 LINE",
"331 691 LINE",
"359 596 LINE",
"472 263 LINE"
);
},
{
closed = 1;
nodes = (
"175 838 LINE",
"208 817 LINE",
"341 923 LINE",
"471 817 LINE",
"507 839 LINE",
"378 983 LINE",
"303 983 LINE"
);
}
);
};
components = (
{
name = A;
},
{
name = dotbelowcomb.case;
transform = "{1, 0, 0, 1, 290, 0}";
},
{
name = circumflexcomb.case;
transform = "{1, 0, 0, 1, 332, 0}";
}
);
layerId = UUID0;
width = 661;
},
{
background = {
anchors = (
{
name = _bottom;
position = "{344, 0}";
},
{
name = bottom;
position = "{344, 0}";
},
{
name = mark0;
position = "{280, -83}";
},
{
name = ogonek;
position = "{649, 10}";
},
{
name = top;
position = "{355, 979}";
}
);
paths = (
{
closed = 1;
nodes = (
"337 -234 LINE",
"407 -234 OFFCURVE",
"442 -191 OFFCURVE",
"442 -136 CURVE SMOOTH",
"442 -89 OFFCURVE",
"410 -52 OFFCURVE",
"348 -52 CURVE SMOOTH",
"284 -52 OFFCURVE",
"247 -95 OFFCURVE",
"247 -151 CURVE SMOOTH",
"247 -198 OFFCURVE",
"284 -234 OFFCURVE",
"337 -234 CURVE"
);
},
{
closed = 1;
nodes = (
"-22 74 LINE",
"-21 0 LINE",
"260 0 LINE",
"260 74 LINE",
"186 83 LINE",
"213 191 LINE",
"426 191 LINE",
"454 85 LINE",
"389 74 LINE",
"389 0 LINE",
"729 0 LINE",
"729 74 LINE",
"677 85 LINE",
"463 745 LINE",
"248 745 LINE",
"34 86 LINE"
);
},
{
closed = 1;
nodes = (
"234 276 LINE",
"306 563 LINE",
"317 625 LINE",
"328 563 LINE",
"404 276 LINE"
);
},
{
closed = 1;
nodes = (
"147 832 LINE",
"208 779 LINE",
"356 870 LINE",
"504 779 LINE",
"565 833 LINE",
"408 979 LINE",
"306 979 LINE"
);
}
);
};
components = (
{
name = A;
},
{
name = dotbelowcomb.case;
transform = "{1, 0, 0, 1, 275, 0}";
},
{
name = circumflexcomb.case;
transform = "{1, 0, 0, 1, 329, 0}";
}
);
layerId = "809C3DC2-6073-4494-AA7C-C910FAB1DD5E";
width = 660;
}
);
leftKerningGroup = A;
rightKerningGroup = A;
unicode = 1EAC;
},
{
color = 4;
glyphname = Acircumflexgrave;
layers = (
{
background = {
anchors = (
{
name = bottom;
position = "{335, 0}";
},
{
name = mark0;
position = "{329, -83}";
},
{
name = ogonek;
position = "{615, 10}";
},
{
name = top;
position = "{340, 983}";
}
);
paths = (
{
closed = 1;
nodes = (
"-11 43 LINE",
"-11 0 LINE",
"214 0 LINE",
"214 43 LINE",
"125 53 LINE",
"178 211 LINE",
"490 211 LINE",
"543 52 LINE",
"455 43 LINE",
"455 0 LINE",
"699 0 LINE",
"699 43 LINE",
"634 52 LINE",
"383 750 LINE",
"301 750 LINE",
"53 52 LINE"
);
},
{
closed = 1;
nodes = (
"195 263 LINE",
"304 593 LINE",
"331 691 LINE",
"359 596 LINE",
"472 263 LINE"
);
},
{
closed = 1;
nodes = (
"182 815 LINE",
"215 783 LINE",
"340 878 LINE",
"465 783 LINE",
"497 815 LINE",
"380 941 LINE",
"300 941 LINE"
);
},
{
closed = 1;
nodes = (
"636 881 LINE",
"541 983 LINE",
"488 940 LINE",
"508 911 OFFCURVE",
"547 877 OFFCURVE",
"600 847 CURVE"
);
}
);
};
components = (
{
name = A;
},
{
name = circumflexcomb_gravecomb.case;
transform = "{1, 0, 0, 1, 331, 0}";
}
);
layerId = UUID0;
width = 661;
},
{
background = {
anchors = (
{
name = bottom;
position = "{344, 0}";
},
{
name = mark0;
position = "{280, -83}";
},
{
name = ogonek;
position = "{649, 10}";
},
{
name = top;
position = "{355, 979}";
}
);
paths = (
{
closed = 1;
nodes = (
"-22 74 LINE",
"-21 0 LINE",
"260 0 LINE",
"260 74 LINE",
"186 83 LINE",
"213 191 LINE",
"426 191 LINE",
"454 85 LINE",
"389 74 LINE",
"389 0 LINE",
"729 0 LINE",
"729 74 LINE",
"677 85 LINE",
"463 745 LINE",
"248 745 LINE",
"34 86 LINE"
);
},
{
closed = 1;
nodes = (
"234 276 LINE",
"306 563 LINE",
"317 625 LINE",
"328 563 LINE",
"404 276 LINE"
);
},
{
closed = 1;
nodes = (
"167 805 LINE",
"214 759 LINE",
"355 846 LINE",
"494 760 LINE",
"542 805 LINE",
"405 941 LINE",
"305 941 LINE"
);
},
{
closed = 1;
nodes = (
"672 881 LINE",
"577 983 LINE",
"505 922 LINE",
"525 893 OFFCURVE",
"564 859 OFFCURVE",
"617 829 CURVE"
);
}
);
};
components = (
{
name = A;
},
{
name = circumflexcomb_gravecomb.case;
transform = "{1, 0, 0, 1, 327, 0}";
}
);
layerId = "809C3DC2-6073-4494-AA7C-C910FAB1DD5E";
width = 660;
}
);
leftKerningGroup = A;
rightKerningGroup = A;
unicode = 1EA6;
},
{
color = 4;
glyphname = Acircumflexhookabove;
layers = (
{
background = {
anchors = (
{
name = bottom;
position = "{335, 0}";
},
{
name = mark0;
position = "{329, -83}";
},
{
name = ogonek;
position = "{615, 10}";
},
{
name = top;
position = "{340, 983}";
}
);
paths = (
{
closed = 1;
nodes = (
"-11 43 LINE",
"-11 0 LINE",
"214 0 LINE",
"214 43 LINE",
"125 53 LINE",
"178 211 LINE",
"490 211 LINE",
"543 52 LINE",
"455 43 LINE",
"455 0 LINE",
"699 0 LINE",
"699 43 LINE",
"634 52 LINE",
"383 750 LINE",
"301 750 LINE",
"53 52 LINE"
);
},
{
closed = 1;
nodes = (
"195 263 LINE",
"304 593 LINE",
"331 691 LINE",
"359 596 LINE",
"472 263 LINE"
);
},
{
closed = 1;
nodes = (
"182 815 LINE",
"215 783 LINE",
"340 878 LINE",
"465 783 LINE",
"497 815 LINE",
"380 941 LINE",
"300 941 LINE"
);
},
{
closed = 1;
nodes = (
"569 785 LINE",
"565 800 OFFCURVE",
"569 809 OFFCURVE",
"576 816 CURVE SMOOTH",
"600 840 OFFCURVE",
"646 851 OFFCURVE",
"646 899 CURVE SMOOTH",
"646 957 OFFCURVE",
"605 983 OFFCURVE",
"541 983 CURVE SMOOTH",
"530 983 OFFCURVE",
"503 980 OFFCURVE",
"500 976 CURVE",
"503 926 LINE",
"507 929 OFFCURVE",
"532 936 OFFCURVE",
"541 935 CURVE SMOOTH",
"578 931 OFFCURVE",
"586 905 OFFCURVE",
"586 890 CURVE SMOOTH",
"586 851 OFFCURVE",
"525 858 OFFCURVE",
"525 816 CURVE",
"525 804 OFFCURVE",
"534 789 OFFCURVE",
"541 779 CURVE"
);
}
);
};
components = (
{
name = A;
},
{
name = circumflexcomb_hookabovecomb.case;
transform = "{1, 0, 0, 1, 331, 0}";
}
);
layerId = UUID0;
width = 661;
},
{
background = {
anchors = (
{
name = bottom;
position = "{344, 0}";
},
{
name = mark0;
position = "{280, -83}";
},
{
name = ogonek;
position = "{649, 10}";
},
{
name = top;
position = "{355, 979}";
}
);
paths = (
{
closed = 1;
nodes = (
"-22 74 LINE",
"-21 0 LINE",
"260 0 LINE",
"260 74 LINE",
"186 83 LINE",
"213 191 LINE",
"426 191 LINE",
"454 85 LINE",
"389 74 LINE",
"389 0 LINE",
"729 0 LINE",
"729 74 LINE",
"677 85 LINE",
"463 745 LINE",
"248 745 LINE",
"34 86 LINE"
);
},
{
closed = 1;
nodes = (
"234 276 LINE",
"306 563 LINE",
"317 625 LINE",
"328 563 LINE",
"404 276 LINE"
);
},
{
closed = 1;
nodes = (
"167 805 LINE",
"214 759 LINE",
"355 846 LINE",
"494 760 LINE",
"542 805 LINE",
"405 941 LINE",
"305 941 LINE"
);
},
{
closed = 1;
nodes = (
"641 791 LINE",
"637 806 OFFCURVE",
"641 815 OFFCURVE",
"648 822 CURVE SMOOTH",
"672 846 OFFCURVE",
"695 860 OFFCURVE",
"695 908 CURVE SMOOTH",
"695 966 OFFCURVE",
"650 983 OFFCURVE",
"586 983 CURVE SMOOTH",
"575 983 OFFCURVE",
"528 980 OFFCURVE",
"525 976 CURVE",
"528 906 LINE",
"545 914 OFFCURVE",
"558 916 OFFCURVE",
"575 916 CURVE SMOOTH",
"600 916 OFFCURVE",
"611 906 OFFCURVE",
"611 890 CURVE SMOOTH",
"611 854 OFFCURVE",
"570 851 OFFCURVE",
"570 816 CURVE",
"570 804 OFFCURVE",
"575 795 OFFCURVE",
"586 779 CURVE"
);
}
);
};
components = (
{
name = A;
},
{
name = circumflexcomb_hookabovecomb.case;
transform = "{1, 0, 0, 1, 327, 0}";
}
);
layerId = "809C3DC2-6073-4494-AA7C-C910FAB1DD5E";
width = 660;
}
);
leftKerningGroup = A;
rightKerningGroup = A;
unicode = 1EA8;
},
{
color = 4;
glyphname = Acircumflextilde;
layers = (
{
background = {
anchors = (
{
name = bottom;
position = "{335, 0}";
},
{
name = mark0;
position = "{329, -83}";
},
{
name = ogonek;
position = "{615, 10}";
},
{
name = top;
position = "{340, 983}";
}
);
paths = (
{
closed = 1;
nodes = (
"-11 43 LINE",
"-11 0 LINE",
"214 0 LINE",
"214 43 LINE",
"125 53 LINE",
"178 211 LINE",
"490 211 LINE",
"543 52 LINE",
"455 43 LINE",
"455 0 LINE",
"699 0 LINE",
"699 43 LINE",
"634 52 LINE",
"383 750 LINE",
"301 750 LINE",
"53 52 LINE"
);
},
{
closed = 1;
nodes = (
"195 263 LINE",
"304 593 LINE",
"331 691 LINE",
"359 596 LINE",
"472 263 LINE"
);
},
{
closed = 1;
nodes = (
"160 796 LINE",
"192 759 LINE",
"340 829 LINE",
"485 760 LINE",
"520 796 LINE",
"378 888 LINE",
"300 888 LINE"
);
},
{
closed = 1;
nodes = (
"207 878 LINE",
"222 898 OFFCURVE",
"239 919 OFFCURVE",
"265 919 CURVE SMOOTH",
"307 919 OFFCURVE",
"349 861 OFFCURVE",
"398 861 CURVE SMOOTH",
"446 861 OFFCURVE",
"488 891 OFFCURVE",
"496 935 CURVE",
"462 959 LINE",
"446 937 OFFCURVE",
"435 921 OFFCURVE",
"401 921 CURVE SMOOTH",
"360 921 OFFCURVE",
"326 983 OFFCURVE",
"268 983 CURVE SMOOTH",
"209 983 OFFCURVE",
"175 935 OFFCURVE",
"174 901 CURVE"
);
}
);
};
components = (
{
name = A;
},
{
name = circumflexcomb_tildecomb.case;
transform = "{1, 0, 0, 1, 331, 0}";
}
);
layerId = UUID0;
width = 661;
},
{
background = {
anchors = (
{
name = bottom;
position = "{344, 0}";
},
{
name = mark0;
position = "{280, -83}";
},
{
name = ogonek;
position = "{649, 10}";
},
{
name = top;
position = "{355, 979}";
}
);
paths = (
{
closed = 1;
nodes = (
"-22 74 LINE",
"-21 0 LINE",
"260 0 LINE",
"260 74 LINE",
"186 83 LINE",
"213 191 LINE",
"426 191 LINE",
"454 85 LINE",
"389 74 LINE",
"389 0 LINE",
"729 0 LINE",
"729 74 LINE",
"677 85 LINE",
"463 745 LINE",
"248 745 LINE",
"34 86 LINE"
);
},
{
closed = 1;
nodes = (
"234 276 LINE",
"306 563 LINE",
"317 625 LINE",
"328 563 LINE",
"404 276 LINE"
);
},
{
closed = 1;
nodes = (
"175 796 LINE",
"207 750 LINE",
"355 809 LINE",
"500 751 LINE",
"535 796 LINE",
"405 888 LINE",
"305 888 LINE"
);
},
{
closed = 1;
nodes = (
"222 871 LINE",
"237 891 OFFCURVE",
"253 910 OFFCURVE",
"275 910 CURVE SMOOTH",
"317 910 OFFCURVE",
"348 854 OFFCURVE",
"407 854 CURVE SMOOTH",
"470 854 OFFCURVE",
"503 896 OFFCURVE",
"511 940 CURVE",
"477 964 LINE",
"461 942 OFFCURVE",
"454 929 OFFCURVE",
"420 929 CURVE SMOOTH",
"379 929 OFFCURVE",
"341 983 OFFCURVE",
"283 983 CURVE SMOOTH",
"224 983 OFFCURVE",
"190 928 OFFCURVE",
"189 894 CURVE"
);
}
);
};
components = (
{
name = A;
},
{
name = circumflexcomb_tildecomb.case;
transform = "{1, 0, 0, 1, 327, 0}";
}
);
layerId = "809C3DC2-6073-4494-AA7C-C910FAB1DD5E";
width = 660;
}
);
leftKerningGroup = A;
rightKerningGroup = A;
unicode = 1EAA;
},
{
color = 4;
glyphname = Adieresis;
layers = (
{
background = {
anchors = (
{
name = bottom;
position = "{335, 0}";
},
{
name = mark0;
position = "{329, -83}";
},
{
name = ogonek;
position = "{615, 10}";
},
{
name = top;
position = "{340, 903}";
}
);
paths = (
{
closed = 1;
nodes = (
"-11 43 LINE",
"-11 0 LINE",
"214 0 LINE",
"214 43 LINE",
"125 53 LINE",
"178 211 LINE",
"490 211 LINE",
"543 52 LINE",
"455 43 LINE",
"455 0 LINE",
"699 0 LINE",
"699 43 LINE",
"634 52 LINE",
"383 750 LINE",
"301 750 LINE",
"53 52 LINE"
);
},
{
closed = 1;
nodes = (
"195 263 LINE",
"304 593 LINE",
"331 691 LINE",
"359 596 LINE",
"472 263 LINE"
);
},
{
closed = 1;
nodes = (
"216 826 LINE",
"257 826 OFFCURVE",
"277 856 OFFCURVE",
"277 891 CURVE SMOOTH",
"277 920 OFFCURVE",
"257 950 OFFCURVE",
"224 950 CURVE",
"223 950 LINE",
"184 950 OFFCURVE",
"165 917 OFFCURVE",
"165 883 CURVE SMOOTH",
"165 852 OFFCURVE",
"184 826 OFFCURVE",
"215 826 CURVE"
);
},
{
closed = 1;
nodes = (
"494 826 OFFCURVE",
"514 856 OFFCURVE",
"514 891 CURVE SMOOTH",
"514 920 OFFCURVE",
"496 950 OFFCURVE",
"462 950 CURVE",
"461 950 LINE",
"422 950 OFFCURVE",
"403 917 OFFCURVE",
"403 883 CURVE SMOOTH",
"403 852 OFFCURVE",
"422 826 OFFCURVE",
"453 826 CURVE SMOOTH"
);
}
);
};
components = (
{
name = A;
},
{
name = dieresiscomb.case;
transform = "{1, 0, 0, 1, 333, 0}";
}
);
layerId = UUID0;
width = 661;
},
{
background = {
anchors = (
{
name = bottom;
position = "{344, 0}";
},
{
name = mark0;
position = "{280, -83}";
},
{
name = ogonek;
position = "{649, 10}";
},
{
name = top;
position = "{355, 938}";
}
);
paths = (
{
closed = 1;
nodes = (
"-22 74 LINE",
"-21 0 LINE",
"260 0 LINE",
"260 74 LINE",
"186 83 LINE",
"213 191 LINE",
"426 191 LINE",
"454 85 LINE",
"389 74 LINE",
"389 0 LINE",
"729 0 LINE",
"729 74 LINE",
"677 85 LINE",
"463 745 LINE",
"248 745 LINE",
"34 86 LINE"
);
},
{
closed = 1;
nodes = (
"234 276 LINE",
"306 563 LINE",
"317 625 LINE",
"328 563 LINE",
"404 276 LINE"
);
},
{
closed = 1;
nodes = (
"208 794 LINE",
"282 794 OFFCURVE",
"311 838 OFFCURVE",
"311 894 CURVE SMOOTH",
"311 938 OFFCURVE",
"287 977 OFFCURVE",
"225 977 CURVE",
"224 977 LINE",
"158 977 OFFCURVE",
"131 934 OFFCURVE",
"131 878 CURVE SMOOTH",
"131 833 OFFCURVE",
"161 794 OFFCURVE",
"207 794 CURVE"
);
},
{
closed = 1;
nodes = (
"551 794 OFFCURVE",
"579 838 OFFCURVE",
"579 894 CURVE SMOOTH",
"579 938 OFFCURVE",
"556 977 OFFCURVE",
"493 977 CURVE",
"492 977 LINE",
"426 977 OFFCURVE",
"400 934 OFFCURVE",
"400 878 CURVE SMOOTH",
"400 839 OFFCURVE",
"429 794 OFFCURVE",
"476 794 CURVE SMOOTH"
);
}
);
};
components = (
{
name = A;
},
{
name = dieresiscomb.case;
transform = "{1, 0, 0, 1, 329, 0}";
}
);
layerId = "809C3DC2-6073-4494-AA7C-C910FAB1DD5E";
width = 660;
}
);
leftKerningGroup = A;
rightKerningGroup = A;
unicode = 00C4;
},
{
color = 4;
glyphname = Adotbelow;
layers = (
{
background = {
anchors = (
{
name = bottom;
position = "{335, -173}";
},
{
name = mark0;
position = "{329, -83}";
},
{
name = ogonek;
position = "{615, 10}";
},
{
name = top;
position = "{340, 743}";
}
);
paths = (
{
closed = 1;
nodes = (
"-11 43 LINE",
"-11 0 LINE",
"214 0 LINE",
"214 43 LINE",
"125 53 LINE",
"178 211 LINE",
"490 211 LINE",
"543 52 LINE",
"455 43 LINE",
"455 0 LINE",
"699 0 LINE",
"699 43 LINE",
"634 52 LINE",
"383 750 LINE",
"301 750 LINE",
"53 52 LINE"
);
},
{
closed = 1;
nodes = (
"195 263 LINE",
"304 593 LINE",
"331 691 LINE",
"359 596 LINE",
"472 263 LINE"
);
},
{
closed = 1;
nodes = (
"330 -196 LINE",
"373 -196 OFFCURVE",
"393 -165 OFFCURVE",
"393 -126 CURVE SMOOTH",
"393 -97 OFFCURVE",
"374 -66 OFFCURVE",
"338 -66 CURVE SMOOTH",
"296 -66 OFFCURVE",
"275 -101 OFFCURVE",
"275 -136 CURVE SMOOTH",
"275 -169 OFFCURVE",
"296 -196 OFFCURVE",
"328 -196 CURVE"
);
}
);
};
components = (
{
name = A;
},
{
name = dotbelowcomb.case;
transform = "{1, 0, 0, 1, 290, 0}";
}
);
layerId = UUID0;
width = 661;
},
{
background = {
anchors = (
{
name = bottom;
position = "{344, -194}";
},
{
name = mark0;
position = "{280, -83}";
},
{
name = ogonek;
position = "{649, 10}";
},
{
name = top;
position = "{355, 743}";
}
);
paths = (
{
closed = 1;
nodes = (
"-22 74 LINE",
"-21 0 LINE",
"260 0 LINE",
"260 74 LINE",
"186 83 LINE",
"213 191 LINE",
"426 191 LINE",
"454 85 LINE",
"389 74 LINE",
"389 0 LINE",
"729 0 LINE",
"729 74 LINE",
"677 85 LINE",
"463 745 LINE",
"248 745 LINE",
"34 86 LINE"
);
},
{
closed = 1;
nodes = (
"234 276 LINE",
"306 563 LINE",
"317 625 LINE",
"328 563 LINE",
"404 276 LINE"
);
},
{
closed = 1;
nodes = (
"337 -234 LINE",
"407 -234 OFFCURVE",
"442 -191 OFFCURVE",
"442 -136 CURVE SMOOTH",
"442 -89 OFFCURVE",
"410 -52 OFFCURVE",
"348 -52 CURVE SMOOTH",
"284 -52 OFFCURVE",
"247 -95 OFFCURVE",
"247 -151 CURVE SMOOTH",
"247 -198 OFFCURVE",
"284 -234 OFFCURVE",
"337 -234 CURVE"
);
}
);
};
components = (
{
name = A;
},
{
name = dotbelowcomb.case;
transform = "{1, 0, 0, 1, 275, 0}";
}
);
layerId = "809C3DC2-6073-4494-AA7C-C910FAB1DD5E";
width = 660;
}
);
leftKerningGroup = A;
rightKerningGroup = A;
unicode = 1EA0;
},
{
color = 4;
glyphname = Agrave;
layers = (
{
background = {
anchors = (
{
name = bottom;
position = "{335, 0}";
},
{
name = mark0;
position = "{329, -83}";
},
{
name = ogonek;
position = "{615, 10}";
},
{
name = top;
position = "{340, 980}";
}
);
paths = (
{
closed = 1;
nodes = (
"-11 43 LINE",
"-11 0 LINE",
"214 0 LINE",
"214 43 LINE",
"125 53 LINE",
"178 211 LINE",
"490 211 LINE",
"543 52 LINE",
"455 43 LINE",
"455 0 LINE",
"699 0 LINE",
"699 43 LINE",
"634 52 LINE",
"383 750 LINE",
"301 750 LINE",
"53 52 LINE"
);
},
{
closed = 1;
nodes = (
"195 263 LINE",
"304 593 LINE",
"331 691 LINE",
"359 596 LINE",
"472 263 LINE"
);
},
{
closed = 1;
nodes = (
"411 827 LINE",
"275 980 LINE",
"206 936 LINE",
"239 892 OFFCURVE",
"318 828 OFFCURVE",
"369 802 CURVE"
);
}
);
};
components = (
{
name = A;
},
{
name = gravecomb.case;
transform = "{1, 0, 0, 1, 332, 0}";
}
);
layerId = UUID0;
width = 661;
},
{
background = {
anchors = (
{
name = bottom;
position = "{344, 0}";
},
{
name = mark0;
position = "{280, -83}";
},
{
name = ogonek;
position = "{649, 10}";
},
{
name = top;
position = "{355, 983}";
}
);
paths = (
{
closed = 1;
nodes = (
"-22 74 LINE",
"-21 0 LINE",
"260 0 LINE",
"260 74 LINE",
"186 83 LINE",
"213 191 LINE",
"426 191 LINE",
"454 85 LINE",
"389 74 LINE",
"389 0 LINE",
"729 0 LINE",
"729 74 LINE",
"677 85 LINE",
"463 745 LINE",
"248 745 LINE",
"34 86 LINE"
);
},
{
closed = 1;
nodes = (
"234 276 LINE",
"306 563 LINE",
"317 625 LINE",
"328 563 LINE",
"404 276 LINE"
);
},
{
closed = 1;
nodes = (
"437 839 LINE",
"303 983 LINE",
"184 905 LINE",
"231 849 OFFCURVE",
"326 799 OFFCURVE",
"365 789 CURVE"
);
}
);
};
components = (
{
name = A;
},
{
name = gravecomb.case;
transform = "{1, 0, 0, 1, 328, 0}";
}
);
layerId = "809C3DC2-6073-4494-AA7C-C910FAB1DD5E";
width = 660;
}
);
leftKerningGroup = A;
rightKerningGroup = A;
unicode = 00C0;
},
{
color = 4;
glyphname = Ahookabove;
layers = (
{
background = {
anchors = (
{
name = bottom;
position = "{335, 0}";
},
{
name = mark0;
position = "{329, -83}";
},
{
name = ogonek;
position = "{615, 10}";
},
{
name = top;
position = "{340, 1002}";
}
);
paths = (
{
closed = 1;
nodes = (
"-11 43 LINE",
"-11 0 LINE",
"214 0 LINE",
"214 43 LINE",
"125 53 LINE",
"178 211 LINE",
"490 211 LINE",
"543 52 LINE",
"455 43 LINE",
"455 0 LINE",
"699 0 LINE",
"699 43 LINE",
"634 52 LINE",
"383 750 LINE",
"301 750 LINE",
"53 52 LINE"
);
},
{
closed = 1;
nodes = (
"195 263 LINE",
"304 593 LINE",
"331 691 LINE",
"359 596 LINE",
"472 263 LINE"
);
},
{
closed = 1;
nodes = (
"362 812 LINE",
"357 828 OFFCURVE",
"356 852 OFFCURVE",
"364 859 CURVE SMOOTH",
"391 883 OFFCURVE",
"436 893 OFFCURVE",
"436 944 CURVE SMOOTH",
"436 1006 OFFCURVE",
"395 1044 OFFCURVE",
"324 1044 CURVE SMOOTH",
"300 1044 OFFCURVE",
"279 1037 OFFCURVE",
"262 1029 CURVE",
"265 976 LINE",
"276 982 OFFCURVE",
"292 986 OFFCURVE",
"308 986 CURVE SMOOTH",
"347 986 OFFCURVE",
"365 963 OFFCURVE",
"365 931 CURVE",
"365 896 OFFCURVE",
"304 889 OFFCURVE",
"304 862 CURVE",
"304 845 OFFCURVE",
"317 822 OFFCURVE",
"325 812 CURVE"
);
}
);
};
components = (
{
name = A;
},
{
name = hookabovecomb.case;
transform = "{1, 0, 0, 1, 332, 0}";
}
);
layerId = UUID0;
width = 661;
},
{
background = {
anchors = (
{
name = bottom;
position = "{344, 0}";
},
{
name = mark0;
position = "{280, -83}";
},
{
name = ogonek;
position = "{649, 10}";
},
{
name = top;
position = "{355, 1021}";
}
);
paths = (
{
closed = 1;
nodes = (
"-22 74 LINE",
"-21 0 LINE",
"260 0 LINE",
"260 74 LINE",
"186 83 LINE",
"213 191 LINE",
"426 191 LINE",
"454 85 LINE",
"389 74 LINE",
"389 0 LINE",
"729 0 LINE",
"729 74 LINE",
"677 85 LINE",
"463 745 LINE",
"248 745 LINE",
"34 86 LINE"
);
},
{
closed = 1;
nodes = (
"234 276 LINE",
"306 563 LINE",
"317 625 LINE",
"328 563 LINE",
"404 276 LINE"
);
},
{
closed = 1;
nodes = (
"400 796 LINE",
"393 824 OFFCURVE",
"403 846 OFFCURVE",
"414 856 CURVE SMOOTH",
"436 876 OFFCURVE",
"464 903 OFFCURVE",
"464 945 CURVE SMOOTH",
"464 1026 OFFCURVE",
"407 1067 OFFCURVE",
"318 1067 CURVE SMOOTH",
"295 1067 OFFCURVE",
"262 1062 OFFCURVE",
"241 1052 CURVE",
"243 953 LINE",
"254 962 OFFCURVE",
"279 966 OFFCURVE",
"293 966 CURVE SMOOTH",
"332 966 OFFCURVE",
"345 945 OFFCURVE",
"345 919 CURVE SMOOTH",
"345 875 OFFCURVE",
"307 875 OFFCURVE",
"307 843 CURVE",
"307 824 OFFCURVE",
"320 803 OFFCURVE",
"327 796 CURVE"
);
}
);
};
components = (
{
name = A;
},
{
name = hookabovecomb.case;
transform = "{1, 0, 0, 1, 328, 0}";
}
);
layerId = "809C3DC2-6073-4494-AA7C-C910FAB1DD5E";
width = 660;
}
);
leftKerningGroup = A;
rightKerningGroup = A;
unicode = 1EA2;
},
{
color = 4;
glyphname = Amacron;
layers = (
{
background = {
anchors = (
{
name = bottom;
position = "{335, 0}";
},
{
name = mark0;
position = "{329, -83}";
},
{
name = ogonek;
position = "{615, 10}";
},
{
name = top;
position = "{340, 920}";
}
);
paths = (
{
closed = 1;
nodes = (
"-11 43 LINE",
"-11 0 LINE",
"214 0 LINE",
"214 43 LINE",
"125 53 LINE",
"178 211 LINE",
"490 211 LINE",
"543 52 LINE",
"455 43 LINE",
"455 0 LINE",
"699 0 LINE",
"699 43 LINE",
"634 52 LINE",
"383 750 LINE",
"301 750 LINE",
"53 52 LINE"
);
},
{
closed = 1;
nodes = (
"195 263 LINE",
"304 593 LINE",
"331 691 LINE",
"359 596 LINE",
"472 263 LINE"
);
},
{
closed = 1;
nodes = (
"198 922 LINE",
"198 859 LINE",
"482 859 LINE",
"482 922 LINE"
);
}
);
};
components = (
{
name = A;
},
{
name = macroncomb.case;
transform = "{1, 0, 0, 1, 332, 0}";
}
);
layerId = UUID0;
width = 661;
},
{
background = {
anchors = (
{
name = bottom;
position = "{344, 0}";
},
{
name = mark0;
position = "{280, -83}";
},
{
name = ogonek;
position = "{649, 10}";
},
{
name = top;
position = "{355, 937}";
}
);
paths = (
{
closed = 1;
nodes = (
"-22 74 LINE",
"-21 0 LINE",
"260 0 LINE",
"260 74 LINE",
"186 83 LINE",
"213 191 LINE",
"426 191 LINE",
"454 85 LINE",
"389 74 LINE",
"389 0 LINE",
"729 0 LINE",
"729 74 LINE",
"677 85 LINE",
"463 745 LINE",
"248 745 LINE",
"34 86 LINE"
);
},
{
closed = 1;
nodes = (
"234 276 LINE",
"306 563 LINE",
"317 625 LINE",
"328 563 LINE",
"404 276 LINE"
);
},
{
closed = 1;
nodes = (
"185 937 LINE",
"185 829 LINE",
"525 829 LINE",
"525 937 LINE"
);
}
);
};
components = (
{
name = A;
},
{
name = macroncomb.case;
transform = "{1, 0, 0, 1, 329, 0}";
}
);
layerId = "809C3DC2-6073-4494-AA7C-C910FAB1DD5E";
width = 660;
}
);
leftKerningGroup = A;
rightKerningGroup = A;
unicode = 0100;
},
{
color = 4;
glyphname = Aogonek;
layers = (
{
background = {
paths = (
{
closed = 1;
nodes = (
"-11 43 LINE",
"-11 0 LINE",
"214 0 LINE",
"214 43 LINE",
"125 53 LINE",
"178 211 LINE",
"490 211 LINE",
"543 52 LINE",
"455 43 LINE",
"455 0 LINE",
"579 0 LINE",
"509 -30 OFFCURVE",
"452 -101 OFFCURVE",
"452 -155 CURVE SMOOTH",
"452 -226 OFFCURVE",
"512 -249 OFFCURVE",
"573 -249 CURVE SMOOTH",
"614 -249 OFFCURVE",
"658 -236 OFFCURVE",
"686 -215 CURVE",
"686 -173 LINE",
"663 -185 OFFCURVE",
"634 -193 OFFCURVE",
"608 -193 CURVE SMOOTH",
"567 -193 OFFCURVE",
"530 -176 OFFCURVE",
"530 -129 CURVE SMOOTH",
"530 -87 OFFCURVE",
"577 -28 OFFCURVE",
"642 0 CURVE",
"699 0 LINE",
"699 43 LINE",
"634 52 LINE",
"384 750 LINE",
"302 750 LINE",
"53 52 LINE"
);
},
{
closed = 1;
nodes = (
"195 263 LINE",
"305 593 LINE",
"332 691 LINE",
"360 596 LINE",
"472 263 LINE"
);
}
);
};
components = (
{
name = A;
},
{
name = ogonekcomb.case;
transform = "{1, 0, 0, 1, 426, 8}";
}
);
layerId = UUID0;
width = 661;
},
{
background = {
paths = (
{
closed = 1;
nodes = (
"-22 74 LINE",
"-21 0 LINE",
"260 0 LINE",
"260 74 LINE",
"186 83 LINE",
"213 191 LINE",
"426 191 LINE",
"454 85 LINE",
"389 74 LINE",
"389 0 LINE",
"595 0 LINE",
"506 -25 OFFCURVE",
"428 -89 OFFCURVE",
"428 -149 CURVE SMOOTH",
"428 -209 OFFCURVE",
"502 -251 OFFCURVE",
"591 -251 CURVE SMOOTH",
"632 -251 OFFCURVE",
"692 -240 OFFCURVE",
"720 -219 CURVE",
"720 -139 LINE",
"698 -148 OFFCURVE",
"686 -150 OFFCURVE",
"664 -150 CURVE SMOOTH",
"620 -150 OFFCURVE",
"593 -132 OFFCURVE",
"593 -104 CURVE SMOOTH",
"593 -66 OFFCURVE",
"632 -22 OFFCURVE",
"697 0 CURVE",
"729 0 LINE",
"729 74 LINE",
"677 85 LINE",
"463 745 LINE",
"248 745 LINE",
"34 86 LINE"
);
},
{
closed = 1;
nodes = (
"234 276 LINE",
"306 563 LINE",
"317 625 LINE",
"328 563 LINE",
"404 276 LINE"
);
}
);
};
components = (
{
name = A;
},
{
name = ogonekcomb.case;
transform = "{1, 0, 0, 1, 366, 10}";
}
);
layerId = "809C3DC2-6073-4494-AA7C-C910FAB1DD5E";
width = 660;
}
);
leftKerningGroup = A;
rightKerningGroup = A;
unicode = 0104;
},
{
color = 4;
glyphname = Aring;
layers = (
{
anchors = (
{
name = mark0;
position = "{289, -83}";
},
{
name = top;
position = "{432, 1045}";
}
);
background = {
anchors = (
{
name = _top;
position = "{340, 743}";
},
{
name = mark0;
position = "{349, -83}";
},
{
name = ogonek;
position = "{615, 10}";
},
{
name = top;
position = "{340, 983}";
}
);
paths = (
{
closed = 1;
nodes = (
"214 0 LINE",
"214 43 LINE",
"125 53 LINE",
"178 211 LINE",
"490 211 LINE",
"543 52 LINE",
"455 43 LINE",
"455 0 LINE",
"699 0 LINE",
"699 43 LINE",
"634 52 LINE",
"384.997 744.447 LINE",
"447.537 757.03 OFFCURVE",
"496.19 796.235 OFFCURVE",
"497 861 CURVE SMOOTH",
"498 934 OFFCURVE",
"444 983 OFFCURVE",
"345 983 CURVE SMOOTH",
"267 983 OFFCURVE",
"185 944 OFFCURVE",
"183 863 CURVE SMOOTH",
"181.274 802.59 OFFCURVE",
"219.765 754.841 OFFCURVE",
"298.474 742.892 CURVE",
"53 52 LINE",
"-11 43 LINE",
"-11 0 LINE"
);
},
{
closed = 1;
nodes = (
"304 593 LINE",
"331 691 LINE",
"359 596 LINE",
"472 263 LINE",
"195 263 LINE"
);
},
{
closed = 1;
nodes = (
"245 916 OFFCURVE",
"281 943 OFFCURVE",
"343 943 CURVE SMOOTH",
"409 943 OFFCURVE",
"436 906 OFFCURVE",
"436 857 CURVE SMOOTH",
"436 807 OFFCURVE",
"405 779 OFFCURVE",
"341 779 CURVE SMOOTH",
"274 779 OFFCURVE",
"245 819 OFFCURVE",
"245 864 CURVE SMOOTH"
);
}
);
};
components = (
{
name = A;
},
{
name = ringcomb.case;
transform = "{1, 0, 0, 1, 331, 0}";
}
);
layerId = UUID0;
width = 661;
},
{
anchors = (
{
name = mark0;
position = "{280, -83}";
},
{
name = top;
position = "{432, 1075}";
}
);
background = {
anchors = (
{
name = _top;
position = "{355, 743}";
},
{
name = mark0;
position = "{330, -83}";
},
{
name = ogonek;
position = "{649, 10}";
},
{
name = top;
position = "{355, 983}";
}
);
paths = (
{
closed = 1;
nodes = (
"260 0 LINE",
"260 74 LINE",
"186 83 LINE",
"213 191 LINE",
"426 191 LINE",
"454 85 LINE",
"389 74 LINE",
"389 0 LINE",
"729 0 LINE",
"729 74 LINE",
"677 85 LINE",
"464.891 739.169 LINE",
"511.217 761.506 OFFCURVE",
"537.391 799.696 OFFCURVE",
"538 849 CURVE SMOOTH",
"539 922 OFFCURVE",
"490 983 OFFCURVE",
"355 983 CURVE SMOOTH",
"243 983 OFFCURVE",
"173 934 OFFCURVE",
"172 852 CURVE SMOOTH",
"170.636 803.588 OFFCURVE",
"187.87 758.431 OFFCURVE",
"244.622 734.598 CURVE",
"34 86 LINE",
"-22 74 LINE",
"-21 0 LINE"
);
},
{
closed = 1;
nodes = (
"306 563 LINE",
"317 625 LINE",
"328 563 LINE",
"404 276 LINE",
"234 276 LINE"
);
},
{
closed = 1;
nodes = (
"281 891 OFFCURVE",
"297 919 OFFCURVE",
"355 919 CURVE SMOOTH",
"412 919 OFFCURVE",
"428 884 OFFCURVE",
"428 845 CURVE SMOOTH",
"428 807 OFFCURVE",
"413 780 OFFCURVE",
"354 780 CURVE SMOOTH",
"299 780 OFFCURVE",
"281 817 OFFCURVE",
"281 851 CURVE SMOOTH"
);
}
);
};
components = (
{
name = A;
},
{
name = ringcomb.case;
transform = "{1, 0, 0, 1, 328, 0}";
}
);
layerId = "809C3DC2-6073-4494-AA7C-C910FAB1DD5E";
width = 660;
}
);
leftKerningGroup = A;
rightKerningGroup = A;
unicode = 00C5;
},
{
color = 4;
glyphname = Aringacute;
layers = (
{
background = {
anchors = (
{
name = _top;
position = "{340, 743}";
},
{
name = mark0;
position = "{329, -83}";
},
{
name = ogonek;
position = "{615, 10}";
},
{
name = top;
position = "{340, 864}";
}
);
paths = (
{
closed = 1;
nodes = (
"214 0 LINE",
"214 43 LINE",
"125 53 LINE",
"178 211 LINE",
"490 211 LINE",
"543 52 LINE",
"455 43 LINE",
"455 0 LINE",
"699 0 LINE",
"699 43 LINE",
"634 52 LINE",
"397 710 LINE",
"455 720 OFFCURVE",
"487 752 OFFCURVE",
"487 792 CURVE SMOOTH",
"487 841 OFFCURVE",
"450 877 OFFCURVE",
"388 887 CURVE",
"412 900 OFFCURVE",
"429 915 OFFCURVE",
"452 946 CURVE",
"371 983 LINE",
"307 888 LINE",
"236 882 OFFCURVE",
"193 845 OFFCURVE",
"193 795 CURVE SMOOTH",
"193 750 OFFCURVE",
"230 719 OFFCURVE",
"288 709 CURVE",
"53 52 LINE",
"-11 43 LINE",
"-11 0 LINE"
);
},
{
closed = 1;
nodes = (
"304 593 LINE",
"331 691 LINE",
"359 596 LINE",
"472 263 LINE",
"195 263 LINE"
);
},
{
closed = 1;
nodes = (
"254 827 OFFCURVE",
"290 850 OFFCURVE",
"340 850 CURVE SMOOTH",
"391 850 OFFCURVE",
"426 827 OFFCURVE",
"426 795 CURVE SMOOTH",
"426 765 OFFCURVE",
"391 744 OFFCURVE",
"340 744 CURVE SMOOTH",
"290 744 OFFCURVE",
"254 763 OFFCURVE",
"254 795 CURVE SMOOTH"
);
}
);
};
components = (
{
name = A;
},
{
name = ringcomb.case;
transform = "{1, 0, 0, 1, 331, 0}";
},
{
name = acutecomb.case;
transform = "{1, 0, 0, 1, 429, 174}";
}
);
layerId = UUID0;
width = 661;
},
{
background = {
anchors = (
{
name = _top;
position = "{355, 743}";
},
{
name = mark0;
position = "{280, -83}";
},
{
name = ogonek;
position = "{649, 10}";
},
{
name = top;
position = "{355, 864}";
}
);
paths = (
{
closed = 1;
nodes = (
"260 0 LINE",
"260 74 LINE",
"186 83 LINE",
"213 191 LINE",
"426 191 LINE",
"454 85 LINE",
"389 74 LINE",
"389 0 LINE",
"729 0 LINE",
"729 74 LINE",
"677 85 LINE",
"481 687 LINE",
"522 701 OFFCURVE",
"538 748 OFFCURVE",
"538 801 CURVE SMOOTH",
"538 869 OFFCURVE",
"480 904 OFFCURVE",
"430 911 CURVE",
"450 919 OFFCURVE",
"465 936 OFFCURVE",
"487 957 CURVE",
"362 981 LINE",
"302 915 LINE",
"228 908 OFFCURVE",
"171 871 OFFCURVE",
"171 801 CURVE SMOOTH",
"171 752 OFFCURVE",
"190 704 OFFCURVE",
"232 688 CURVE",
"34 86 LINE",
"-22 74 LINE",
"-21 0 LINE"
);
},
{
closed = 1;
nodes = (
"306 563 LINE",
"317 625 LINE",
"328 563 LINE",
"404 276 LINE",
"234 276 LINE"
);
},
{
closed = 1;
nodes = (
"275 827 OFFCURVE",
"295 857 OFFCURVE",
"353 857 CURVE SMOOTH",
"413 857 OFFCURVE",
"434 827 OFFCURVE",
"434 801 CURVE SMOOTH",
"434 775 OFFCURVE",
"416 743 OFFCURVE",
"355 743 CURVE SMOOTH",
"299 743 OFFCURVE",
"275 775 OFFCURVE",
"275 799 CURVE SMOOTH"
);
}
);
};
components = (
{
name = A;
},
{
name = ringcomb.case;
transform = "{1, 0, 0, 1, 328, 0}";
},
{
name = acutecomb.case;
transform = "{1, 0, 0, 1, 430, 174}";
}
);
layerId = "809C3DC2-6073-4494-AA7C-C910FAB1DD5E";
width = 660;
}
);
leftKerningGroup = A;
rightKerningGroup = A;
unicode = 01FA;
},
{
color = 4;
glyphname = Atilde;
layers = (
{
background = {
anchors = (
{
name = bottom;
position = "{335, 0}";
},
{
name = mark0;
position = "{329, -83}";
},
{
name = ogonek;
position = "{615, 10}";
},
{
name = top;
position = "{340, 928}";
}
);
paths = (
{
closed = 1;
nodes = (
"-11 43 LINE",
"-11 0 LINE",
"214 0 LINE",
"214 43 LINE",
"125 53 LINE",
"178 211 LINE",
"490 211 LINE",
"543 52 LINE",
"455 43 LINE",
"455 0 LINE",
"699 0 LINE",
"699 43 LINE",
"634 52 LINE",
"383 750 LINE",
"301 750 LINE",
"53 52 LINE"
);
},
{
closed = 1;
nodes = (
"195 263 LINE",
"304 593 LINE",
"331 691 LINE",
"359 596 LINE",
"472 263 LINE"
);
},
{
closed = 1;
nodes = (
"483 819 OFFCURVE",
"505 868 OFFCURVE",
"521 915 CURVE",
"479 937 LINE",
"470 912 OFFCURVE",
"454 876 OFFCURVE",
"421 876 CURVE SMOOTH",
"374 876 OFFCURVE",
"354 952 OFFCURVE",
"274 952 CURVE SMOOTH",
"212 952 OFFCURVE",
"181 903 OFFCURVE",
"165 856 CURVE",
"207 834 LINE",
"216 859 OFFCURVE",
"226 892 OFFCURVE",
"266 892 CURVE SMOOTH",
"316 892 OFFCURVE",
"338 819 OFFCURVE",
"418 819 CURVE SMOOTH"
);
}
);
};
components = (
{
name = A;
},
{
name = tildecomb.case;
transform = "{1, 0, 0, 1, 332, 0}";
}
);
layerId = UUID0;
width = 661;
},
{
background = {
anchors = (
{
name = bottom;
position = "{344, 0}";
},
{
name = mark0;
position = "{280, -83}";
},
{
name = ogonek;
position = "{649, 10}";
},
{
name = top;
position = "{355, 943}";
}
);
paths = (
{
closed = 1;
nodes = (
"-22 74 LINE",
"-21 0 LINE",
"260 0 LINE",
"260 74 LINE",
"186 83 LINE",
"213 191 LINE",
"426 191 LINE",
"454 85 LINE",
"389 74 LINE",
"389 0 LINE",
"729 0 LINE",
"729 74 LINE",
"677 85 LINE",
"463 745 LINE",
"248 745 LINE",
"34 86 LINE"
);
},
{
closed = 1;
nodes = (
"234 276 LINE",
"306 563 LINE",
"317 625 LINE",
"328 563 LINE",
"404 276 LINE"
);
},
{
closed = 1;
nodes = (
"484 799 OFFCURVE",
"535 840 OFFCURVE",
"557 922 CURVE",
"488 966 LINE",
"476 927 OFFCURVE",
"458 905 OFFCURVE",
"428 906 CURVE SMOOTH",
"378 908 OFFCURVE",
"364 968 OFFCURVE",
"286 968 CURVE SMOOTH",
"226 968 OFFCURVE",
"177 927 OFFCURVE",
"155 845 CURVE",
"224 801 LINE",
"236 840 OFFCURVE",
"255 862 OFFCURVE",
"285 862 CURVE SMOOTH",
"339 862 OFFCURVE",
"346 799 OFFCURVE",
"424 799 CURVE SMOOTH"
);
}
);
};
components = (
{
name = A;
},
{
name = tildecomb.case;
transform = "{1, 0, 0, 1, 329, 0}";
}
);
layerId = "809C3DC2-6073-4494-AA7C-C910FAB1DD5E";
width = 660;
}
);
leftKerningGroup = A;
rightKerningGroup = A;
unicode = 00C3;
},
{
glyphname = AE;
layers = (
{
anchors = (
{
name = top;
position = "{573, 743}";
}
);
background = {
anchors = (
{
name = bottom;
position = "{456, 0}";
},
{
name = mark0;
position = "{434, -83}";
},
{
name = top;
position = "{456, 743}";
}
);
paths = (
{
closed = 1;
nodes = (
"313 42 LINE",
"313 0 LINE",
"857 0 LINE",
"895 171 LINE",
"847 184 LINE",
"789 59 LINE",
"483 49 LINE",
"483 359 LINE",
"664 357 LINE",
"676 271 LINE",
"727 271 LINE",
"727 492 LINE",
"676 492 LINE",
"664 409 LINE",
"483 406 LINE",
"483 698 LINE",
"748 694 LINE",
"778 593 LINE",
"826 593 LINE",
"809 743 LINE",
"135 743 LINE",
"135 702 LINE",
"271 691 LINE",
"-17 52 LINE",
"-90 42 LINE",
"-90 0 LINE",
"139 0 LINE",
"139 42 LINE",
"61 52 LINE",
"131 220 LINE",
"401 220 LINE",
"401 52 LINE"
);
},
{
closed = 1;
nodes = (
"153 272 LINE",
"276 567 LINE",
"332 695 LINE",
"401 695 LINE",
"401 272 LINE"
);
}
);
};
layerId = UUID0;
paths = (
{
closed = 1;
nodes = (
"823 0 LINE",
"858 146 LINE",
"819 158 LINE",
"772 55 LINE",
"483 46 LINE",
"521 358 LINE",
"738 352 LINE",
"743 417 LINE",
"525 407 LINE",
"563 700 LINE",
"798 695 LINE",
"814 600 LINE",
"854 600 LINE",
"858 743 LINE",
"209 743 LINE",
"204 704 LINE",
"356 695 LINE",
"8 45 LINE",
"-73 34 LINE",
"-79 0 LINE",
"192 0 LINE",
"195 34 LINE",
"84 46 LINE",
"185 244 LINE",
"432 244 LINE",
"408 45 LINE",
"344 34 LINE",
"340 0 LINE"
);
},
{
closed = 1;
nodes = (
"485 691 LINE",
"437 292 LINE",
"209 292 LINE",
"414 694 LINE"
);
}
);
width = 888;
},
{
anchors = (
{
name = top;
position = "{563, 743}";
}
);
background = {
anchors = (
{
name = bottom;
position = "{480, 0}";
},
{
name = mark0;
position = "{462, -83}";
},
{
name = top;
position = "{480, 743}";
}
);
paths = (
{
closed = 1;
nodes = (
"325 73 LINE",
"325 0 LINE",
"935 0 LINE",
"967 191 LINE",
"856 222 LINE",
"791 91 LINE",
"601 76 LINE",
"601 334 LINE",
"703 331 LINE",
"721 244 LINE",
"796 244 LINE",
"796 505 LINE",
"720 505 LINE",
"702 425 LINE",
"601 421 LINE",
"601 671 LINE",
"776 658 LINE",
"813 556 LINE",
"903 556 LINE",
"889 743 LINE",
"95 743 LINE",
"95 664 LINE",
"220 649 LINE",
"-8 85 LINE",
"-78 73 LINE",
"-78 0 LINE",
"219 0 LINE",
"219 73 LINE",
"146 85 LINE",
"186 200 LINE",
"399 200 LINE",
"399 85 LINE"
);
},
{
closed = 1;
nodes = (
"217 288 LINE",
"297 518 LINE",
"345 662 LINE",
"399 662 LINE",
"399 288 LINE"
);
}
);
};
layerId = "809C3DC2-6073-4494-AA7C-C910FAB1DD5E";
paths = (
{
closed = 1;
nodes = (
"925 0 LINE",
"959 222 LINE",
"855 229 LINE",
"798 83 LINE",
"572 66 LINE",
"610 348 LINE",
"824 332 LINE",
"841 444 LINE",
"619 424 LINE",
"655 685 LINE",
"820 672 LINE",
"837 563 LINE",
"945 563 LINE",
"963 743 LINE",
"200 743 LINE",
"192 685 LINE",
"335 672 LINE",
"-20 66 LINE",
"-97 52 LINE",
"-101 0 LINE",
"206 0 LINE",
"209 52 LINE",
"117 66 LINE",
"188 203 LINE",
"420 203 LINE",
"402 66 LINE",
"324 52 LINE",
"317 0 LINE"
);
},
{
closed = 1;
nodes = (
"483 685 LINE",
"430 277 LINE",
"227 277 LINE",
"441 685 LINE"
);
}
);
width = 982;
}
);
leftKerningGroup = A;
rightKerningGroup = E;
unicode = 00C6;
},
{
color = 4;
glyphname = AEacute;
layers = (
{
background = {
anchors = (
{
name = bottom;
position = "{456, 0}";
},
{
name = mark0;
position = "{434, -83}";
},
{
name = top;
position = "{456, 980}";
}
);
paths = (
{
closed = 1;
nodes = (
"313 42 LINE",
"313 0 LINE",
"857 0 LINE",
"895 171 LINE",
"847 184 LINE",
"789 59 LINE",
"483 49 LINE",
"483 359 LINE",
"664 357 LINE",
"676 271 LINE",
"727 271 LINE",
"727 492 LINE",
"676 492 LINE",
"664 409 LINE",
"483 406 LINE",
"483 698 LINE",
"748 694 LINE",
"778 593 LINE",
"826 593 LINE",
"809 743 LINE",
"135 743 LINE",
"135 702 LINE",
"271 691 LINE",
"-17 52 LINE",
"-90 42 LINE",
"-90 0 LINE",
"139 0 LINE",
"139 42 LINE",
"61 52 LINE",
"131 220 LINE",
"401 220 LINE",
"401 52 LINE"
);
},
{
closed = 1;
nodes = (
"153 272 LINE",
"276 567 LINE",
"332 695 LINE",
"401 695 LINE",
"401 272 LINE"
);
},
{
closed = 1;
nodes = (
"478 828 OFFCURVE",
"557 892 OFFCURVE",
"590 936 CURVE",
"521 980 LINE",
"385 827 LINE",
"427 802 LINE"
);
}
);
};
components = (
{
name = AE;
},
{
name = acutecomb.case;
transform = "{1, 0, 0, 1, 507, 0}";
}
);
layerId = UUID0;
width = 888;
},
{
background = {
anchors = (
{
name = bottom;
position = "{480, 0}";
},
{
name = mark0;
position = "{462, -83}";
},
{
name = top;
position = "{480, 983}";
}
);
paths = (
{
closed = 1;
nodes = (
"325 73 LINE",
"325 0 LINE",
"935 0 LINE",
"967 191 LINE",
"856 222 LINE",
"791 91 LINE",
"601 76 LINE",
"601 334 LINE",
"703 331 LINE",
"721 244 LINE",
"796 244 LINE",
"796 505 LINE",
"720 505 LINE",
"702 425 LINE",
"601 421 LINE",
"601 671 LINE",
"776 658 LINE",
"813 556 LINE",
"903 556 LINE",
"889 743 LINE",
"95 743 LINE",
"95 664 LINE",
"220 649 LINE",
"-8 85 LINE",
"-78 73 LINE",
"-78 0 LINE",
"219 0 LINE",
"219 73 LINE",
"146 85 LINE",
"186 200 LINE",
"399 200 LINE",
"399 85 LINE"
);
},
{
closed = 1;
nodes = (
"217 288 LINE",
"297 518 LINE",
"345 662 LINE",
"399 662 LINE",
"399 288 LINE"
);
},
{
closed = 1;
nodes = (
"505 798 OFFCURVE",
"582 840 OFFCURVE",
"644 905 CURVE",
"516 983 LINE",
"390 839 LINE",
"471 789 LINE"
);
}
);
};
components = (
{
name = AE;
},
{
name = acutecomb.case;
transform = "{1, 0, 0, 1, 498, 0}";
}
);
layerId = "809C3DC2-6073-4494-AA7C-C910FAB1DD5E";
width = 982;
}
);
leftKerningGroup = A;
rightKerningGroup = E;
unicode = 01FC;
},
{
color = 3;
glyphname = B;
lastChange = "2019-02-05 18:39:32 +0000";
layers = (
{
anchors = (
{
name = bottom;
position = "{264, 0}";
},
{
name = top;
position = "{358, 743}";
}
);
background = {
anchors = (
{
name = bottom;
position = "{333, 0}";
},
{
name = mark0;
position = "{357, -83}";
},
{
name = top;
position = "{333, 743}";
}
);
paths = (
{
closed = 1;
nodes = (
"47 43 LINE",
"47 0 LINE",
"170 0 LINE SMOOTH",
"247 0 OFFCURVE",
"280 -6 OFFCURVE",
"329 -6 CURVE SMOOTH",
"560 -6 OFFCURVE",
"630 105 OFFCURVE",
"630 222 CURVE SMOOTH",
"630 328 OFFCURVE",
"556 400 OFFCURVE",
"429 396 CURVE",
"526 415 OFFCURVE",
"577 493 OFFCURVE",
"577 583 CURVE SMOOTH",
"577 688 OFFCURVE",
"509 751 OFFCURVE",
"330 751 CURVE SMOOTH",
"280 751 OFFCURVE",
"234 743 OFFCURVE",
"174 743 CURVE SMOOTH",
"49 743 LINE",
"49 700 LINE",
"133 689 LINE",
"133 52 LINE"
);
},
{
closed = 1;
nodes = (
"215 699 LINE",
"235 699 OFFCURVE",
"270 705 OFFCURVE",
"319 705 CURVE SMOOTH",
"452 705 OFFCURVE",
"494 657 OFFCURVE",
"494 564 CURVE SMOOTH",
"494 466 OFFCURVE",
"439 412 OFFCURVE",
"338 412 CURVE SMOOTH",
"312 412 OFFCURVE",
"246 411 OFFCURVE",
"215 413 CURVE"
);
},
{
closed = 1;
nodes = (
"215 359 LINE",
"245 361 OFFCURVE",
"322 360 OFFCURVE",
"358 360 CURVE SMOOTH",
"487 360 OFFCURVE",
"540 313 OFFCURVE",
"540 207 CURVE SMOOTH",
"540 105 OFFCURVE",
"483 42 OFFCURVE",
"328 42 CURVE SMOOTH",
"294 42 OFFCURVE",
"241 42 OFFCURVE",
"215 50 CURVE"
);
}
);
};
layerId = UUID0;
paths = (
{
closed = 1;
nodes = (
"106 743 LINE",
"102 704 LINE",
"168 694 LINE",
"87 46 LINE",
"14 34 LINE",
"10 0 LINE",
"116 0 LINE SMOOTH",
"150 0 OFFCURVE",
"208 -7 OFFCURVE",
"246 -7 CURVE SMOOTH",
"420 -7 OFFCURVE",
"575 62 OFFCURVE",
"572 239 CURVE SMOOTH",
"571 325 OFFCURVE",
"503 383 OFFCURVE",
"422 394 CURVE",
"518 421 OFFCURVE",
"578 488 OFFCURVE",
"576 595 CURVE SMOOTH",
"575 678 OFFCURVE",
"511 750 OFFCURVE",
"360 750 CURVE SMOOTH",
"311 750 OFFCURVE",
"267 744 OFFCURVE",
"223 743 CURVE"
);
},
{
closed = 1;
nodes = (
"199 358 LINE",
"225 359 OFFCURVE",
"267 360 OFFCURVE",
"335 360 CURVE SMOOTH",
"436 360 OFFCURVE",
"493 317 OFFCURVE",
"494 230 CURVE SMOOTH",
"496 90 OFFCURVE",
"393 41 OFFCURVE",
"263 41 CURVE SMOOTH",
"242 41 OFFCURVE",
"180 44 OFFCURVE",
"161 50 CURVE"
);
},
{
closed = 1;
nodes = (
"241 699 LINE",
"268 702 OFFCURVE",
"323 705 OFFCURVE",
"343 705 CURVE SMOOTH",
"456 705 OFFCURVE",
"502 664 OFFCURVE",
"503 585 CURVE SMOOTH",
"505 466 OFFCURVE",
"424 410 OFFCURVE",
"321 410 CURVE SMOOTH",
"285 410 OFFCURVE",
"240 409 OFFCURVE",
"205 410 CURVE"
);
}
);
width = 619;
},
{
anchors = (
{
name = bottom;
position = "{286, 0}";
},
{
name = top;
position = "{397, 743}";
}
);
background = {
anchors = (
{
name = bottom;
position = "{372, 0}";
},
{
name = mark0;
position = "{375, -83}";
},
{
name = top;
position = "{372, 743}";
}
);
paths = (
{
closed = 1;
nodes = (
"34 74 LINE",
"34 0 LINE",
"209 0 LINE SMOOTH",
"270 0 OFFCURVE",
"298 -6 OFFCURVE",
"381 -6 CURVE SMOOTH",
"640 -6 OFFCURVE",
"713 93 OFFCURVE",
"713 226 CURVE SMOOTH",
"713 339 OFFCURVE",
"625 396 OFFCURVE",
"492 397 CURVE",
"584 408 OFFCURVE",
"663 471 OFFCURVE",
"663 579 CURVE SMOOTH",
"663 683 OFFCURVE",
"610 749 OFFCURVE",
"369 749 CURVE SMOOTH",
"318 749 OFFCURVE",
"269 743 OFFCURVE",
"205 743 CURVE SMOOTH",
"35 743 LINE",
"35 664 LINE",
"107 649 LINE",
"107 86 LINE"
);
},
{
closed = 1;
nodes = (
"307 672 LINE",
"317 674 OFFCURVE",
"361 676 OFFCURVE",
"364 676 CURVE SMOOTH",
"431 676 OFFCURVE",
"463 642 OFFCURVE",
"463 563 CURVE SMOOTH",
"463 479 OFFCURVE",
"440 423 OFFCURVE",
"373 423 CURVE SMOOTH",
"350 423 OFFCURVE",
"321 423 OFFCURVE",
"307 425 CURVE"
);
},
{
closed = 1;
nodes = (
"307 337 LINE",
"321 338 OFFCURVE",
"352 340 OFFCURVE",
"379 340 CURVE SMOOTH",
"452 340 OFFCURVE",
"490 310 OFFCURVE",
"490 218 CURVE SMOOTH",
"490 127 OFFCURVE",
"459 70 OFFCURVE",
"374 70 CURVE SMOOTH",
"349 70 OFFCURVE",
"318 73 OFFCURVE",
"307 79 CURVE"
);
}
);
};
layerId = "809C3DC2-6073-4494-AA7C-C910FAB1DD5E";
paths = (
{
closed = 1;
nodes = (
"88 743 LINE",
"82 689 LINE",
"153 677 LINE",
"71 66 LINE",
"3 52 LINE",
"-1 0 LINE",
"144 0 LINE SMOOTH",
"188 0 OFFCURVE",
"253 -10 OFFCURVE",
"300 -10 CURVE SMOOTH",
"534 -10 OFFCURVE",
"657 61 OFFCURVE",
"657 244 CURVE SMOOTH",
"657 323 OFFCURVE",
"590 395 OFFCURVE",
"478 392 CURVE",
"603 422 OFFCURVE",
"665 484 OFFCURVE",
"661 591 CURVE SMOOTH",
"658 671 OFFCURVE",
"619 751 OFFCURVE",
"428 751 CURVE SMOOTH",
"364 751 OFFCURVE",
"310 744 OFFCURVE",
"253 743 CURVE"
);
},
{
closed = 1;
nodes = (
"273 349 LINE",
"285 350 OFFCURVE",
"297 351 OFFCURVE",
"334 351 CURVE SMOOTH",
"435 351 OFFCURVE",
"475 311 OFFCURVE",
"478 228 CURVE SMOOTH",
"483 106 OFFCURVE",
"428 51 OFFCURVE",
"321 51 CURVE SMOOTH",
"300 51 OFFCURVE",
"260 56 OFFCURVE",
"234 63 CURVE"
);
},
{
closed = 1;
nodes = (
"318 683 LINE",
"340 688 OFFCURVE",
"374 689 OFFCURVE",
"389 689 CURVE SMOOTH",
"459 689 OFFCURVE",
"497 650 OFFCURVE",
"500 578 CURVE",
"504 462 OFFCURVE",
"428 418 OFFCURVE",
"343 418 CURVE SMOOTH",
"319 418 OFFCURVE",
"303 417 OFFCURVE",
"282 418 CURVE"
);
}
);
width = 691;
}
);
leftKerningGroup = H;
leftMetricsKey = H;
rightKerningGroup = B;
unicode = 0042;
},
{
color = 4;
glyphname = Bdotaccent;
lastChange = "2019-02-05 18:39:38 +0000";
layers = (
{
background = {
anchors = (
{
name = bottom;
position = "{336, 0}";
},
{
name = mark0;
position = "{360, -83}";
},
{
name = top;
position = "{336, 959}";
}
);
paths = (
{
closed = 1;
nodes = (
"50 43 LINE",
"50 0 LINE",
"173 0 LINE SMOOTH",
"250 0 OFFCURVE",
"283 -6 OFFCURVE",
"332 -6 CURVE SMOOTH",
"563 -6 OFFCURVE",
"633 105 OFFCURVE",
"633 222 CURVE SMOOTH",
"633 328 OFFCURVE",
"559 400 OFFCURVE",
"432 396 CURVE",
"529 415 OFFCURVE",
"580 493 OFFCURVE",
"580 583 CURVE SMOOTH",
"580 688 OFFCURVE",
"512 751 OFFCURVE",
"333 751 CURVE SMOOTH",
"283 751 OFFCURVE",
"237 743 OFFCURVE",
"177 743 CURVE SMOOTH",
"52 743 LINE",
"52 700 LINE",
"136 689 LINE",
"136 52 LINE"
);
},
{
closed = 1;
nodes = (
"218 699 LINE",
"238 699 OFFCURVE",
"273 705 OFFCURVE",
"322 705 CURVE SMOOTH",
"455 705 OFFCURVE",
"497 657 OFFCURVE",
"497 564 CURVE SMOOTH",
"497 466 OFFCURVE",
"442 412 OFFCURVE",
"341 412 CURVE SMOOTH",
"315 412 OFFCURVE",
"249 411 OFFCURVE",
"218 413 CURVE"
);
},
{
closed = 1;
nodes = (
"218 359 LINE",
"248 361 OFFCURVE",
"325 360 OFFCURVE",
"361 360 CURVE SMOOTH",
"490 360 OFFCURVE",
"543 313 OFFCURVE",
"543 207 CURVE SMOOTH",
"543 105 OFFCURVE",
"486 42 OFFCURVE",
"331 42 CURVE SMOOTH",
"297 42 OFFCURVE",
"244 42 OFFCURVE",
"218 50 CURVE"
);
},
{
closed = 1;
nodes = (
"372 836 OFFCURVE",
"392 866 OFFCURVE",
"392 901 CURVE SMOOTH",
"392 930 OFFCURVE",
"373 959 OFFCURVE",
"339 959 CURVE SMOOTH",
"299 959 OFFCURVE",
"280 927 OFFCURVE",
"280 893 CURVE SMOOTH",
"280 861 OFFCURVE",
"299 836 OFFCURVE",
"331 836 CURVE SMOOTH"
);
}
);
};
components = (
{
name = B;
},
{
name = dotaccentcomb.case;
transform = "{1, 0, 0, 1, 292, 0}";
}
);
layerId = UUID0;
width = 619;
},
{
background = {
anchors = (
{
name = bottom;
position = "{367, 0}";
},
{
name = mark0;
position = "{370, -83}";
},
{
name = top;
position = "{367, 977}";
}
);
paths = (
{
closed = 1;
nodes = (
"29 74 LINE",
"29 0 LINE",
"204 0 LINE SMOOTH",
"265 0 OFFCURVE",
"293 -6 OFFCURVE",
"376 -6 CURVE SMOOTH",
"635 -6 OFFCURVE",
"708 93 OFFCURVE",
"708 226 CURVE SMOOTH",
"708 339 OFFCURVE",
"620 396 OFFCURVE",
"487 397 CURVE",
"579 408 OFFCURVE",
"658 471 OFFCURVE",
"658 579 CURVE SMOOTH",
"658 683 OFFCURVE",
"605 749 OFFCURVE",
"364 749 CURVE SMOOTH",
"313 749 OFFCURVE",
"264 743 OFFCURVE",
"200 743 CURVE SMOOTH",
"30 743 LINE",
"30 664 LINE",
"102 649 LINE",
"102 86 LINE"
);
},
{
closed = 1;
nodes = (
"302 672 LINE",
"312 674 OFFCURVE",
"356 676 OFFCURVE",
"359 676 CURVE SMOOTH",
"426 676 OFFCURVE",
"458 642 OFFCURVE",
"458 563 CURVE SMOOTH",
"458 479 OFFCURVE",
"435 423 OFFCURVE",
"368 423 CURVE SMOOTH",
"345 423 OFFCURVE",
"316 423 OFFCURVE",
"302 425 CURVE"
);
},
{
closed = 1;
nodes = (
"302 337 LINE",
"316 338 OFFCURVE",
"347 340 OFFCURVE",
"374 340 CURVE SMOOTH",
"447 340 OFFCURVE",
"485 310 OFFCURVE",
"485 218 CURVE SMOOTH",
"485 127 OFFCURVE",
"454 70 OFFCURVE",
"369 70 CURVE SMOOTH",
"344 70 OFFCURVE",
"313 73 OFFCURVE",
"302 79 CURVE"
);
},
{
closed = 1;
nodes = (
"434 800 OFFCURVE",
"469 837 OFFCURVE",
"469 896 CURVE SMOOTH",
"469 943 OFFCURVE",
"432 977 OFFCURVE",
"368 977 CURVE",
"302 977 OFFCURVE",
"265 941 OFFCURVE",
"265 882 CURVE SMOOTH",
"265 835 OFFCURVE",
"304 800 OFFCURVE",
"358 800 CURVE"
);
}
);
};
components = (
{
name = B;
},
{
name = dotaccentcomb.case;
transform = "{1, 0, 0, 1, 332, 0}";
}
);
layerId = "809C3DC2-6073-4494-AA7C-C910FAB1DD5E";
width = 691;
}
);
leftKerningGroup = H;
rightKerningGroup = B;
unicode = 1E02;
},
{
color = 4;
glyphname = Bdotbelow;
lastChange = "2019-02-05 18:39:38 +0000";
layers = (
{
background = {
anchors = (
{
name = bottom;
position = "{336, -173}";
},
{
name = mark0;
position = "{360, -83}";
},
{
name = top;
position = "{336, 743}";
}
);
paths = (
{
closed = 1;
nodes = (
"50 43 LINE",
"50 0 LINE",
"173 0 LINE SMOOTH",
"250 0 OFFCURVE",
"283 -6 OFFCURVE",
"332 -6 CURVE SMOOTH",
"563 -6 OFFCURVE",
"633 105 OFFCURVE",
"633 222 CURVE SMOOTH",
"633 328 OFFCURVE",
"559 400 OFFCURVE",
"432 396 CURVE",
"529 415 OFFCURVE",
"580 493 OFFCURVE",
"580 583 CURVE SMOOTH",
"580 688 OFFCURVE",
"512 751 OFFCURVE",
"333 751 CURVE SMOOTH",
"283 751 OFFCURVE",
"237 743 OFFCURVE",
"177 743 CURVE SMOOTH",
"52 743 LINE",
"52 700 LINE",
"136 689 LINE",
"136 52 LINE"
);
},
{
closed = 1;
nodes = (
"218 699 LINE",
"238 699 OFFCURVE",
"273 705 OFFCURVE",
"322 705 CURVE SMOOTH",
"455 705 OFFCURVE",
"497 657 OFFCURVE",
"497 564 CURVE SMOOTH",
"497 466 OFFCURVE",
"442 412 OFFCURVE",
"341 412 CURVE SMOOTH",
"315 412 OFFCURVE",
"249 411 OFFCURVE",
"218 413 CURVE"
);
},
{
closed = 1;
nodes = (
"218 359 LINE",
"248 361 OFFCURVE",
"325 360 OFFCURVE",
"361 360 CURVE SMOOTH",
"490 360 OFFCURVE",
"543 313 OFFCURVE",
"543 207 CURVE SMOOTH",
"543 105 OFFCURVE",
"486 42 OFFCURVE",
"331 42 CURVE SMOOTH",
"297 42 OFFCURVE",
"244 42 OFFCURVE",
"218 50 CURVE"
);
},
{
closed = 1;
nodes = (
"331 -196 LINE",
"374 -196 OFFCURVE",
"394 -165 OFFCURVE",
"394 -126 CURVE SMOOTH",
"394 -97 OFFCURVE",
"375 -66 OFFCURVE",
"339 -66 CURVE SMOOTH",
"297 -66 OFFCURVE",
"276 -101 OFFCURVE",
"276 -136 CURVE SMOOTH",
"276 -169 OFFCURVE",
"297 -196 OFFCURVE",
"329 -196 CURVE"
);
}
);
};
components = (
{
name = B;
},
{
name = dotbelowcomb.case;
transform = "{1, 0, 0, 1, 264, 0}";
}
);
layerId = UUID0;
width = 619;
},
{
background = {
anchors = (
{
name = bottom;
position = "{367, -194}";
},
{
name = mark0;
position = "{370, -83}";
},
{
name = top;
position = "{367, 743}";
}
);
paths = (
{
closed = 1;
nodes = (
"29 74 LINE",
"29 0 LINE",
"204 0 LINE SMOOTH",
"265 0 OFFCURVE",
"293 -6 OFFCURVE",
"376 -6 CURVE SMOOTH",
"635 -6 OFFCURVE",
"708 93 OFFCURVE",
"708 226 CURVE SMOOTH",
"708 339 OFFCURVE",
"620 396 OFFCURVE",
"487 397 CURVE",
"579 408 OFFCURVE",
"658 471 OFFCURVE",
"658 579 CURVE SMOOTH",
"658 683 OFFCURVE",
"605 749 OFFCURVE",
"364 749 CURVE SMOOTH",
"313 749 OFFCURVE",
"264 743 OFFCURVE",
"200 743 CURVE SMOOTH",
"30 743 LINE",
"30 664 LINE",
"102 649 LINE",
"102 86 LINE"
);
},
{
closed = 1;
nodes = (
"302 672 LINE",
"312 674 OFFCURVE",
"356 676 OFFCURVE",
"359 676 CURVE SMOOTH",
"426 676 OFFCURVE",
"458 642 OFFCURVE",
"458 563 CURVE SMOOTH",
"458 479 OFFCURVE",
"435 423 OFFCURVE",
"368 423 CURVE SMOOTH",
"345 423 OFFCURVE",
"316 423 OFFCURVE",
"302 425 CURVE"
);
},
{
closed = 1;
nodes = (
"302 337 LINE",
"316 338 OFFCURVE",
"347 340 OFFCURVE",
"374 340 CURVE SMOOTH",
"447 340 OFFCURVE",
"485 310 OFFCURVE",
"485 218 CURVE SMOOTH",
"485 127 OFFCURVE",
"454 70 OFFCURVE",
"369 70 CURVE SMOOTH",
"344 70 OFFCURVE",
"313 73 OFFCURVE",
"302 79 CURVE"
);
},
{
closed = 1;
nodes = (
"360 -234 LINE",
"430 -234 OFFCURVE",
"465 -191 OFFCURVE",
"465 -136 CURVE SMOOTH",
"465 -89 OFFCURVE",
"433 -52 OFFCURVE",
"371 -52 CURVE SMOOTH",
"307 -52 OFFCURVE",
"270 -95 OFFCURVE",
"270 -151 CURVE SMOOTH",
"270 -198 OFFCURVE",
"307 -234 OFFCURVE",
"360 -234 CURVE"
);
}
);
};
components = (
{
name = B;
},
{
name = dotbelowcomb.case;
transform = "{1, 0, 0, 1, 286, 0}";
}
);
layerId = "809C3DC2-6073-4494-AA7C-C910FAB1DD5E";
width = 691;
}
);
leftKerningGroup = H;
rightKerningGroup = B;
unicode = 1E04;
},
{
color = 3;
glyphname = C;
lastChange = "2019-02-05 19:20:39 +0000";
layers = (
{
anchors = (
{
name = bottom;
position = "{313, 0}";
},
{
name = top;
position = "{414, 743}";
}
);
background = {
anchors = (
{
name = bottom;
position = "{372, 0}";
},
{
name = mark0;
position = "{381, -83}";
},
{
name = top;
position = "{372, 743}";
}
);
paths = (
{
closed = 1;
nodes = (
"504 -11 OFFCURVE",
"541 25 OFFCURVE",
"593 27 CURVE",
"618 161 LINE",
"569 168 LINE",
"529 74 LINE",
"503 53 OFFCURVE",
"469 37 OFFCURVE",
"386 37 CURVE SMOOTH",
"215 37 OFFCURVE",
"137 203 OFFCURVE",
"137 384 CURVE SMOOTH",
"137 589 OFFCURVE",
"243 703 OFFCURVE",
"379 703 CURVE SMOOTH",
"458 703 OFFCURVE",
"510 688 OFFCURVE",
"528 672 CURVE",
"550 556 LINE",
"602 556 LINE",
"610 719 LINE",
"575 727 OFFCURVE",
"488 751 OFFCURVE",
"399 751 CURVE SMOOTH",
"198 751 OFFCURVE",
"43 598 OFFCURVE",
"43 375 CURVE SMOOTH",
"43 143 OFFCURVE",
"166 -11 OFFCURVE",
"384 -11 CURVE SMOOTH"
);
}
);
};
layerId = UUID0;
paths = (
{
closed = 1;
nodes = (
"529 544 LINE",
"573 544 LINE",
"603 721 LINE",
"582 728 LINE",
"552 736 OFFCURVE",
"498 751 OFFCURVE",
"410 751 CURVE SMOOTH",
"216 751 OFFCURVE",
"46 574 OFFCURVE",
"51 306 CURVE SMOOTH",
"53 155 OFFCURVE",
"124 -8 OFFCURVE",
"305 -8 CURVE SMOOTH",
"405 -8 OFFCURVE",
"486 22 OFFCURVE",
"524 34 CURVE",
"544 196 LINE",
"498 196 LINE",
"488 160 OFFCURVE",
"477 123 OFFCURVE",
"467 87 CURVE",
"441 55 OFFCURVE",
"370 39 OFFCURVE",
"319 39 CURVE SMOOTH",
"182 39 OFFCURVE",
"131 182 OFFCURVE",
"129 314 CURVE SMOOTH",
"125 484 OFFCURVE",
"212 704 OFFCURVE",
"402 704 CURVE SMOOTH",
"473 704 OFFCURVE",
"504 691 OFFCURVE",
"526 678 CURVE"
);
}
);
width = 618;
},
{
anchors = (
{
name = bottom;
position = "{333, 0}";
},
{
name = top;
position = "{465, 743}";
}
);
background = {
anchors = (
{
name = bottom;
position = "{365, 0}";
},
{
name = mark0;
position = "{364, -83}";
},
{
name = top;
position = "{385, 743}";
}
);
paths = (
{
closed = 1;
nodes = (
"509 -11 OFFCURVE",
"551 20 OFFCURVE",
"624 27 CURVE",
"640 200 LINE",
"525 210 LINE",
"478 98 LINE",
"464 83 OFFCURVE",
"446 69 OFFCURVE",
"395 69 CURVE SMOOTH",
"300 69 OFFCURVE",
"252 191 OFFCURVE",
"252 377 CURVE SMOOTH",
"252 579 OFFCURVE",
"306 672 OFFCURVE",
"392 672 CURVE SMOOTH",
"437 672 OFFCURVE",
"455 661 OFFCURVE",
"464 651 CURVE",
"502 484 LINE",
"628 484 LINE",
"642 729 LINE",
"600 729 OFFCURVE",
"502 751 OFFCURVE",
"400 751 CURVE SMOOTH",
"183 751 OFFCURVE",
"24 610 OFFCURVE",
"24 361 CURVE SMOOTH",
"24 136 OFFCURVE",
"139 -11 OFFCURVE",
"382 -11 CURVE SMOOTH"
);
}
);
};
layerId = "809C3DC2-6073-4494-AA7C-C910FAB1DD5E";
paths = (
{
closed = 1;
nodes = (
"503 529 LINE",
"627 529 LINE",
"657 725 LINE",
"641 729 LINE",
"605 737 OFFCURVE",
"574 752 OFFCURVE",
"465 752 CURVE SMOOTH",
"203 752 OFFCURVE",
"31 590 OFFCURVE",
"31 311 CURVE SMOOTH",
"31 140 OFFCURVE",
"112 -8 OFFCURVE",
"333 -8 CURVE SMOOTH",
"478 -8 OFFCURVE",
"544 36 OFFCURVE",
"581 66 CURVE",
"602 205 LINE",
"504 205 LINE",
"494 167 OFFCURVE",
"482 127 OFFCURVE",
"465 107 CURVE",
"428 71 OFFCURVE",
"380 71 OFFCURVE",
"359 71 CURVE SMOOTH",
"266 71 OFFCURVE",
"227 156 OFFCURVE",
"222 321 CURVE SMOOTH",
"218 484 OFFCURVE",
"282 689 OFFCURVE",
"438 689 CURVE SMOOTH",
"455 689 OFFCURVE",
"470 686 OFFCURVE",
"484 681 CURVE"
);
}
);
width = 642;
}
);
leftKerningGroup = O;
rightKerningGroup = C;
unicode = 0043;
},
{
color = 4;
glyphname = Cacute;
lastChange = "2019-02-05 18:59:43 +0000";
layers = (
{
background = {
anchors = (
{
name = bottom;
position = "{365, 0}";
},
{
name = mark0;
position = "{374, -83}";
},
{
name = top;
position = "{365, 980}";
}
);
paths = (
{
closed = 1;
nodes = (
"497 -11 OFFCURVE",
"534 25 OFFCURVE",
"586 27 CURVE",
"611 161 LINE",
"562 168 LINE",
"522 74 LINE",
"496 53 OFFCURVE",
"462 37 OFFCURVE",
"379 37 CURVE SMOOTH",
"208 37 OFFCURVE",
"130 203 OFFCURVE",
"130 384 CURVE SMOOTH",
"130 589 OFFCURVE",
"236 703 OFFCURVE",
"372 703 CURVE SMOOTH",
"451 703 OFFCURVE",
"503 688 OFFCURVE",
"521 672 CURVE",
"543 556 LINE",
"595 556 LINE",
"603 719 LINE",
"568 727 OFFCURVE",
"481 751 OFFCURVE",
"392 751 CURVE SMOOTH",
"191 751 OFFCURVE",
"36 598 OFFCURVE",
"36 375 CURVE SMOOTH",
"36 143 OFFCURVE",
"159 -11 OFFCURVE",
"377 -11 CURVE SMOOTH"
);
},
{
closed = 1;
nodes = (
"387 828 OFFCURVE",
"466 892 OFFCURVE",
"499 936 CURVE",
"430 980 LINE",
"294 827 LINE",
"336 802 LINE"
);
}
);
};
components = (
{
name = C;
},
{
name = acutecomb.case;
transform = "{1, 0, 0, 1, 348, 0}";
}
);
layerId = UUID0;
width = 618;
},
{
background = {
anchors = (
{
name = bottom;
position = "{363, 0}";
},
{
name = mark0;
position = "{362, -83}";
},
{
name = top;
position = "{383, 983}";
}
);
paths = (
{
closed = 1;
nodes = (
"507 -11 OFFCURVE",
"549 20 OFFCURVE",
"622 27 CURVE",
"638 200 LINE",
"523 210 LINE",
"476 98 LINE",
"462 83 OFFCURVE",
"444 69 OFFCURVE",
"393 69 CURVE SMOOTH",
"298 69 OFFCURVE",
"250 191 OFFCURVE",
"250 377 CURVE SMOOTH",
"250 579 OFFCURVE",
"304 672 OFFCURVE",
"390 672 CURVE SMOOTH",
"435 672 OFFCURVE",
"453 661 OFFCURVE",
"462 651 CURVE",
"500 484 LINE",
"626 484 LINE",
"640 729 LINE",
"598 729 OFFCURVE",
"500 751 OFFCURVE",
"398 751 CURVE SMOOTH",
"181 751 OFFCURVE",
"22 610 OFFCURVE",
"22 361 CURVE SMOOTH",
"22 136 OFFCURVE",
"137 -11 OFFCURVE",
"380 -11 CURVE SMOOTH"
);
},
{
closed = 1;
nodes = (
"408 798 OFFCURVE",
"485 840 OFFCURVE",
"547 905 CURVE",
"419 983 LINE",
"293 839 LINE",
"374 789 LINE"
);
}
);
};
components = (
{
name = C;
},
{
name = acutecomb.case;
transform = "{1, 0, 0, 1, 400, 0}";
}
);
layerId = "809C3DC2-6073-4494-AA7C-C910FAB1DD5E";
width = 642;
}
);
leftKerningGroup = O;
rightKerningGroup = C;
unicode = 0106;
},
{
color = 4;
glyphname = Ccaron;
lastChange = "2019-02-05 18:59:43 +0000";
layers = (
{
background = {
anchors = (
{
name = bottom;
position = "{365, 0}";
},
{
name = mark0;
position = "{374, -83}";
},
{
name = top;
position = "{365, 982}";
}
);
paths = (
{
closed = 1;
nodes = (
"497 -11 OFFCURVE",
"534 25 OFFCURVE",
"586 27 CURVE",
"611 161 LINE",
"562 168 LINE",
"522 74 LINE",
"496 53 OFFCURVE",
"462 37 OFFCURVE",
"379 37 CURVE SMOOTH",
"208 37 OFFCURVE",
"130 203 OFFCURVE",
"130 384 CURVE SMOOTH",
"130 589 OFFCURVE",
"236 703 OFFCURVE",
"372 703 CURVE SMOOTH",
"451 703 OFFCURVE",
"503 688 OFFCURVE",
"521 672 CURVE",
"543 556 LINE",
"595 556 LINE",
"603 719 LINE",
"568 727 OFFCURVE",
"481 751 OFFCURVE",
"392 751 CURVE SMOOTH",
"191 751 OFFCURVE",
"36 598 OFFCURVE",
"36 375 CURVE SMOOTH",
"36 143 OFFCURVE",
"159 -11 OFFCURVE",
"377 -11 CURVE SMOOTH"
);
},
{
closed = 1;
nodes = (
"207 960 LINE",
"328 826 LINE",
"404 826 LINE",
"523 961 LINE",
"490 982 LINE",
"366 882 LINE",
"243 982 LINE"
);
}
);
};
components = (
{
name = C;
},
{
name = caroncomb.case;
transform = "{1, 0, 0, 1, 348, 0}";
}
);
layerId = UUID0;
width = 618;
},
{
background = {
anchors = (
{
name = bottom;
position = "{363, 0}";
},
{
name = mark0;
position = "{362, -83}";
},
{
name = top;
position = "{383, 983}";
}
);
paths = (
{
closed = 1;
nodes = (
"507 -11 OFFCURVE",
"549 20 OFFCURVE",
"622 27 CURVE",
"638 200 LINE",
"523 210 LINE",
"476 98 LINE",
"462 83 OFFCURVE",
"444 69 OFFCURVE",
"393 69 CURVE SMOOTH",
"298 69 OFFCURVE",
"250 191 OFFCURVE",
"250 377 CURVE SMOOTH",
"250 579 OFFCURVE",
"304 672 OFFCURVE",
"390 672 CURVE SMOOTH",
"435 672 OFFCURVE",
"453 661 OFFCURVE",
"462 651 CURVE",
"500 484 LINE",
"626 484 LINE",
"640 729 LINE",
"598 729 OFFCURVE",
"500 751 OFFCURVE",
"398 751 CURVE SMOOTH",
"181 751 OFFCURVE",
"22 610 OFFCURVE",
"22 361 CURVE SMOOTH",
"22 136 OFFCURVE",
"137 -11 OFFCURVE",
"380 -11 CURVE SMOOTH"
);
},
{
closed = 1;
nodes = (
"184 931 LINE",
"333 789 LINE",
"435 789 LINE",
"582 930 LINE",
"521 983 LINE",
"384 898 LINE",
"246 983 LINE"
);
}
);
};
components = (
{
name = C;
},
{
name = caroncomb.case;
transform = "{1, 0, 0, 1, 400, 0}";
}
);
layerId = "809C3DC2-6073-4494-AA7C-C910FAB1DD5E";
width = 642;
}
);
leftKerningGroup = O;
rightKerningGroup = C;
unicode = 010C;
},
{
color = 4;
glyphname = Ccedilla;
lastChange = "2019-02-05 18:59:43 +0000";
layers = (
{
anchors = (
{
name = _btm;
position = "{302, -82}";
},
{
name = top;
position = "{407, 743}";
}
);
background = {
anchors = (
{
name = bottom;
position = "{365, -235}";
},
{
name = mark0;
position = "{374, -83}";
},
{
name = top;
position = "{365, 743}";
}
);
paths = (
{
closed = 1;
nodes = (
"497 -11 OFFCURVE",
"534 25 OFFCURVE",
"586 27 CURVE",
"611 161 LINE",
"562 168 LINE",
"522 74 LINE",
"496 53 OFFCURVE",
"462 37 OFFCURVE",
"379 37 CURVE SMOOTH",
"208 37 OFFCURVE",
"130 203 OFFCURVE",
"130 384 CURVE SMOOTH",
"130 589 OFFCURVE",
"236 703 OFFCURVE",
"372 703 CURVE SMOOTH",
"451 703 OFFCURVE",
"503 688 OFFCURVE",
"521 672 CURVE",
"543 556 LINE",
"595 556 LINE",
"603 719 LINE",
"568 727 OFFCURVE",
"481 751 OFFCURVE",
"392 751 CURVE SMOOTH",
"191 751 OFFCURVE",
"36 598 OFFCURVE",
"36 375 CURVE SMOOTH",
"36 143 OFFCURVE",
"159 -11 OFFCURVE",
"377 -11 CURVE SMOOTH"
);
},
{
closed = 1;
nodes = (
"401 -235 OFFCURVE",
"445 -211 OFFCURVE",
"448 -143 CURVE SMOOTH",
"451 -80 OFFCURVE",
"406 -19 OFFCURVE",
"385 0 CURVE",
"367 6 LINE",
"344 0 LINE",
"353 -13 OFFCURVE",
"378 -58 OFFCURVE",
"378 -100 CURVE SMOOTH",
"378 -161 OFFCURVE",
"351 -171 OFFCURVE",
"302 -171 CURVE SMOOTH",
"292 -171 OFFCURVE",
"270 -168 OFFCURVE",
"256 -163 CURVE",
"255 -222 LINE",
"273 -229 OFFCURVE",
"303 -235 OFFCURVE",
"326 -235 CURVE SMOOTH"
);
}
);
};
components = (
{
name = C;
},
{
name = cedillacomb.case;
transform = "{1, 0, 0, 1, 349, 0}";
}
);
layerId = UUID0;
width = 618;
},
{
anchors = (
{
name = _btm;
position = "{352, -82}";
},
{
name = top;
position = "{463, 743}";
}
);
background = {
anchors = (
{
name = bottom;
position = "{363, -264}";
},
{
name = mark0;
position = "{362, -83}";
},
{
name = top;
position = "{383, 743}";
}
);
paths = (
{
closed = 1;
nodes = (
"507 -11 OFFCURVE",
"549 20 OFFCURVE",
"622 27 CURVE",
"638 200 LINE",
"523 210 LINE",
"476 98 LINE",
"462 83 OFFCURVE",
"444 69 OFFCURVE",
"393 69 CURVE SMOOTH",
"298 69 OFFCURVE",
"250 191 OFFCURVE",
"250 377 CURVE SMOOTH",
"250 579 OFFCURVE",
"304 672 OFFCURVE",
"390 672 CURVE SMOOTH",
"435 672 OFFCURVE",
"453 661 OFFCURVE",
"462 651 CURVE",
"500 484 LINE",
"626 484 LINE",
"640 729 LINE",
"598 729 OFFCURVE",
"500 751 OFFCURVE",
"398 751 CURVE SMOOTH",
"181 751 OFFCURVE",
"22 610 OFFCURVE",
"22 361 CURVE SMOOTH",
"22 136 OFFCURVE",
"137 -11 OFFCURVE",
"380 -11 CURVE SMOOTH"
);
},
{
closed = 1;
nodes = (
"417 -264 OFFCURVE",
"473 -237 OFFCURVE",
"478 -145 CURVE SMOOTH",
"482 -75 OFFCURVE",
"428 -15 OFFCURVE",
"406 4 CURVE",
"385 7 LINE",
"323 4 LINE",
"334 -10 OFFCURVE",
"355 -49 OFFCURVE",
"355 -83 CURVE SMOOTH",
"355 -145 OFFCURVE",
"332 -151 OFFCURVE",
"288 -151 CURVE",
"281 -151 OFFCURVE",
"262 -149 OFFCURVE",
"248 -145 CURVE",
"248 -249 LINE",
"265 -257 OFFCURVE",
"296 -264 OFFCURVE",
"319 -264 CURVE"
);
}
);
};
components = (
{
name = C;
},
{
name = cedillacomb.case;
transform = "{1, 0, 0, 1, 370, 0}";
}
);
layerId = "809C3DC2-6073-4494-AA7C-C910FAB1DD5E";
width = 642;
}
);
leftKerningGroup = O;
rightKerningGroup = C;
unicode = 00C7;
},
{
color = 4;
glyphname = Ccircumflex;
lastChange = "2019-02-05 18:59:43 +0000";
layers = (
{
background = {
anchors = (
{
name = bottom;
position = "{365, 0}";
},
{
name = mark0;
position = "{374, -83}";
},
{
name = top;
position = "{365, 983}";
}
);
paths = (
{
closed = 1;
nodes = (
"497 -11 OFFCURVE",
"534 25 OFFCURVE",
"586 27 CURVE",
"611 161 LINE",
"562 168 LINE",
"522 74 LINE",
"496 53 OFFCURVE",
"462 37 OFFCURVE",
"379 37 CURVE SMOOTH",
"208 37 OFFCURVE",
"130 203 OFFCURVE",
"130 384 CURVE SMOOTH",
"130 589 OFFCURVE",
"236 703 OFFCURVE",
"372 703 CURVE SMOOTH",
"451 703 OFFCURVE",
"503 688 OFFCURVE",
"521 672 CURVE",
"543 556 LINE",
"595 556 LINE",
"603 719 LINE",
"568 727 OFFCURVE",
"481 751 OFFCURVE",
"392 751 CURVE SMOOTH",
"191 751 OFFCURVE",
"36 598 OFFCURVE",
"36 375 CURVE SMOOTH",
"36 143 OFFCURVE",
"159 -11 OFFCURVE",
"377 -11 CURVE SMOOTH"
);
},
{
closed = 1;
nodes = (
"200 838 LINE",
"233 817 LINE",
"366 923 LINE",
"496 817 LINE",
"532 839 LINE",
"403 983 LINE",
"328 983 LINE"
);
}
);
};
components = (
{
name = C;
},
{
name = circumflexcomb.case;
transform = "{1, 0, 0, 1, 348, 0}";
}
);
layerId = UUID0;
width = 618;
},
{
background = {
anchors = (
{
name = bottom;
position = "{363, 0}";
},
{
name = mark0;
position = "{362, -83}";
},
{
name = top;
position = "{383, 979}";
}
);
paths = (
{
closed = 1;
nodes = (
"507 -11 OFFCURVE",
"549 20 OFFCURVE",
"622 27 CURVE",
"638 200 LINE",
"523 210 LINE",
"476 98 LINE",
"462 83 OFFCURVE",
"444 69 OFFCURVE",
"393 69 CURVE SMOOTH",
"298 69 OFFCURVE",
"250 191 OFFCURVE",
"250 377 CURVE SMOOTH",
"250 579 OFFCURVE",
"304 672 OFFCURVE",
"390 672 CURVE SMOOTH",
"435 672 OFFCURVE",
"453 661 OFFCURVE",
"462 651 CURVE",
"500 484 LINE",
"626 484 LINE",
"640 729 LINE",
"598 729 OFFCURVE",
"500 751 OFFCURVE",
"398 751 CURVE SMOOTH",
"181 751 OFFCURVE",
"22 610 OFFCURVE",
"22 361 CURVE SMOOTH",
"22 136 OFFCURVE",
"137 -11 OFFCURVE",
"380 -11 CURVE SMOOTH"
);
},
{
closed = 1;
nodes = (
"175 832 LINE",
"236 779 LINE",
"384 870 LINE",
"532 779 LINE",
"593 833 LINE",
"436 979 LINE",
"334 979 LINE"
);
}
);
};
components = (
{
name = C;
},
{
name = circumflexcomb.case;
transform = "{1, 0, 0, 1, 400, 0}";
}
);
layerId = "809C3DC2-6073-4494-AA7C-C910FAB1DD5E";
width = 642;
}
);
leftKerningGroup = O;
rightKerningGroup = C;
unicode = 0108;
},
{
color = 4;
glyphname = Cdotaccent;
lastChange = "2019-02-05 18:59:43 +0000";
layers = (
{
background = {
anchors = (
{
name = bottom;
position = "{365, 0}";
},
{
name = mark0;
position = "{374, -83}";
},
{
name = top;
position = "{365, 959}";
}
);
paths = (
{
closed = 1;
nodes = (
"497 -11 OFFCURVE",
"534 25 OFFCURVE",
"586 27 CURVE",
"611 161 LINE",
"562 168 LINE",
"522 74 LINE",
"496 53 OFFCURVE",
"462 37 OFFCURVE",
"379 37 CURVE SMOOTH",
"208 37 OFFCURVE",
"130 203 OFFCURVE",
"130 384 CURVE SMOOTH",
"130 589 OFFCURVE",
"236 703 OFFCURVE",
"372 703 CURVE SMOOTH",
"451 703 OFFCURVE",
"503 688 OFFCURVE",
"521 672 CURVE",
"543 556 LINE",
"595 556 LINE",
"603 719 LINE",
"568 727 OFFCURVE",
"481 751 OFFCURVE",
"392 751 CURVE SMOOTH",
"191 751 OFFCURVE",
"36 598 OFFCURVE",
"36 375 CURVE SMOOTH",
"36 143 OFFCURVE",
"159 -11 OFFCURVE",
"377 -11 CURVE SMOOTH"
);
},
{
closed = 1;
nodes = (
"401 836 OFFCURVE",
"421 866 OFFCURVE",
"421 901 CURVE SMOOTH",
"421 930 OFFCURVE",
"402 959 OFFCURVE",
"368 959 CURVE SMOOTH",
"328 959 OFFCURVE",
"309 927 OFFCURVE",
"309 893 CURVE SMOOTH",
"309 861 OFFCURVE",
"328 836 OFFCURVE",
"360 836 CURVE SMOOTH"
);
}
);
};
components = (
{
name = C;
},
{
name = dotaccentcomb.case;
transform = "{1, 0, 0, 1, 348, 0}";
}
);
layerId = UUID0;
width = 618;
},
{
background = {
anchors = (
{
name = bottom;
position = "{363, 0}";
},
{
name = mark0;
position = "{362, -83}";
},
{
name = top;
position = "{383, 977}";
}
);
paths = (
{
closed = 1;
nodes = (
"507 -11 OFFCURVE",
"549 20 OFFCURVE",
"622 27 CURVE",
"638 200 LINE",
"523 210 LINE",
"476 98 LINE",
"462 83 OFFCURVE",
"444 69 OFFCURVE",
"393 69 CURVE SMOOTH",
"298 69 OFFCURVE",
"250 191 OFFCURVE",
"250 377 CURVE SMOOTH",
"250 579 OFFCURVE",
"304 672 OFFCURVE",
"390 672 CURVE SMOOTH",
"435 672 OFFCURVE",
"453 661 OFFCURVE",
"462 651 CURVE",
"500 484 LINE",
"626 484 LINE",
"640 729 LINE",
"598 729 OFFCURVE",
"500 751 OFFCURVE",
"398 751 CURVE SMOOTH",
"181 751 OFFCURVE",
"22 610 OFFCURVE",
"22 361 CURVE SMOOTH",
"22 136 OFFCURVE",
"137 -11 OFFCURVE",
"380 -11 CURVE SMOOTH"
);
},
{
closed = 1;
nodes = (
"450 800 OFFCURVE",
"485 837 OFFCURVE",
"485 896 CURVE SMOOTH",
"485 943 OFFCURVE",
"448 977 OFFCURVE",
"384 977 CURVE",
"318 977 OFFCURVE",
"281 941 OFFCURVE",
"281 882 CURVE SMOOTH",
"281 835 OFFCURVE",
"320 800 OFFCURVE",
"374 800 CURVE"
);
}
);
};
components = (
{
name = C;
},
{
name = dotaccentcomb.case;
transform = "{1, 0, 0, 1, 400, 0}";
}
);
layerId = "809C3DC2-6073-4494-AA7C-C910FAB1DD5E";
width = 642;
}
);
leftKerningGroup = O;
rightKerningGroup = C;
unicode = 010A;
},
{
color = 3;
glyphname = D;
lastChange = "2019-02-05 19:53:16 +0000";
layers = (
{
anchors = (
{
name = bottom;
position = "{281, 0}";
},
{
name = top;
position = "{375, 742}";
}
);
background = {
anchors = (
{
name = bottom;
position = "{375, 0}";
},
{
name = center;
position = "{375, 372}";
},
{
name = mark0;
position = "{390, -83}";
},
{
name = top;
position = "{375, 743}";
}
);
paths = (
{
closed = 1;
nodes = (
"47 43 LINE",
"47 0 LINE",
"175 0 LINE SMOOTH",
"233 0 OFFCURVE",
"290 -7 OFFCURVE",
"338 -8 CURVE SMOOTH",
"560 -13 OFFCURVE",
"717 149 OFFCURVE",
"717 394 CURVE SMOOTH",
"717 608 OFFCURVE",
"610 751 OFFCURVE",
"351 751 CURVE SMOOTH",
"291 751 OFFCURVE",
"235 743 OFFCURVE",
"174 743 CURVE SMOOTH",
"53 743 LINE",
"53 700 LINE",
"133 689 LINE",
"133 52 LINE"
);
},
{
closed = 1;
nodes = (
"215 697 LINE",
"243 698 OFFCURVE",
"280 703 OFFCURVE",
"325 703 CURVE SMOOTH",
"528 703 OFFCURVE",
"629 594 OFFCURVE",
"629 376 CURVE SMOOTH",
"629 159 OFFCURVE",
"511 43 OFFCURVE",
"350 41 CURVE SMOOTH",
"304 40 OFFCURVE",
"263 40 OFFCURVE",
"215 49 CURVE"
);
}
);
};
layerId = UUID0;
paths = (
{
closed = 1;
nodes = (
"106 743 LINE",
"102 704 LINE",
"168 694 LINE",
"86 46 LINE",
"13 34 LINE",
"10 0 LINE",
"119 0 LINE SMOOTH",
"146 0 OFFCURVE",
"200 -2 OFFCURVE",
"222 -4 CURVE SMOOTH",
"237 -6 OFFCURVE",
"263 -7 OFFCURVE",
"277 -8 CURVE SMOOTH",
"506 -14 OFFCURVE",
"661 192 OFFCURVE",
"657 450 CURVE",
"655 631 OFFCURVE",
"575 751 OFFCURVE",
"376 751 CURVE SMOOTH",
"327 751 OFFCURVE",
"281 744 OFFCURVE",
"235 743 CURVE"
);
},
{
closed = 1;
nodes = (
"242 696 LINE",
"273 700 OFFCURVE",
"321 705 OFFCURVE",
"355 705 CURVE SMOOTH",
"516 705 OFFCURVE",
"579 628 OFFCURVE",
"582 444 CURVE",
"584 246 OFFCURVE",
"493 49 OFFCURVE",
"297 39 CURVE",
"264 39 OFFCURVE",
"201 44 OFFCURVE",
"161 52 CURVE"
);
}
);
width = 688;
},
{
anchors = (
{
name = bottom;
position = "{298, 0}";
},
{
name = top;
position = "{415, 743}";
}
);
background = {
anchors = (
{
name = bottom;
position = "{388, 0}";
},
{
name = center;
position = "{388, 372}";
},
{
name = mark0;
position = "{405, -83}";
},
{
name = top;
position = "{388, 743}";
}
);
paths = (
{
closed = 1;
nodes = (
"34 74 LINE",
"34 0 LINE",
"207 0 LINE SMOOTH",
"239 0 OFFCURVE",
"310 -6 OFFCURVE",
"364 -8 CURVE",
"608 -13 OFFCURVE",
"747 166 OFFCURVE",
"747 399 CURVE SMOOTH",
"747 625 OFFCURVE",
"624 749 OFFCURVE",
"380 749 CURVE SMOOTH",
"316 749 OFFCURVE",
"271 743 OFFCURVE",
"205 743 CURVE SMOOTH",
"36 743 LINE",
"36 664 LINE",
"107 649 LINE",
"107 86 LINE"
);
},
{
closed = 1;
nodes = (
"307 664 LINE",
"313 665 OFFCURVE",
"330 672 OFFCURVE",
"360 672 CURVE SMOOTH",
"485 672 OFFCURVE",
"525 541 OFFCURVE",
"525 372 CURVE SMOOTH",
"525 157 OFFCURVE",
"467 74 OFFCURVE",
"368 73 CURVE SMOOTH",
"344 73 OFFCURVE",
"321 76 OFFCURVE",
"307 83 CURVE"
);
}
);
};
layerId = "809C3DC2-6073-4494-AA7C-C910FAB1DD5E";
paths = (
{
closed = 1;
nodes = (
"88 743 LINE",
"83 689 LINE",
"153 677 LINE",
"71 66 LINE",
"-6 52 LINE",
"-12 0 LINE",
"168 0 LINE",
"198 0 OFFCURVE",
"240 -2 OFFCURVE",
"262 -4 CURVE",
"271 -6 OFFCURVE",
"289 -8 OFFCURVE",
"298 -8 CURVE SMOOTH",
"609 -8 OFFCURVE",
"736 181 OFFCURVE",
"736 450 CURVE SMOOTH",
"736 621 OFFCURVE",
"653 752 OFFCURVE",
"417 751 CURVE SMOOTH",
"359 751 OFFCURVE",
"298 744 OFFCURVE",
"243 743 CURVE"
);
},
{
closed = 1;
nodes = (
"323 677 LINE",
"333 682 OFFCURVE",
"362 689 OFFCURVE",
"401 689 CURVE SMOOTH",
"505 689 OFFCURVE",
"552 618 OFFCURVE",
"552 433 CURVE SMOOTH",
"552 267 OFFCURVE",
"489 54 OFFCURVE",
"309 54 CURVE SMOOTH",
"290 54 OFFCURVE",
"261 60 OFFCURVE",
"242 66 CURVE"
);
}
);
width = 744;
}
);
leftKerningGroup = H;
leftMetricsKey = H;
rightKerningGroup = D;
unicode = 0044;
},
{
color = 4;
glyphname = DZ;
lastChange = "2019-02-05 19:53:50 +0000";
layers = (
{
background = {
anchors = (
{
name = bottom;
position = "{1083, 0}";
},
{
name = center;
position = "{378, 372}";
},
{
name = mark0;
position = "{1089, -83}";
},
{
name = top;
position = "{1123, 743}";
}
);
paths = (
{
closed = 1;
nodes = (
"50 43 LINE",
"50 0 LINE",
"178 0 LINE SMOOTH",
"236 0 OFFCURVE",
"293 -7 OFFCURVE",
"341 -8 CURVE SMOOTH",
"563 -13 OFFCURVE",
"720 149 OFFCURVE",
"720 394 CURVE SMOOTH",
"720 608 OFFCURVE",
"613 751 OFFCURVE",
"354 751 CURVE SMOOTH",
"294 751 OFFCURVE",
"238 743 OFFCURVE",
"177 743 CURVE SMOOTH",
"56 743 LINE",
"56 700 LINE",
"136 689 LINE",
"136 52 LINE"
);
},
{
closed = 1;
nodes = (
"218 697 LINE",
"246 698 OFFCURVE",
"283 703 OFFCURVE",
"328 703 CURVE SMOOTH",
"531 703 OFFCURVE",
"632 594 OFFCURVE",
"632 376 CURVE SMOOTH",
"632 159 OFFCURVE",
"514 43 OFFCURVE",
"353 41 CURVE SMOOTH",
"307 40 OFFCURVE",
"266 40 OFFCURVE",
"218 49 CURVE"
);
},
{
closed = 1;
nodes = (
"798 39 LINE",
"822 0 LINE",
"1342 0 LINE",
"1366 211 LINE",
"1318 222 LINE",
"1268 64 LINE",
"898 47 LINE",
"963 125 LINE",
"1355 709 LINE",
"1333 746 LINE",
"862 746 LINE",
"841 565 LINE",
"887 560 LINE",
"936 690 LINE",
"1254 700 LINE",
"1197 628 LINE"
);
}
);
};
components = (
{
name = D;
},
{
name = Z;
transform = "{1, 0, 0, 1, 688, 0}";
}
);
layerId = UUID0;
width = 1278;
},
{
background = {
anchors = (
{
name = bottom;
position = "{1094, 0}";
},
{
name = center;
position = "{383, 372}";
},
{
name = mark0;
position = "{1105, -83}";
},
{
name = top;
position = "{1134, 743}";
}
);
paths = (
{
closed = 1;
nodes = (
"29 74 LINE",
"29 0 LINE",
"202 0 LINE SMOOTH",
"234 0 OFFCURVE",
"305 -6 OFFCURVE",
"359 -8 CURVE",
"603 -13 OFFCURVE",
"742 166 OFFCURVE",
"742 399 CURVE SMOOTH",
"742 625 OFFCURVE",
"619 749 OFFCURVE",
"375 749 CURVE SMOOTH",
"311 749 OFFCURVE",
"266 743 OFFCURVE",
"200 743 CURVE SMOOTH",
"31 743 LINE",
"31 664 LINE",
"102 649 LINE",
"102 86 LINE"
);
},
{
closed = 1;
nodes = (
"302 664 LINE",
"308 665 OFFCURVE",
"325 672 OFFCURVE",
"355 672 CURVE SMOOTH",
"480 672 OFFCURVE",
"520 541 OFFCURVE",
"520 372 CURVE SMOOTH",
"520 157 OFFCURVE",
"462 74 OFFCURVE",
"363 73 CURVE SMOOTH",
"339 73 OFFCURVE",
"316 76 OFFCURVE",
"302 83 CURVE"
);
},
{
closed = 1;
nodes = (
"771 65 LINE",
"808 0 LINE",
"1384 0 LINE",
"1406 229 LINE",
"1306 249 LINE",
"1245 96 LINE",
"990 74 LINE",
"1063 135 LINE",
"1399 678 LINE",
"1373 745 LINE",
"835 745 LINE",
"809 534 LINE",
"909 519 LINE",
"967 659 LINE",
"1177 675 LINE",
"1116 609 LINE"
);
}
);
};
components = (
{
name = D;
},
{
name = Z;
transform = "{1, 0, 0, 1, 744, 0}";
}
);
layerId = "809C3DC2-6073-4494-AA7C-C910FAB1DD5E";
width = 1359;
}
);
leftKerningGroup = H;
rightKerningGroup = Z;
unicode = 01F1;
},
{
color = 4;
glyphname = DZcaron;
lastChange = "2019-02-05 19:53:50 +0000";
layers = (
{
background = {
anchors = (
{
name = bottom;
position = "{1083, 0}";
},
{
name = center;
position = "{378, 372}";
},
{
name = mark0;
position = "{1089, -83}";
},
{
name = top;
position = "{1123, 982}";
}
);
paths = (
{
closed = 1;
nodes = (
"50 43 LINE",
"50 0 LINE",
"178 0 LINE SMOOTH",
"236 0 OFFCURVE",
"293 -7 OFFCURVE",
"341 -8 CURVE SMOOTH",
"563 -13 OFFCURVE",
"720 149 OFFCURVE",
"720 394 CURVE SMOOTH",
"720 608 OFFCURVE",
"613 751 OFFCURVE",
"354 751 CURVE SMOOTH",
"294 751 OFFCURVE",
"238 743 OFFCURVE",
"177 743 CURVE SMOOTH",
"56 743 LINE",
"56 700 LINE",
"136 689 LINE",
"136 52 LINE"
);
},
{
closed = 1;
nodes = (
"218 697 LINE",
"246 698 OFFCURVE",
"283 703 OFFCURVE",
"328 703 CURVE SMOOTH",
"531 703 OFFCURVE",
"632 594 OFFCURVE",
"632 376 CURVE SMOOTH",
"632 159 OFFCURVE",
"514 43 OFFCURVE",
"353 41 CURVE SMOOTH",
"307 40 OFFCURVE",
"266 40 OFFCURVE",
"218 49 CURVE"
);
},
{
closed = 1;
nodes = (
"798 39 LINE",
"822 0 LINE",
"1342 0 LINE",
"1366 211 LINE",
"1318 222 LINE",
"1268 64 LINE",
"898 47 LINE",
"963 125 LINE",
"1355 709 LINE",
"1333 746 LINE",
"862 746 LINE",
"841 565 LINE",
"887 560 LINE",
"936 690 LINE",
"1254 700 LINE",
"1197 628 LINE"
);
},
{
closed = 1;
nodes = (
"965 960 LINE",
"1086 826 LINE",
"1162 826 LINE",
"1281 961 LINE",
"1248 982 LINE",
"1124 882 LINE",
"1001 982 LINE"
);
}
);
};
components = (
{
name = DZ;
},
{
name = caroncomb.case;
transform = "{1, 0, 0, 1, 967, 0}";
}
);
layerId = UUID0;
width = 1278;
},
{
background = {
anchors = (
{
name = bottom;
position = "{1094, 0}";
},
{
name = center;
position = "{383, 372}";
},
{
name = mark0;
position = "{1105, -83}";
},
{
name = top;
position = "{1134, 983}";
}
);
paths = (
{
closed = 1;
nodes = (
"29 74 LINE",
"29 0 LINE",
"202 0 LINE SMOOTH",
"234 0 OFFCURVE",
"305 -6 OFFCURVE",
"359 -8 CURVE",
"603 -13 OFFCURVE",
"742 166 OFFCURVE",
"742 399 CURVE SMOOTH",
"742 625 OFFCURVE",
"619 749 OFFCURVE",
"375 749 CURVE SMOOTH",
"311 749 OFFCURVE",
"266 743 OFFCURVE",
"200 743 CURVE SMOOTH",
"31 743 LINE",
"31 664 LINE",
"102 649 LINE",
"102 86 LINE"
);
},
{
closed = 1;
nodes = (
"302 664 LINE",
"308 665 OFFCURVE",
"325 672 OFFCURVE",
"355 672 CURVE SMOOTH",
"480 672 OFFCURVE",
"520 541 OFFCURVE",
"520 372 CURVE SMOOTH",
"520 157 OFFCURVE",
"462 74 OFFCURVE",
"363 73 CURVE SMOOTH",
"339 73 OFFCURVE",
"316 76 OFFCURVE",
"302 83 CURVE"
);
},
{
closed = 1;
nodes = (
"771 65 LINE",
"808 0 LINE",
"1384 0 LINE",
"1406 229 LINE",
"1306 249 LINE",
"1245 96 LINE",
"990 74 LINE",
"1063 135 LINE",
"1399 678 LINE",
"1373 745 LINE",
"835 745 LINE",
"809 534 LINE",
"909 519 LINE",
"967 659 LINE",
"1177 675 LINE",
"1116 609 LINE"
);
},
{
closed = 1;
nodes = (
"935 931 LINE",
"1084 789 LINE",
"1186 789 LINE",
"1333 930 LINE",
"1272 983 LINE",
"1135 898 LINE",
"997 983 LINE"
);
}
);
};
components = (
{
name = DZ;
},
{
name = caroncomb.case;
transform = "{1, 0, 0, 1, 1044, 0}";
}
);
layerId = "809C3DC2-6073-4494-AA7C-C910FAB1DD5E";
width = 1359;
}
);
leftKerningGroup = H;
rightKerningGroup = Z;
unicode = 01C4;
},
{
glyphname = Eth;
lastChange = "2019-02-05 19:53:17 +0000";
layers = (
{
background = {
components = (
{
name = D;
transform = "{1, 0, 0, 1, 4, 0}";
}
);
};
layerId = UUID0;
paths = (
{
closed = 1;
nodes = (
"112 744 LINE",
"108 705 LINE",
"174 695 LINE",
"138 408 LINE",
"59 408 LINE",
"53 357 LINE",
"131 357 LINE",
"92 47 LINE",
"19 35 LINE",
"15 1 LINE",
"125 1 LINE SMOOTH",
"152 1 OFFCURVE",
"205 -2 OFFCURVE",
"227 -3 CURVE SMOOTH",
"242 -4 OFFCURVE",
"269 -6 OFFCURVE",
"282 -7 CURVE SMOOTH",
"511 -25 OFFCURVE",
"666 193 OFFCURVE",
"663 451 CURVE",
"661 632 OFFCURVE",
"581 752 OFFCURVE",
"382 752 CURVE SMOOTH",
"332 752 OFFCURVE",
"287 745 OFFCURVE",
"241 744 CURVE"
);
},
{
closed = 1;
nodes = (
"204 357 LINE",
"414 357 LINE",
"420 408 LINE",
"211 408 LINE",
"247 697 LINE",
"278 701 OFFCURVE",
"326 706 OFFCURVE",
"360 706 CURVE SMOOTH",
"522 706 OFFCURVE",
"585 629 OFFCURVE",
"588 445 CURVE",
"589 247 OFFCURVE",
"498 50 OFFCURVE",
"303 40 CURVE",
"270 40 OFFCURVE",
"206 45 OFFCURVE",
"166 53 CURVE"
);
}
);
width = 694;
},
{
background = {
paths = (
{
closed = 1;
nodes = (
"42 422 LINE",
"42 345 LINE",
"108 345 LINE",
"108 86 LINE",
"35 74 LINE",
"35 0 LINE",
"208 0 LINE SMOOTH",
"240 0 OFFCURVE",
"311 -6 OFFCURVE",
"365 -8 CURVE",
"609 -13 OFFCURVE",
"748 166 OFFCURVE",
"748 399 CURVE SMOOTH",
"748 625 OFFCURVE",
"625 749 OFFCURVE",
"381 749 CURVE SMOOTH",
"317 749 OFFCURVE",
"272 743 OFFCURVE",
"206 743 CURVE SMOOTH",
"37 743 LINE",
"37 664 LINE",
"108 649 LINE",
"108 422 LINE"
);
},
{
closed = 1;
nodes = (
"308 422 LINE",
"308 664 LINE",
"314 665 OFFCURVE",
"331 672 OFFCURVE",
"361 672 CURVE SMOOTH",
"486 672 OFFCURVE",
"526 541 OFFCURVE",
"526 372 CURVE SMOOTH",
"526 157 OFFCURVE",
"468 74 OFFCURVE",
"369 73 CURVE SMOOTH",
"345 73 OFFCURVE",
"322 76 OFFCURVE",
"308 83 CURVE",
"308 345 LINE",
"430 345 LINE",
"430 422 LINE"
);
}
);
};
layerId = "809C3DC2-6073-4494-AA7C-C910FAB1DD5E";
paths = (
{
closed = 1;
nodes = (
"89 744 LINE",
"84 690 LINE",
"154 678 LINE",
"120 426 LINE",
"55 426 LINE",
"42 343 LINE",
"109 343 LINE",
"72 67 LINE",
"-5 53 LINE",
"-11 1 LINE",
"156 1 LINE SMOOTH",
"187 1 OFFCURVE",
"238 -1 OFFCURVE",
"263 -3 CURVE",
"272 -5 OFFCURVE",
"290 -7 OFFCURVE",
"299 -7 CURVE SMOOTH",
"610 -7 OFFCURVE",
"737 182 OFFCURVE",
"737 451 CURVE SMOOTH",
"737 622 OFFCURVE",
"654 753 OFFCURVE",
"418 752 CURVE SMOOTH",
"358 752 OFFCURVE",
"293 744 OFFCURVE",
"235 744 CURVE SMOOTH"
);
},
{
closed = 1;
nodes = (
"280 343 LINE",
"423 343 LINE",
"435 426 LINE",
"291 426 LINE",
"324 678 LINE",
"334 683 OFFCURVE",
"363 690 OFFCURVE",
"402 690 CURVE SMOOTH",
"506 690 OFFCURVE",
"553 619 OFFCURVE",
"553 434 CURVE SMOOTH",
"553 268 OFFCURVE",
"490 55 OFFCURVE",
"310 55 CURVE SMOOTH",
"291 55 OFFCURVE",
"262 61 OFFCURVE",
"243 67 CURVE"
);
}
);
width = 745;
}
);
leftKerningGroup = H;
leftMetricsKey = D;
rightKerningGroup = D;
rightMetricsKey = D;
unicode = 00D0;
},
{
color = 4;
glyphname = Dcaron;
lastChange = "2019-02-05 19:53:50 +0000";
layers = (
{
background = {
anchors = (
{
name = bottom;
position = "{378, 0}";
},
{
name = center;
position = "{378, 372}";
},
{
name = mark0;
position = "{393, -83}";
},
{
name = top;
position = "{378, 982}";
}
);
paths = (
{
closed = 1;
nodes = (
"50 43 LINE",
"50 0 LINE",
"178 0 LINE SMOOTH",
"236 0 OFFCURVE",
"293 -7 OFFCURVE",
"341 -8 CURVE SMOOTH",
"563 -13 OFFCURVE",
"720 149 OFFCURVE",
"720 394 CURVE SMOOTH",
"720 608 OFFCURVE",
"613 751 OFFCURVE",
"354 751 CURVE SMOOTH",
"294 751 OFFCURVE",
"238 743 OFFCURVE",
"177 743 CURVE SMOOTH",
"56 743 LINE",
"56 700 LINE",
"136 689 LINE",
"136 52 LINE"
);
},
{
closed = 1;
nodes = (
"218 697 LINE",
"246 698 OFFCURVE",
"283 703 OFFCURVE",
"328 703 CURVE SMOOTH",
"531 703 OFFCURVE",
"632 594 OFFCURVE",
"632 376 CURVE SMOOTH",
"632 159 OFFCURVE",
"514 43 OFFCURVE",
"353 41 CURVE SMOOTH",
"307 40 OFFCURVE",
"266 40 OFFCURVE",
"218 49 CURVE"
);
},
{
closed = 1;
nodes = (
"220 960 LINE",
"341 826 LINE",
"417 826 LINE",
"536 961 LINE",
"503 982 LINE",
"379 882 LINE",
"256 982 LINE"
);
}
);
};
components = (
{
name = D;
},
{
name = caroncomb.case;
transform = "{1, 0, 0, 1, 309, -1}";
}
);
layerId = UUID0;
width = 688;
},
{
background = {
anchors = (
{
name = bottom;
position = "{383, 0}";
},
{
name = center;
position = "{383, 372}";
},
{
name = mark0;
position = "{400, -83}";
},
{
name = top;
position = "{383, 983}";
}
);
paths = (
{
closed = 1;
nodes = (
"29 74 LINE",
"29 0 LINE",
"202 0 LINE SMOOTH",
"234 0 OFFCURVE",
"305 -6 OFFCURVE",
"359 -8 CURVE",
"603 -13 OFFCURVE",
"742 166 OFFCURVE",
"742 399 CURVE SMOOTH",
"742 625 OFFCURVE",
"619 749 OFFCURVE",
"375 749 CURVE SMOOTH",
"311 749 OFFCURVE",
"266 743 OFFCURVE",
"200 743 CURVE SMOOTH",
"31 743 LINE",
"31 664 LINE",
"102 649 LINE",
"102 86 LINE"
);
},
{
closed = 1;
nodes = (
"302 664 LINE",
"308 665 OFFCURVE",
"325 672 OFFCURVE",
"355 672 CURVE SMOOTH",
"480 672 OFFCURVE",
"520 541 OFFCURVE",
"520 372 CURVE SMOOTH",
"520 157 OFFCURVE",
"462 74 OFFCURVE",
"363 73 CURVE SMOOTH",
"339 73 OFFCURVE",
"316 76 OFFCURVE",
"302 83 CURVE"
);
},
{
closed = 1;
nodes = (
"184 931 LINE",
"333 789 LINE",
"435 789 LINE",
"582 930 LINE",
"521 983 LINE",
"384 898 LINE",
"246 983 LINE"
);
}
);
};
components = (
{
name = D;
},
{
name = caroncomb.case;
transform = "{1, 0, 0, 1, 350, 0}";
}
);
layerId = "809C3DC2-6073-4494-AA7C-C910FAB1DD5E";
width = 744;
}
);
leftKerningGroup = H;
rightKerningGroup = D;
unicode = 010E;
},
{
glyphname = Dcroat;
lastChange = "2019-02-05 19:53:50 +0000";
layers = (
{
background = {
paths = (
{
closed = 1;
nodes = (
"68 411 LINE",
"68 365 LINE",
"145 365 LINE",
"145 52 LINE",
"59 43 LINE",
"59 0 LINE",
"187 0 LINE SMOOTH",
"245 0 OFFCURVE",
"302 -7 OFFCURVE",
"350 -8 CURVE SMOOTH",
"572 -13 OFFCURVE",
"729 149 OFFCURVE",
"729 394 CURVE SMOOTH",
"729 608 OFFCURVE",
"622 751 OFFCURVE",
"363 751 CURVE SMOOTH",
"303 751 OFFCURVE",
"247 743 OFFCURVE",
"186 743 CURVE SMOOTH",
"65 743 LINE",
"65 700 LINE",
"145 689 LINE",
"145 411 LINE"
);
},
{
closed = 1;
nodes = (
"227 411 LINE",
"227 697 LINE",
"255 698 OFFCURVE",
"292 703 OFFCURVE",
"337 703 CURVE SMOOTH",
"540 703 OFFCURVE",
"641 594 OFFCURVE",
"641 376 CURVE SMOOTH",
"641 159 OFFCURVE",
"523 43 OFFCURVE",
"362 41 CURVE SMOOTH",
"316 40 OFFCURVE",
"275 40 OFFCURVE",
"227 49 CURVE",
"227 365 LINE",
"415 365 LINE",
"415 411 LINE"
);
}
);
};
components = (
{
name = Eth;
}
);
layerId = UUID0;
width = 694;
},
{
background = {
paths = (
{
closed = 1;
nodes = (
"37 422 LINE",
"37 345 LINE",
"103 345 LINE",
"103 86 LINE",
"30 74 LINE",
"30 0 LINE",
"203 0 LINE SMOOTH",
"235 0 OFFCURVE",
"306 -6 OFFCURVE",
"360 -8 CURVE",
"604 -13 OFFCURVE",
"743 166 OFFCURVE",
"743 399 CURVE SMOOTH",
"743 625 OFFCURVE",
"620 749 OFFCURVE",
"376 749 CURVE SMOOTH",
"312 749 OFFCURVE",
"267 743 OFFCURVE",
"201 743 CURVE SMOOTH",
"32 743 LINE",
"32 664 LINE",
"103 649 LINE",
"103 422 LINE"
);
},
{
closed = 1;
nodes = (
"303 422 LINE",
"303 664 LINE",
"309 665 OFFCURVE",
"326 672 OFFCURVE",
"356 672 CURVE SMOOTH",
"481 672 OFFCURVE",
"521 541 OFFCURVE",
"521 372 CURVE SMOOTH",
"521 157 OFFCURVE",
"463 74 OFFCURVE",
"364 73 CURVE SMOOTH",
"340 73 OFFCURVE",
"317 76 OFFCURVE",
"303 83 CURVE",
"303 345 LINE",
"425 345 LINE",
"425 422 LINE"
);
}
);
};
components = (
{
name = Eth;
}
);
layerId = "809C3DC2-6073-4494-AA7C-C910FAB1DD5E";
width = 745;
}
);
leftKerningGroup = H;
leftMetricsKey = Eth;
rightKerningGroup = D;
rightMetricsKey = D;
unicode = 0110;
},
{
color = 4;
glyphname = Ddotaccent;
lastChange = "2019-02-05 19:53:50 +0000";
layers = (
{
background = {
anchors = (
{
name = bottom;
position = "{378, 0}";
},
{
name = center;
position = "{378, 372}";
},
{
name = mark0;
position = "{393, -83}";
},
{
name = top;
position = "{378, 959}";
}
);
paths = (
{
closed = 1;
nodes = (
"50 43 LINE",
"50 0 LINE",
"178 0 LINE SMOOTH",
"236 0 OFFCURVE",
"293 -7 OFFCURVE",
"341 -8 CURVE SMOOTH",
"563 -13 OFFCURVE",
"720 149 OFFCURVE",
"720 394 CURVE SMOOTH",
"720 608 OFFCURVE",
"613 751 OFFCURVE",
"354 751 CURVE SMOOTH",
"294 751 OFFCURVE",
"238 743 OFFCURVE",
"177 743 CURVE SMOOTH",
"56 743 LINE",
"56 700 LINE",
"136 689 LINE",
"136 52 LINE"
);
},
{
closed = 1;
nodes = (
"218 697 LINE",
"246 698 OFFCURVE",
"283 703 OFFCURVE",
"328 703 CURVE SMOOTH",
"531 703 OFFCURVE",
"632 594 OFFCURVE",
"632 376 CURVE SMOOTH",
"632 159 OFFCURVE",
"514 43 OFFCURVE",
"353 41 CURVE SMOOTH",
"307 40 OFFCURVE",
"266 40 OFFCURVE",
"218 49 CURVE"
);
},
{
closed = 1;
nodes = (
"414 836 OFFCURVE",
"434 866 OFFCURVE",
"434 901 CURVE SMOOTH",
"434 930 OFFCURVE",
"415 959 OFFCURVE",
"381 959 CURVE SMOOTH",
"341 959 OFFCURVE",
"322 927 OFFCURVE",
"322 893 CURVE SMOOTH",
"322 861 OFFCURVE",
"341 836 OFFCURVE",
"373 836 CURVE SMOOTH"
);
}
);
};
components = (
{
name = D;
},
{
name = dotaccentcomb.case;
transform = "{1, 0, 0, 1, 309, -1}";
}
);
layerId = UUID0;
width = 688;
},
{
background = {
anchors = (
{
name = bottom;
position = "{383, 0}";
},
{
name = center;
position = "{383, 372}";
},
{
name = mark0;
position = "{400, -83}";
},
{
name = top;
position = "{383, 977}";
}
);
paths = (
{
closed = 1;
nodes = (
"29 74 LINE",
"29 0 LINE",
"202 0 LINE SMOOTH",
"234 0 OFFCURVE",
"305 -6 OFFCURVE",
"359 -8 CURVE",
"603 -13 OFFCURVE",
"742 166 OFFCURVE",
"742 399 CURVE SMOOTH",
"742 625 OFFCURVE",
"619 749 OFFCURVE",
"375 749 CURVE SMOOTH",
"311 749 OFFCURVE",
"266 743 OFFCURVE",
"200 743 CURVE SMOOTH",
"31 743 LINE",
"31 664 LINE",
"102 649 LINE",
"102 86 LINE"
);
},
{
closed = 1;
nodes = (
"302 664 LINE",
"308 665 OFFCURVE",
"325 672 OFFCURVE",
"355 672 CURVE SMOOTH",
"480 672 OFFCURVE",
"520 541 OFFCURVE",
"520 372 CURVE SMOOTH",
"520 157 OFFCURVE",
"462 74 OFFCURVE",
"363 73 CURVE SMOOTH",
"339 73 OFFCURVE",
"316 76 OFFCURVE",
"302 83 CURVE"
);
},
{
closed = 1;
nodes = (
"450 800 OFFCURVE",
"485 837 OFFCURVE",
"485 896 CURVE SMOOTH",
"485 943 OFFCURVE",
"448 977 OFFCURVE",
"384 977 CURVE",
"318 977 OFFCURVE",
"281 941 OFFCURVE",
"281 882 CURVE SMOOTH",
"281 835 OFFCURVE",
"320 800 OFFCURVE",
"374 800 CURVE"
);
}
);
};
components = (
{
name = D;
},
{
name = dotaccentcomb.case;
transform = "{1, 0, 0, 1, 350, 0}";
}
);
layerId = "809C3DC2-6073-4494-AA7C-C910FAB1DD5E";
width = 744;
}
);
leftKerningGroup = H;
rightKerningGroup = D;
unicode = 1E0A;
},
{
color = 4;
glyphname = Ddotbelow;
lastChange = "2019-02-05 19:53:50 +0000";
layers = (
{
background = {
anchors = (
{
name = bottom;
position = "{378, -173}";
},
{
name = center;
position = "{378, 372}";
},
{
name = mark0;
position = "{393, -83}";
},
{
name = top;
position = "{378, 743}";
}
);
paths = (
{
closed = 1;
nodes = (
"50 43 LINE",
"50 0 LINE",
"178 0 LINE SMOOTH",
"236 0 OFFCURVE",
"293 -7 OFFCURVE",
"341 -8 CURVE SMOOTH",
"563 -13 OFFCURVE",
"720 149 OFFCURVE",
"720 394 CURVE SMOOTH",
"720 608 OFFCURVE",
"613 751 OFFCURVE",
"354 751 CURVE SMOOTH",
"294 751 OFFCURVE",
"238 743 OFFCURVE",
"177 743 CURVE SMOOTH",
"56 743 LINE",
"56 700 LINE",
"136 689 LINE",
"136 52 LINE"
);
},
{
closed = 1;
nodes = (
"218 697 LINE",
"246 698 OFFCURVE",
"283 703 OFFCURVE",
"328 703 CURVE SMOOTH",
"531 703 OFFCURVE",
"632 594 OFFCURVE",
"632 376 CURVE SMOOTH",
"632 159 OFFCURVE",
"514 43 OFFCURVE",
"353 41 CURVE SMOOTH",
"307 40 OFFCURVE",
"266 40 OFFCURVE",
"218 49 CURVE"
);
},
{
closed = 1;
nodes = (
"373 -196 LINE",
"416 -196 OFFCURVE",
"436 -165 OFFCURVE",
"436 -126 CURVE SMOOTH",
"436 -97 OFFCURVE",
"417 -66 OFFCURVE",
"381 -66 CURVE SMOOTH",
"339 -66 OFFCURVE",
"318 -101 OFFCURVE",
"318 -136 CURVE SMOOTH",
"318 -169 OFFCURVE",
"339 -196 OFFCURVE",
"371 -196 CURVE"
);
}
);
};
components = (
{
name = D;
},
{
name = dotbelowcomb.case;
transform = "{1, 0, 0, 1, 281, 0}";
}
);
layerId = UUID0;
width = 688;
},
{
background = {
anchors = (
{
name = bottom;
position = "{383, -194}";
},
{
name = center;
position = "{383, 372}";
},
{
name = mark0;
position = "{400, -83}";
},
{
name = top;
position = "{383, 743}";
}
);
paths = (
{
closed = 1;
nodes = (
"29 74 LINE",
"29 0 LINE",
"202 0 LINE SMOOTH",
"234 0 OFFCURVE",
"305 -6 OFFCURVE",
"359 -8 CURVE",
"603 -13 OFFCURVE",
"742 166 OFFCURVE",
"742 399 CURVE SMOOTH",
"742 625 OFFCURVE",
"619 749 OFFCURVE",
"375 749 CURVE SMOOTH",
"311 749 OFFCURVE",
"266 743 OFFCURVE",
"200 743 CURVE SMOOTH",
"31 743 LINE",
"31 664 LINE",
"102 649 LINE",
"102 86 LINE"
);
},
{
closed = 1;
nodes = (
"302 664 LINE",
"308 665 OFFCURVE",
"325 672 OFFCURVE",
"355 672 CURVE SMOOTH",
"480 672 OFFCURVE",
"520 541 OFFCURVE",
"520 372 CURVE SMOOTH",
"520 157 OFFCURVE",
"462 74 OFFCURVE",
"363 73 CURVE SMOOTH",
"339 73 OFFCURVE",
"316 76 OFFCURVE",
"302 83 CURVE"
);
},
{
closed = 1;
nodes = (
"376 -234 LINE",
"446 -234 OFFCURVE",
"481 -191 OFFCURVE",
"481 -136 CURVE SMOOTH",
"481 -89 OFFCURVE",
"449 -52 OFFCURVE",
"387 -52 CURVE SMOOTH",
"323 -52 OFFCURVE",
"286 -95 OFFCURVE",
"286 -151 CURVE SMOOTH",
"286 -198 OFFCURVE",
"323 -234 OFFCURVE",
"376 -234 CURVE"
);
}
);
};
components = (
{
name = D;
},
{
name = dotbelowcomb.case;
transform = "{1, 0, 0, 1, 298, 0}";
}
);
layerId = "809C3DC2-6073-4494-AA7C-C910FAB1DD5E";
width = 744;
}
);
leftKerningGroup = H;
rightKerningGroup = D;
unicode = 1E0C;
},
{
glyphname = Dz;
lastChange = "2019-02-05 19:53:50 +0000";
layers = (
{
background = {
anchors = (
{
name = bottom;
position = "{1032, 0}";
},
{
name = center;
position = "{378, 372}";
},
{
name = mark0;
position = "{1025, -83}";
},
{
name = top;
position = "{1032, 555}";
}
);
paths = (
{
closed = 1;
nodes = (
"50 43 LINE",
"50 0 LINE",
"178 0 LINE SMOOTH",
"236 0 OFFCURVE",
"293 -7 OFFCURVE",
"341 -8 CURVE SMOOTH",
"563 -13 OFFCURVE",
"720 149 OFFCURVE",
"720 394 CURVE SMOOTH",
"720 608 OFFCURVE",
"613 751 OFFCURVE",
"354 751 CURVE SMOOTH",
"294 751 OFFCURVE",
"238 743 OFFCURVE",
"177 743 CURVE SMOOTH",
"56 743 LINE",
"56 700 LINE",
"136 689 LINE",
"136 52 LINE"
);
},
{
closed = 1;
nodes = (
"218 697 LINE",
"246 698 OFFCURVE",
"283 703 OFFCURVE",
"328 703 CURVE SMOOTH",
"531 703 OFFCURVE",
"632 594 OFFCURVE",
"632 376 CURVE SMOOTH",
"632 159 OFFCURVE",
"514 43 OFFCURVE",
"353 41 CURVE SMOOTH",
"307 40 OFFCURVE",
"266 40 OFFCURVE",
"218 49 CURVE"
);
},
{
closed = 1;
nodes = (
"1106 445 LINE",
"791 38 LINE",
"809 0 LINE",
"1248 0 LINE",
"1267 163 LINE",
"1216 169 LINE",
"1177 60 LINE",
"881 51 LINE",
"949 108 LINE",
"1260 518 LINE",
"1243 555 LINE",
"827 555 LINE",
"827 402 LINE",
"882 402 LINE",
"896 496 LINE",
"1168 503 LINE"
);
}
);
};
components = (
{
name = D;
},
{
name = z;
transform = "{1, 0, 0, 1, 688, 0}";
}
);
layerId = UUID0;
width = 1204;
},
{
background = {
anchors = (
{
name = bottom;
position = "{1049, 0}";
},
{
name = center;
position = "{383, 372}";
},
{
name = mark0;
position = "{1058, -83}";
},
{
name = top;
position = "{1054, 556}";
}
);
paths = (
{
closed = 1;
nodes = (
"29 74 LINE",
"29 0 LINE",
"202 0 LINE SMOOTH",
"234 0 OFFCURVE",
"305 -6 OFFCURVE",
"359 -8 CURVE",
"603 -13 OFFCURVE",
"742 166 OFFCURVE",
"742 399 CURVE SMOOTH",
"742 625 OFFCURVE",
"619 749 OFFCURVE",
"375 749 CURVE SMOOTH",
"311 749 OFFCURVE",
"266 743 OFFCURVE",
"200 743 CURVE SMOOTH",
"31 743 LINE",
"31 664 LINE",
"102 649 LINE",
"102 86 LINE"
);
},
{
closed = 1;
nodes = (
"302 664 LINE",
"308 665 OFFCURVE",
"325 672 OFFCURVE",
"355 672 CURVE SMOOTH",
"480 672 OFFCURVE",
"520 541 OFFCURVE",
"520 372 CURVE SMOOTH",
"520 157 OFFCURVE",
"462 74 OFFCURVE",
"363 73 CURVE SMOOTH",
"339 73 OFFCURVE",
"316 76 OFFCURVE",
"302 83 CURVE"
);
},
{
closed = 1;
nodes = (
"1015 391 LINE",
"778 69 LINE",
"810 0 LINE",
"1295 0 LINE",
"1309 196 LINE",
"1226 206 LINE",
"1171 86 LINE",
"1008 74 LINE",
"1081 158 LINE",
"1308 491 LINE",
"1279 556 LINE",
"816 556 LINE",
"816 372 LINE",
"903 372 LINE",
"934 473 LINE",
"1095 481 LINE"
);
}
);
};
components = (
{
name = D;
},
{
name = z;
transform = "{1, 0, 0, 1, 744, 0}";
}
);
layerId = "809C3DC2-6073-4494-AA7C-C910FAB1DD5E";
width = 1246;
}
);
leftKerningGroup = H;
rightKerningGroup = z;
unicode = 01F2;
},
{
color = 4;
glyphname = Dzcaron;
lastChange = "2019-02-05 19:53:50 +0000";
layers = (
{
background = {
anchors = (
{
name = bottom;
position = "{1032, 0}";
},
{
name = center;
position = "{378, 372}";
},
{
name = mark0;
position = "{1025, -83}";
},
{
name = top;
position = "{1032, 877}";
}
);
paths = (
{
closed = 1;
nodes = (
"50 43 LINE",
"50 0 LINE",
"178 0 LINE SMOOTH",
"236 0 OFFCURVE",
"293 -7 OFFCURVE",
"341 -8 CURVE SMOOTH",
"563 -13 OFFCURVE",
"720 149 OFFCURVE",
"720 394 CURVE SMOOTH",
"720 608 OFFCURVE",
"613 751 OFFCURVE",
"354 751 CURVE SMOOTH",
"294 751 OFFCURVE",
"238 743 OFFCURVE",
"177 743 CURVE SMOOTH",
"56 743 LINE",
"56 700 LINE",
"136 689 LINE",
"136 52 LINE"
);
},
{
closed = 1;
nodes = (
"218 697 LINE",
"246 698 OFFCURVE",
"283 703 OFFCURVE",
"328 703 CURVE SMOOTH",
"531 703 OFFCURVE",
"632 594 OFFCURVE",
"632 376 CURVE SMOOTH",
"632 159 OFFCURVE",
"514 43 OFFCURVE",
"353 41 CURVE SMOOTH",
"307 40 OFFCURVE",
"266 40 OFFCURVE",
"218 49 CURVE"
);
},
{
closed = 1;
nodes = (
"1106 445 LINE",
"791 38 LINE",
"809 0 LINE",
"1248 0 LINE",
"1267 163 LINE",
"1216 169 LINE",
"1177 60 LINE",
"881 51 LINE",
"949 108 LINE",
"1260 518 LINE",
"1243 555 LINE",
"827 555 LINE",
"827 402 LINE",
"882 402 LINE",
"896 496 LINE",
"1168 503 LINE"
);
},
{
closed = 1;
nodes = (
"858 856 LINE",
"994 662 LINE",
"1070 662 LINE",
"1205 857 LINE",
"1174 877 LINE",
"1032 726 LINE",
"893 877 LINE"
);
}
);
};
components = (
{
name = D;
},
{
name = zcaron;
transform = "{1, 0, 0, 1, 688, 0}";
}
);
layerId = UUID0;
width = 1204;
},
{
background = {
anchors = (
{
name = bottom;
position = "{1049, 0}";
},
{
name = center;
position = "{383, 372}";
},
{
name = mark0;
position = "{1058, -83}";
},
{
name = top;
position = "{1054, 881}";
}
);
paths = (
{
closed = 1;
nodes = (
"29 74 LINE",
"29 0 LINE",
"202 0 LINE SMOOTH",
"234 0 OFFCURVE",
"305 -6 OFFCURVE",
"359 -8 CURVE",
"603 -13 OFFCURVE",
"742 166 OFFCURVE",
"742 399 CURVE SMOOTH",
"742 625 OFFCURVE",
"619 749 OFFCURVE",
"375 749 CURVE SMOOTH",
"311 749 OFFCURVE",
"266 743 OFFCURVE",
"200 743 CURVE SMOOTH",
"31 743 LINE",
"31 664 LINE",
"102 649 LINE",
"102 86 LINE"
);
},
{
closed = 1;
nodes = (
"302 664 LINE",
"308 665 OFFCURVE",
"325 672 OFFCURVE",
"355 672 CURVE SMOOTH",
"480 672 OFFCURVE",
"520 541 OFFCURVE",
"520 372 CURVE SMOOTH",
"520 157 OFFCURVE",
"462 74 OFFCURVE",
"363 73 CURVE SMOOTH",
"339 73 OFFCURVE",
"316 76 OFFCURVE",
"302 83 CURVE"
);
},
{
closed = 1;
nodes = (
"1015 391 LINE",
"778 69 LINE",
"810 0 LINE",
"1295 0 LINE",
"1309 196 LINE",
"1226 206 LINE",
"1171 86 LINE",
"1008 74 LINE",
"1081 158 LINE",
"1308 491 LINE",
"1279 556 LINE",
"816 556 LINE",
"816 372 LINE",
"903 372 LINE",
"934 473 LINE",
"1095 481 LINE"
);
},
{
closed = 1;
nodes = (
"846 828 LINE",
"1004 631 LINE",
"1101 631 LINE",
"1262 828 LINE",
"1201 881 LINE",
"1053 760 LINE",
"906 880 LINE"
);
}
);
};
components = (
{
name = D;
},
{
name = zcaron;
transform = "{1, 0, 0, 1, 744, 0}";
}
);
layerId = "809C3DC2-6073-4494-AA7C-C910FAB1DD5E";
width = 1246;
}
);
leftKerningGroup = H;
rightKerningGroup = z;
unicode = 01C5;
},
{
color = 3;
glyphname = E;
lastChange = "2019-02-05 19:01:57 +0000";
layers = (
{
anchors = (
{
name = bottom;
position = "{278, 0}";
},
{
name = btm;
position = "{322, -82}";
},
{
name = ogonek;
position = "{496, 10}";
},
{
name = top;
position = "{350, 743}";
}
);
background = {
anchors = (
{
name = bottom;
position = "{322, 0}";
},
{
name = mark0;
position = "{338, -83}";
},
{
name = ogonek;
position = "{581, 10}";
},
{
name = top;
position = "{338, 743}";
},
{
name = topleft;
position = "{17, 743}";
}
);
paths = (
{
closed = 1;
nodes = (
"47 43 LINE",
"47 0 LINE",
"589 0 LINE",
"620 169 LINE",
"572 184 LINE",
"521 59 LINE",
"215 51 LINE",
"215 359 LINE",
"399 356 LINE",
"412 271 LINE",
"462 271 LINE",
"462 492 LINE",
"412 492 LINE",
"399 409 LINE",
"215 406 LINE",
"215 697 LINE",
"483 692 LINE",
"510 596 LINE",
"558 596 LINE",
"544 743 LINE",
"49 743 LINE",
"49 700 LINE",
"133 689 LINE",
"133 52 LINE"
);
}
);
};
layerId = UUID0;
paths = (
{
closed = 1;
nodes = (
"101 704 LINE",
"168 694 LINE",
"87 45 LINE",
"13 34 LINE",
"10 0 LINE",
"514 0 LINE",
"557 154 LINE",
"518 167 LINE",
"463 55 LINE",
"160 46 LINE",
"202 358 LINE",
"437 352 LINE",
"441 413 LINE",
"206 410 LINE",
"244 701 LINE",
"494 695 LINE",
"510 592 LINE",
"551 592 LINE",
"554 743 LINE",
"106 743 LINE"
);
}
);
width = 592;
},
{
anchors = (
{
name = bottom;
position = "{300, 0}";
},
{
name = btm;
position = "{372, -82}";
},
{
name = ogonek;
position = "{540, 10}";
},
{
name = top;
position = "{383, 743}";
}
);
background = {
anchors = (
{
name = bottom;
position = "{336, 0}";
},
{
name = mark0;
position = "{357, -83}";
},
{
name = ogonek;
position = "{600, 10}";
},
{
name = top;
position = "{347, 743}";
},
{
name = topleft;
position = "{26, 743}";
}
);
paths = (
{
closed = 1;
nodes = (
"35 74 LINE",
"35 0 LINE",
"640 0 LINE",
"661 195 LINE",
"563 222 LINE",
"499 91 LINE",
"311 76 LINE",
"311 334 LINE",
"412 332 LINE",
"430 244 LINE",
"506 244 LINE",
"506 505 LINE",
"430 505 LINE",
"411 424 LINE",
"311 421 LINE",
"311 670 LINE",
"483 658 LINE",
"520 556 LINE",
"610 556 LINE",
"597 743 LINE",
"32 743 LINE",
"32 664 LINE",
"108 649 LINE",
"108 85 LINE"
);
}
);
};
layerId = "809C3DC2-6073-4494-AA7C-C910FAB1DD5E";
paths = (
{
closed = 1;
nodes = (
"82 689 LINE",
"153 677 LINE",
"73 66 LINE",
"-5 52 LINE",
"-12 0 LINE",
"595 0 LINE",
"630 222 LINE",
"526 229 LINE",
"473 91 LINE",
"247 74 LINE",
"281 354 LINE",
"497 339 LINE",
"515 452 LINE",
"291 430 LINE",
"325 685 LINE",
"494 672 LINE",
"514 563 LINE",
"616 563 LINE",
"633 743 LINE",
"88 743 LINE"
);
}
);
width = 662;
}
);
leftKerningGroup = H;
leftMetricsKey = H;
rightKerningGroup = E;
unicode = 0045;
},
{
color = 4;
glyphname = Eacute;
lastChange = "2019-02-05 19:01:58 +0000";
layers = (
{
background = {
anchors = (
{
name = bottom;
position = "{325, 0}";
},
{
name = mark0;
position = "{341, -83}";
},
{
name = ogonek;
position = "{584, 10}";
},
{
name = top;
position = "{341, 980}";
},
{
name = topleft;
position = "{20, 743}";
}
);
paths = (
{
closed = 1;
nodes = (
"50 43 LINE",
"50 0 LINE",
"592 0 LINE",
"623 169 LINE",
"575 184 LINE",
"524 59 LINE",
"218 51 LINE",
"218 359 LINE",
"402 356 LINE",
"415 271 LINE",
"465 271 LINE",
"465 492 LINE",
"415 492 LINE",
"402 409 LINE",
"218 406 LINE",
"218 697 LINE",
"486 692 LINE",
"513 596 LINE",
"561 596 LINE",
"547 743 LINE",
"52 743 LINE",
"52 700 LINE",
"136 689 LINE",
"136 52 LINE"
);
},
{
closed = 1;
nodes = (
"363 828 OFFCURVE",
"442 892 OFFCURVE",
"475 936 CURVE",
"406 980 LINE",
"270 827 LINE",
"312 802 LINE"
);
}
);
};
components = (
{
name = E;
},
{
name = acutecomb.case;
transform = "{1, 0, 0, 1, 284, 0}";
}
);
layerId = UUID0;
width = 592;
},
{
background = {
anchors = (
{
name = bottom;
position = "{330, 0}";
},
{
name = mark0;
position = "{351, -83}";
},
{
name = ogonek;
position = "{594, 10}";
},
{
name = top;
position = "{341, 983}";
},
{
name = topleft;
position = "{20, 743}";
}
);
paths = (
{
closed = 1;
nodes = (
"29 74 LINE",
"29 0 LINE",
"634 0 LINE",
"655 195 LINE",
"557 222 LINE",
"493 91 LINE",
"305 76 LINE",
"305 334 LINE",
"406 332 LINE",
"424 244 LINE",
"500 244 LINE",
"500 505 LINE",
"424 505 LINE",
"405 424 LINE",
"305 421 LINE",
"305 670 LINE",
"477 658 LINE",
"514 556 LINE",
"604 556 LINE",
"591 743 LINE",
"26 743 LINE",
"26 664 LINE",
"102 649 LINE",
"102 85 LINE"
);
},
{
closed = 1;
nodes = (
"366 798 OFFCURVE",
"443 840 OFFCURVE",
"505 905 CURVE",
"377 983 LINE",
"251 839 LINE",
"332 789 LINE"
);
}
);
};
components = (
{
name = E;
},
{
name = acutecomb.case;
transform = "{1, 0, 0, 1, 318, 0}";
}
);
layerId = "809C3DC2-6073-4494-AA7C-C910FAB1DD5E";
width = 662;
}
);
leftKerningGroup = H;
rightKerningGroup = E;
unicode = 00C9;
},
{
color = 4;
glyphname = Ebreve;
lastChange = "2019-02-05 19:05:58 +0000";
layers = (
{
background = {
anchors = (
{
name = bottom;
position = "{325, 0}";
},
{
name = mark0;
position = "{341, -83}";
},
{
name = ogonek;
position = "{584, 10}";
},
{
name = top;
position = "{341, 974}";
},
{
name = topleft;
position = "{20, 743}";
}
);
paths = (
{
closed = 1;
nodes = (
"50 43 LINE",
"50 0 LINE",
"592 0 LINE",
"623 169 LINE",
"575 184 LINE",
"524 59 LINE",
"218 51 LINE",
"218 359 LINE",
"402 356 LINE",
"415 271 LINE",
"465 271 LINE",
"465 492 LINE",
"415 492 LINE",
"402 409 LINE",
"218 406 LINE",
"218 697 LINE",
"486 692 LINE",
"513 596 LINE",
"561 596 LINE",
"547 743 LINE",
"52 743 LINE",
"52 700 LINE",
"136 689 LINE",
"136 52 LINE"
);
},
{
closed = 1;
nodes = (
"440 808 OFFCURVE",
"503 872 OFFCURVE",
"503 955 CURVE SMOOTH",
"503 961 OFFCURVE",
"503 967 OFFCURVE",
"502 974 CURVE",
"458 974 LINE",
"458 971 OFFCURVE",
"458 967 OFFCURVE",
"457 961 CURVE SMOOTH",
"451 925 OFFCURVE",
"428 874 OFFCURVE",
"341 874 CURVE SMOOTH",
"258 874 OFFCURVE",
"233 924 OFFCURVE",
"227 960 CURVE SMOOTH",
"226 966 OFFCURVE",
"226 971 OFFCURVE",
"226 974 CURVE",
"180 974 LINE",
"179 967 OFFCURVE",
"179 961 OFFCURVE",
"179 954 CURVE SMOOTH",
"179 872 OFFCURVE",
"237 808 OFFCURVE",
"341 808 CURVE SMOOTH"
);
}
);
};
components = (
{
name = E;
},
{
name = brevecomb.case;
transform = "{1, 0, 0, 1, 284, 0}";
}
);
layerId = UUID0;
width = 592;
},
{
background = {
anchors = (
{
name = bottom;
position = "{330, 0}";
},
{
name = mark0;
position = "{351, -83}";
},
{
name = ogonek;
position = "{594, 10}";
},
{
name = top;
position = "{341, 981}";
},
{
name = topleft;
position = "{20, 743}";
}
);
paths = (
{
closed = 1;
nodes = (
"29 74 LINE",
"29 0 LINE",
"634 0 LINE",
"655 195 LINE",
"557 222 LINE",
"493 91 LINE",
"305 76 LINE",
"305 334 LINE",
"406 332 LINE",
"424 244 LINE",
"500 244 LINE",
"500 505 LINE",
"424 505 LINE",
"405 424 LINE",
"305 421 LINE",
"305 670 LINE",
"477 658 LINE",
"514 556 LINE",
"604 556 LINE",
"591 743 LINE",
"26 743 LINE",
"26 664 LINE",
"102 649 LINE",
"102 85 LINE"
);
},
{
closed = 1;
nodes = (
"471 789 OFFCURVE",
"540 871 OFFCURVE",
"540 959 CURVE SMOOTH",
"540 967 OFFCURVE",
"540 974 OFFCURVE",
"539 981 CURVE",
"446 981 LINE",
"446 979 OFFCURVE",
"446 975 OFFCURVE",
"445 971 CURVE SMOOTH",
"438 944 OFFCURVE",
"420 902 OFFCURVE",
"341 902 CURVE SMOOTH",
"261 902 OFFCURVE",
"242 945 OFFCURVE",
"235 971 CURVE SMOOTH",
"234 975 OFFCURVE",
"234 979 OFFCURVE",
"234 981 CURVE",
"143 981 LINE",
"142 974 OFFCURVE",
"142 966 OFFCURVE",
"142 958 CURVE SMOOTH",
"142 870 OFFCURVE",
"205 789 OFFCURVE",
"340 789 CURVE SMOOTH"
);
}
);
};
components = (
{
name = E;
},
{
name = brevecomb.case;
transform = "{1, 0, 0, 1, 317, 0}";
}
);
layerId = "809C3DC2-6073-4494-AA7C-C910FAB1DD5E";
width = 662;
}
);
leftKerningGroup = H;
rightKerningGroup = E;
unicode = 0114;
},
{
color = 4;
glyphname = Ecaron;
lastChange = "2019-02-05 19:05:58 +0000";
layers = (
{
background = {
anchors = (
{
name = bottom;
position = "{325, 0}";
},
{
name = mark0;
position = "{341, -83}";
},
{
name = ogonek;
position = "{584, 10}";
},
{
name = top;
position = "{341, 982}";
},
{
name = topleft;
position = "{20, 743}";
}
);
paths = (
{
closed = 1;
nodes = (
"50 43 LINE",
"50 0 LINE",
"592 0 LINE",
"623 169 LINE",
"575 184 LINE",
"524 59 LINE",
"218 51 LINE",
"218 359 LINE",
"402 356 LINE",
"415 271 LINE",
"465 271 LINE",
"465 492 LINE",
"415 492 LINE",
"402 409 LINE",
"218 406 LINE",
"218 697 LINE",
"486 692 LINE",
"513 596 LINE",
"561 596 LINE",
"547 743 LINE",
"52 743 LINE",
"52 700 LINE",
"136 689 LINE",
"136 52 LINE"
);
},
{
closed = 1;
nodes = (
"183 960 LINE",
"304 826 LINE",
"380 826 LINE",
"499 961 LINE",
"466 982 LINE",
"342 882 LINE",
"219 982 LINE"
);
}
);
};
components = (
{
name = E;
},
{
name = caroncomb.case;
transform = "{1, 0, 0, 1, 284, 0}";
}
);
layerId = UUID0;
width = 592;
},
{
background = {
anchors = (
{
name = bottom;
position = "{330, 0}";
},
{
name = mark0;
position = "{351, -83}";
},
{
name = ogonek;
position = "{594, 10}";
},
{
name = top;
position = "{341, 983}";
},
{
name = topleft;
position = "{20, 743}";
}
);
paths = (
{
closed = 1;
nodes = (
"29 74 LINE",
"29 0 LINE",
"634 0 LINE",
"655 195 LINE",
"557 222 LINE",
"493 91 LINE",
"305 76 LINE",
"305 334 LINE",
"406 332 LINE",
"424 244 LINE",
"500 244 LINE",
"500 505 LINE",
"424 505 LINE",
"405 424 LINE",
"305 421 LINE",
"305 670 LINE",
"477 658 LINE",
"514 556 LINE",
"604 556 LINE",
"591 743 LINE",
"26 743 LINE",
"26 664 LINE",
"102 649 LINE",
"102 85 LINE"
);
},
{
closed = 1;
nodes = (
"142 931 LINE",
"291 789 LINE",
"393 789 LINE",
"540 930 LINE",
"479 983 LINE",
"342 898 LINE",
"204 983 LINE"
);
}
);
};
components = (
{
name = E;
},
{
name = caroncomb.case;
transform = "{1, 0, 0, 1, 318, 0}";
}
);
layerId = "809C3DC2-6073-4494-AA7C-C910FAB1DD5E";
width = 662;
}
);
leftKerningGroup = H;
rightKerningGroup = E;
unicode = 011A;
},
{
color = 4;
glyphname = Ecedilla;
lastChange = "2019-02-05 19:05:58 +0000";
layers = (
{
anchors = (
{
name = top;
position = "{356, 743}";
},
{
name = topleft;
position = "{84, 743}";
}
);
background = {
anchors = (
{
name = _bottom;
position = "{325, 0}";
},
{
name = bottom;
position = "{325, 0}";
},
{
name = mark0;
position = "{341, -83}";
},
{
name = ogonek;
position = "{584, 10}";
},
{
name = top;
position = "{331, 743}";
},
{
name = topleft;
position = "{20, 743}";
}
);
paths = (
{
closed = 1;
nodes = (
"361 -235 OFFCURVE",
"405 -211 OFFCURVE",
"408 -143 CURVE SMOOTH",
"411 -80 OFFCURVE",
"366 -19 OFFCURVE",
"345 0 CURVE",
"592 0 LINE",
"623 169 LINE",
"575 184 LINE",
"524 59 LINE",
"218 51 LINE",
"218 359 LINE",
"402 356 LINE",
"415 271 LINE",
"465 271 LINE",
"465 492 LINE",
"415 492 LINE",
"402 409 LINE",
"218 406 LINE",
"218 697 LINE",
"486 692 LINE",
"513 596 LINE",
"561 596 LINE",
"547 743 LINE",
"52 743 LINE",
"52 700 LINE",
"136 689 LINE",
"136 52 LINE",
"50 43 LINE",
"50 0 LINE",
"304 0 LINE",
"313 -13 OFFCURVE",
"338 -58 OFFCURVE",
"338 -100 CURVE SMOOTH",
"338 -161 OFFCURVE",
"311 -171 OFFCURVE",
"262 -171 CURVE SMOOTH",
"252 -171 OFFCURVE",
"230 -168 OFFCURVE",
"216 -163 CURVE",
"215 -222 LINE",
"233 -229 OFFCURVE",
"263 -235 OFFCURVE",
"286 -235 CURVE SMOOTH"
);
}
);
};
components = (
{
name = E;
},
{
name = cedillacomb.case;
transform = "{1, 0, 0, 1, 314, 0}";
}
);
layerId = UUID0;
width = 592;
},
{
anchors = (
{
name = top;
position = "{374, 743}";
},
{
name = topleft;
position = "{84, 743}";
}
);
background = {
anchors = (
{
name = _bottom;
position = "{330, 0}";
},
{
name = bottom;
position = "{330, 0}";
},
{
name = mark0;
position = "{351, -83}";
},
{
name = ogonek;
position = "{594, 10}";
},
{
name = top;
position = "{333, 743}";
},
{
name = topleft;
position = "{20, 743}";
}
);
paths = (
{
closed = 1;
nodes = (
"384 -264 OFFCURVE",
"440 -237 OFFCURVE",
"445 -145 CURVE SMOOTH",
"448.752 -79.341 OFFCURVE",
"401.474 -22.479 OFFCURVE",
"377.44 0 CURVE",
"634 0 LINE",
"655 195 LINE",
"557 222 LINE",
"493 91 LINE",
"305 76 LINE",
"305 334 LINE",
"406 332 LINE",
"424 244 LINE",
"500 244 LINE",
"500 505 LINE",
"424 505 LINE",
"405 424 LINE",
"305 421 LINE",
"305 670 LINE",
"477 658 LINE",
"514 556 LINE",
"604 556 LINE",
"591 743 LINE",
"26 743 LINE",
"26 664 LINE",
"102 649 LINE",
"102 85 LINE",
"29 74 LINE",
"29 0 LINE",
"292.938 0 LINE",
"304.352 -16.46 OFFCURVE",
"322 -51.831 OFFCURVE",
"322 -83 CURVE SMOOTH",
"322 -145 OFFCURVE",
"299 -151 OFFCURVE",
"255 -151 CURVE SMOOTH",
"248 -151 OFFCURVE",
"229 -149 OFFCURVE",
"215 -145 CURVE",
"215 -249 LINE",
"232 -257 OFFCURVE",
"263 -264 OFFCURVE",
"286 -264 CURVE SMOOTH"
);
}
);
};
components = (
{
name = E;
},
{
name = cedillacomb.case;
transform = "{1, 0, 0, 1, 337, 0}";
}
);
layerId = "809C3DC2-6073-4494-AA7C-C910FAB1DD5E";
width = 662;
}
);
leftKerningGroup = H;
rightKerningGroup = E;
unicode = 0228;
},
{
color = 4;
glyphname = Ecircumflex;
lastChange = "2019-02-05 19:05:58 +0000";
layers = (
{
background = {
anchors = (
{
name = bottom;
position = "{325, 0}";
},
{
name = mark0;
position = "{341, -83}";
},
{
name = ogonek;
position = "{584, 10}";
},
{
name = top;
position = "{341, 983}";
},
{
name = topleft;
position = "{20, 743}";
}
);
paths = (
{
closed = 1;
nodes = (
"50 43 LINE",
"50 0 LINE",
"592 0 LINE",
"623 169 LINE",
"575 184 LINE",
"524 59 LINE",
"218 51 LINE",
"218 359 LINE",
"402 356 LINE",
"415 271 LINE",
"465 271 LINE",
"465 492 LINE",
"415 492 LINE",
"402 409 LINE",
"218 406 LINE",
"218 697 LINE",
"486 692 LINE",
"513 596 LINE",
"561 596 LINE",
"547 743 LINE",
"52 743 LINE",
"52 700 LINE",
"136 689 LINE",
"136 52 LINE"
);
},
{
closed = 1;
nodes = (
"176 838 LINE",
"209 817 LINE",
"342 923 LINE",
"472 817 LINE",
"508 839 LINE",
"379 983 LINE",
"304 983 LINE"
);
}
);
};
components = (
{
name = E;
},
{
name = circumflexcomb.case;
transform = "{1, 0, 0, 1, 284, 0}";
}
);
layerId = UUID0;
width = 592;
},
{
background = {
anchors = (
{
name = bottom;
position = "{330, 0}";
},
{
name = mark0;
position = "{351, -83}";
},
{
name = ogonek;
position = "{594, 10}";
},
{
name = top;
position = "{341, 979}";
},
{
name = topleft;
position = "{20, 743}";
}
);
paths = (
{
closed = 1;
nodes = (
"29 74 LINE",
"29 0 LINE",
"634 0 LINE",
"655 195 LINE",
"557 222 LINE",
"493 91 LINE",
"305 76 LINE",
"305 334 LINE",
"406 332 LINE",
"424 244 LINE",
"500 244 LINE",
"500 505 LINE",
"424 505 LINE",
"405 424 LINE",
"305 421 LINE",
"305 670 LINE",
"477 658 LINE",
"514 556 LINE",
"604 556 LINE",
"591 743 LINE",
"26 743 LINE",
"26 664 LINE",
"102 649 LINE",
"102 85 LINE"
);
},
{
closed = 1;
nodes = (
"133 832 LINE",
"194 779 LINE",
"342 870 LINE",
"490 779 LINE",
"551 833 LINE",
"394 979 LINE",
"292 979 LINE"
);
}
);
};
components = (
{
name = E;
},
{
name = circumflexcomb.case;
transform = "{1, 0, 0, 1, 318, 0}";
}
);
layerId = "809C3DC2-6073-4494-AA7C-C910FAB1DD5E";
width = 662;
}
);
leftKerningGroup = H;
rightKerningGroup = E;
unicode = 00CA;
},
{
color = 4;
glyphname = Ecircumflexacute;
lastChange = "2019-02-05 19:05:58 +0000";
layers = (
{
background = {
anchors = (
{
name = bottom;
position = "{325, 0}";
},
{
name = mark0;
position = "{341, -83}";
},
{
name = ogonek;
position = "{584, 10}";
},
{
name = top;
position = "{341, 983}";
},
{
name = topleft;
position = "{20, 743}";
}
);
paths = (
{
closed = 1;
nodes = (
"50 43 LINE",
"50 0 LINE",
"592 0 LINE",
"623 169 LINE",
"575 184 LINE",
"524 59 LINE",
"218 51 LINE",
"218 359 LINE",
"402 356 LINE",
"415 271 LINE",
"465 271 LINE",
"465 492 LINE",
"415 492 LINE",
"402 409 LINE",
"218 406 LINE",
"218 697 LINE",
"486 692 LINE",
"513 596 LINE",
"561 596 LINE",
"547 743 LINE",
"52 743 LINE",
"52 700 LINE",
"136 689 LINE",
"136 52 LINE"
);
},
{
closed = 1;
nodes = (
"588 877 OFFCURVE",
"627 911 OFFCURVE",
"647 940 CURVE",
"594 983 LINE",
"499 881 LINE",
"535 847 LINE"
);
},
{
closed = 1;
nodes = (
"183 815 LINE",
"216 783 LINE",
"341 878 LINE",
"466 783 LINE",
"498 815 LINE",
"381 941 LINE",
"301 941 LINE"
);
}
);
};
components = (
{
name = E;
},
{
name = circumflexcomb_acutecomb.case;
transform = "{1, 0, 0, 1, 284, 0}";
}
);
layerId = UUID0;
width = 592;
},
{
background = {
anchors = (
{
name = bottom;
position = "{330, 0}";
},
{
name = mark0;
position = "{351, -83}";
},
{
name = ogonek;
position = "{594, 10}";
},
{
name = top;
position = "{341, 979}";
},
{
name = topleft;
position = "{20, 743}";
}
);
paths = (
{
closed = 1;
nodes = (
"29 74 LINE",
"29 0 LINE",
"634 0 LINE",
"655 195 LINE",
"557 222 LINE",
"493 91 LINE",
"305 76 LINE",
"305 334 LINE",
"406 332 LINE",
"424 244 LINE",
"500 244 LINE",
"500 505 LINE",
"424 505 LINE",
"405 424 LINE",
"305 421 LINE",
"305 670 LINE",
"477 658 LINE",
"514 556 LINE",
"604 556 LINE",
"591 743 LINE",
"26 743 LINE",
"26 664 LINE",
"102 649 LINE",
"102 85 LINE"
);
},
{
closed = 1;
nodes = (
"153 812 LINE",
"200 766 LINE",
"341 870 LINE",
"480 767 LINE",
"528 812 LINE",
"391 970 LINE",
"291 970 LINE"
);
},
{
closed = 1;
nodes = (
"612 857 OFFCURVE",
"653 892 OFFCURVE",
"673 921 CURVE",
"599 983 LINE",
"508 881 LINE",
"559 830 LINE"
);
}
);
};
components = (
{
name = E;
},
{
name = circumflexcomb_acutecomb.case;
transform = "{1, 0, 0, 1, 317, 0}";
}
);
layerId = "809C3DC2-6073-4494-AA7C-C910FAB1DD5E";
width = 662;
}
);
leftKerningGroup = H;
rightKerningGroup = E;
unicode = 1EBE;
},
{
color = 4;
glyphname = Ecircumflexdotbelow;
lastChange = "2019-02-05 19:05:58 +0000";
layers = (
{
background = {
anchors = (
{
name = bottom;
position = "{325, -173}";
},
{
name = mark0;
position = "{341, -83}";
},
{
name = ogonek;
position = "{584, 10}";
},
{
name = top;
position = "{341, 983}";
},
{
name = topleft;
position = "{20, 743}";
}
);
paths = (
{
closed = 1;
nodes = (
"50 43 LINE",
"50 0 LINE",
"592 0 LINE",
"623 169 LINE",
"575 184 LINE",
"524 59 LINE",
"218 51 LINE",
"218 359 LINE",
"402 356 LINE",
"415 271 LINE",
"465 271 LINE",
"465 492 LINE",
"415 492 LINE",
"402 409 LINE",
"218 406 LINE",
"218 697 LINE",
"486 692 LINE",
"513 596 LINE",
"561 596 LINE",
"547 743 LINE",
"52 743 LINE",
"52 700 LINE",
"136 689 LINE",
"136 52 LINE"
);
},
{
closed = 1;
nodes = (
"320 -196 LINE",
"363 -196 OFFCURVE",
"383 -165 OFFCURVE",
"383 -126 CURVE SMOOTH",
"383 -97 OFFCURVE",
"364 -66 OFFCURVE",
"328 -66 CURVE SMOOTH",
"286 -66 OFFCURVE",
"265 -101 OFFCURVE",
"265 -136 CURVE SMOOTH",
"265 -169 OFFCURVE",
"286 -196 OFFCURVE",
"318 -196 CURVE"
);
},
{
closed = 1;
nodes = (
"176 838 LINE",
"209 817 LINE",
"342 923 LINE",
"472 817 LINE",
"508 839 LINE",
"379 983 LINE",
"304 983 LINE"
);
}
);
};
components = (
{
name = E;
},
{
name = dotbelowcomb.case;
transform = "{1, 0, 0, 1, 278, 0}";
},
{
name = circumflexcomb.case;
transform = "{1, 0, 0, 1, 284, 0}";
}
);
layerId = UUID0;
width = 592;
},
{
background = {
anchors = (
{
name = bottom;
position = "{330, -194}";
},
{
name = mark0;
position = "{351, -83}";
},
{
name = ogonek;
position = "{594, 10}";
},
{
name = top;
position = "{341, 979}";
},
{
name = topleft;
position = "{20, 743}";
}
);
paths = (
{
closed = 1;
nodes = (
"29 74 LINE",
"29 0 LINE",
"634 0 LINE",
"655 195 LINE",
"557 222 LINE",
"493 91 LINE",
"305 76 LINE",
"305 334 LINE",
"406 332 LINE",
"424 244 LINE",
"500 244 LINE",
"500 505 LINE",
"424 505 LINE",
"405 424 LINE",
"305 421 LINE",
"305 670 LINE",
"477 658 LINE",
"514 556 LINE",
"604 556 LINE",
"591 743 LINE",
"26 743 LINE",
"26 664 LINE",
"102 649 LINE",
"102 85 LINE"
);
},
{
closed = 1;
nodes = (
"323 -234 LINE",
"393 -234 OFFCURVE",
"428 -191 OFFCURVE",
"428 -136 CURVE SMOOTH",
"428 -89 OFFCURVE",
"396 -52 OFFCURVE",
"334 -52 CURVE SMOOTH",
"270 -52 OFFCURVE",
"233 -95 OFFCURVE",
"233 -151 CURVE SMOOTH",
"233 -198 OFFCURVE",
"270 -234 OFFCURVE",
"323 -234 CURVE"
);
},
{
closed = 1;
nodes = (
"133 832 LINE",
"194 779 LINE",
"342 870 LINE",
"490 779 LINE",
"551 833 LINE",
"394 979 LINE",
"292 979 LINE"
);
}
);
};
components = (
{
name = E;
},
{
name = dotbelowcomb.case;
transform = "{1, 0, 0, 1, 300, 0}";
},
{
name = circumflexcomb.case;
transform = "{1, 0, 0, 1, 318, 0}";
}
);
layerId = "809C3DC2-6073-4494-AA7C-C910FAB1DD5E";
width = 662;
}
);
leftKerningGroup = H;
rightKerningGroup = E;
unicode = 1EC6;
},
{
color = 4;
glyphname = Ecircumflexgrave;
lastChange = "2019-02-05 19:05:58 +0000";
layers = (
{
background = {
anchors = (
{
name = bottom;
position = "{325, 0}";
},
{
name = mark0;
position = "{341, -83}";
},
{
name = ogonek;
position = "{584, 10}";
},
{
name = top;
position = "{341, 983}";
},
{
name = topleft;
position = "{20, 743}";
}
);
paths = (
{
closed = 1;
nodes = (
"50 43 LINE",
"50 0 LINE",
"592 0 LINE",
"623 169 LINE",
"575 184 LINE",
"524 59 LINE",
"218 51 LINE",
"218 359 LINE",
"402 356 LINE",
"415 271 LINE",
"465 271 LINE",
"465 492 LINE",
"415 492 LINE",
"402 409 LINE",
"218 406 LINE",
"218 697 LINE",
"486 692 LINE",
"513 596 LINE",
"561 596 LINE",
"547 743 LINE",
"52 743 LINE",
"52 700 LINE",
"136 689 LINE",
"136 52 LINE"
);
},
{
closed = 1;
nodes = (
"183 815 LINE",
"216 783 LINE",
"341 878 LINE",
"466 783 LINE",
"498 815 LINE",
"381 941 LINE",
"301 941 LINE"
);
},
{
closed = 1;
nodes = (
"637 881 LINE",
"542 983 LINE",
"489 940 LINE",
"509 911 OFFCURVE",
"548 877 OFFCURVE",
"601 847 CURVE"
);
}
);
};
components = (
{
name = E;
},
{
name = circumflexcomb_gravecomb.case;
transform = "{1, 0, 0, 1, 283, 0}";
}
);
layerId = UUID0;
width = 592;
},
{
background = {
anchors = (
{
name = bottom;
position = "{330, 0}";
},
{
name = mark0;
position = "{351, -83}";
},
{
name = ogonek;
position = "{594, 10}";
},
{
name = top;
position = "{341, 979}";
},
{
name = topleft;
position = "{20, 743}";
}
);
paths = (
{
closed = 1;
nodes = (
"29 74 LINE",
"29 0 LINE",
"634 0 LINE",
"655 195 LINE",
"557 222 LINE",
"493 91 LINE",
"305 76 LINE",
"305 334 LINE",
"406 332 LINE",
"424 244 LINE",
"500 244 LINE",
"500 505 LINE",
"424 505 LINE",
"405 424 LINE",
"305 421 LINE",
"305 670 LINE",
"477 658 LINE",
"514 556 LINE",
"604 556 LINE",
"591 743 LINE",
"26 743 LINE",
"26 664 LINE",
"102 649 LINE",
"102 85 LINE"
);
},
{
closed = 1;
nodes = (
"153 805 LINE",
"200 759 LINE",
"341 846 LINE",
"480 760 LINE",
"528 805 LINE",
"391 941 LINE",
"291 941 LINE"
);
},
{
closed = 1;
nodes = (
"658 881 LINE",
"563 983 LINE",
"491 922 LINE",
"511 893 OFFCURVE",
"550 859 OFFCURVE",
"603 829 CURVE"
);
}
);
};
components = (
{
name = E;
},
{
name = circumflexcomb_gravecomb.case;
transform = "{1, 0, 0, 1, 316, 0}";
}
);
layerId = "809C3DC2-6073-4494-AA7C-C910FAB1DD5E";
width = 662;
}
);
leftKerningGroup = H;
rightKerningGroup = E;
unicode = 1EC0;
},
{
color = 4;
glyphname = Ecircumflexhookabove;
lastChange = "2019-02-05 19:05:58 +0000";
layers = (
{
background = {
anchors = (
{
name = bottom;
position = "{325, 0}";
},
{
name = mark0;
position = "{341, -83}";
},
{
name = ogonek;
position = "{584, 10}";
},
{
name = top;
position = "{341, 983}";
},
{
name = topleft;
position = "{20, 743}";
}
);
paths = (
{
closed = 1;
nodes = (
"50 43 LINE",
"50 0 LINE",
"592 0 LINE",
"623 169 LINE",
"575 184 LINE",
"524 59 LINE",
"218 51 LINE",
"218 359 LINE",
"402 356 LINE",
"415 271 LINE",
"465 271 LINE",
"465 492 LINE",
"415 492 LINE",
"402 409 LINE",
"218 406 LINE",
"218 697 LINE",
"486 692 LINE",
"513 596 LINE",
"561 596 LINE",
"547 743 LINE",
"52 743 LINE",
"52 700 LINE",
"136 689 LINE",
"136 52 LINE"
);
},
{
closed = 1;
nodes = (
"183 815 LINE",
"216 783 LINE",
"341 878 LINE",
"466 783 LINE",
"498 815 LINE",
"381 941 LINE",
"301 941 LINE"
);
},
{
closed = 1;
nodes = (
"570 785 LINE",
"566 800 OFFCURVE",
"570 809 OFFCURVE",
"577 816 CURVE SMOOTH",
"601 840 OFFCURVE",
"647 851 OFFCURVE",
"647 899 CURVE SMOOTH",
"647 957 OFFCURVE",
"606 983 OFFCURVE",
"542 983 CURVE SMOOTH",
"531 983 OFFCURVE",
"504 980 OFFCURVE",
"501 976 CURVE",
"504 926 LINE",
"508 929 OFFCURVE",
"533 936 OFFCURVE",
"542 935 CURVE SMOOTH",
"579 931 OFFCURVE",
"587 905 OFFCURVE",
"587 890 CURVE SMOOTH",
"587 851 OFFCURVE",
"526 858 OFFCURVE",
"526 816 CURVE",
"526 804 OFFCURVE",
"535 789 OFFCURVE",
"542 779 CURVE"
);
}
);
};
components = (
{
name = E;
},
{
name = circumflexcomb_hookabovecomb.case;
transform = "{1, 0, 0, 1, 283, 0}";
}
);
layerId = UUID0;
width = 592;
},
{
background = {
anchors = (
{
name = bottom;
position = "{330, 0}";
},
{
name = mark0;
position = "{351, -83}";
},
{
name = ogonek;
position = "{594, 10}";
},
{
name = top;
position = "{341, 979}";
},
{
name = topleft;
position = "{20, 743}";
}
);
paths = (
{
closed = 1;
nodes = (
"29 74 LINE",
"29 0 LINE",
"634 0 LINE",
"655 195 LINE",
"557 222 LINE",
"493 91 LINE",
"305 76 LINE",
"305 334 LINE",
"406 332 LINE",
"424 244 LINE",
"500 244 LINE",
"500 505 LINE",
"424 505 LINE",
"405 424 LINE",
"305 421 LINE",
"305 670 LINE",
"477 658 LINE",
"514 556 LINE",
"604 556 LINE",
"591 743 LINE",
"26 743 LINE",
"26 664 LINE",
"102 649 LINE",
"102 85 LINE"
);
},
{
closed = 1;
nodes = (
"153 805 LINE",
"200 759 LINE",
"341 846 LINE",
"480 760 LINE",
"528 805 LINE",
"391 941 LINE",
"291 941 LINE"
);
},
{
closed = 1;
nodes = (
"627 791 LINE",
"623 806 OFFCURVE",
"627 815 OFFCURVE",
"634 822 CURVE SMOOTH",
"658 846 OFFCURVE",
"681 860 OFFCURVE",
"681 908 CURVE SMOOTH",
"681 966 OFFCURVE",
"636 983 OFFCURVE",
"572 983 CURVE SMOOTH",
"561 983 OFFCURVE",
"514 980 OFFCURVE",
"511 976 CURVE",
"514 906 LINE",
"531 914 OFFCURVE",
"544 916 OFFCURVE",
"561 916 CURVE SMOOTH",
"586 916 OFFCURVE",
"597 906 OFFCURVE",
"597 890 CURVE SMOOTH",
"597 854 OFFCURVE",
"556 851 OFFCURVE",
"556 816 CURVE",
"556 804 OFFCURVE",
"561 795 OFFCURVE",
"572 779 CURVE"
);
}
);
};
components = (
{
name = E;
},
{
name = circumflexcomb_hookabovecomb.case;
transform = "{1, 0, 0, 1, 316, 0}";
}
);
layerId = "809C3DC2-6073-4494-AA7C-C910FAB1DD5E";
width = 662;
}
);
leftKerningGroup = H;
rightKerningGroup = E;
unicode = 1EC2;
},
{
color = 4;
glyphname = Ecircumflextilde;
lastChange = "2019-02-05 19:05:58 +0000";
layers = (
{
background = {
anchors = (
{
name = bottom;
position = "{325, 0}";
},
{
name = mark0;
position = "{341, -83}";
},
{
name = ogonek;
position = "{584, 10}";
},
{
name = top;
position = "{341, 983}";
},
{
name = topleft;
position = "{20, 743}";
}
);
paths = (
{
closed = 1;
nodes = (
"50 43 LINE",
"50 0 LINE",
"592 0 LINE",
"623 169 LINE",
"575 184 LINE",
"524 59 LINE",
"218 51 LINE",
"218 359 LINE",
"402 356 LINE",
"415 271 LINE",
"465 271 LINE",
"465 492 LINE",
"415 492 LINE",
"402 409 LINE",
"218 406 LINE",
"218 697 LINE",
"486 692 LINE",
"513 596 LINE",
"561 596 LINE",
"547 743 LINE",
"52 743 LINE",
"52 700 LINE",
"136 689 LINE",
"136 52 LINE"
);
},
{
closed = 1;
nodes = (
"161 796 LINE",
"193 759 LINE",
"341 829 LINE",
"486 760 LINE",
"521 796 LINE",
"379 888 LINE",
"301 888 LINE"
);
},
{
closed = 1;
nodes = (
"208 878 LINE",
"223 898 OFFCURVE",
"240 919 OFFCURVE",
"266 919 CURVE SMOOTH",
"308 919 OFFCURVE",
"350 861 OFFCURVE",
"399 861 CURVE SMOOTH",
"447 861 OFFCURVE",
"489 891 OFFCURVE",
"497 935 CURVE",
"463 959 LINE",
"447 937 OFFCURVE",
"436 921 OFFCURVE",
"402 921 CURVE SMOOTH",
"361 921 OFFCURVE",
"327 983 OFFCURVE",
"269 983 CURVE SMOOTH",
"210 983 OFFCURVE",
"176 935 OFFCURVE",
"175 901 CURVE"
);
}
);
};
components = (
{
name = E;
},
{
name = circumflexcomb_tildecomb.case;
transform = "{1, 0, 0, 1, 283, 0}";
}
);
layerId = UUID0;
width = 592;
},
{
background = {
anchors = (
{
name = bottom;
position = "{330, 0}";
},
{
name = mark0;
position = "{351, -83}";
},
{
name = ogonek;
position = "{594, 10}";
},
{
name = top;
position = "{341, 979}";
},
{
name = topleft;
position = "{20, 743}";
}
);
paths = (
{
closed = 1;
nodes = (
"29 74 LINE",
"29 0 LINE",
"634 0 LINE",
"655 195 LINE",
"557 222 LINE",
"493 91 LINE",
"305 76 LINE",
"305 334 LINE",
"406 332 LINE",
"424 244 LINE",
"500 244 LINE",
"500 505 LINE",
"424 505 LINE",
"405 424 LINE",
"305 421 LINE",
"305 670 LINE",
"477 658 LINE",
"514 556 LINE",
"604 556 LINE",
"591 743 LINE",
"26 743 LINE",
"26 664 LINE",
"102 649 LINE",
"102 85 LINE"
);
},
{
closed = 1;
nodes = (
"161 796 LINE",
"193 750 LINE",
"341 809 LINE",
"486 751 LINE",
"521 796 LINE",
"391 888 LINE",
"291 888 LINE"
);
},
{
closed = 1;
nodes = (
"208 871 LINE",
"223 891 OFFCURVE",
"239 910 OFFCURVE",
"261 910 CURVE SMOOTH",
"303 910 OFFCURVE",
"334 854 OFFCURVE",
"393 854 CURVE SMOOTH",
"456 854 OFFCURVE",
"489 896 OFFCURVE",
"497 940 CURVE",
"463 964 LINE",
"447 942 OFFCURVE",
"440 929 OFFCURVE",
"406 929 CURVE SMOOTH",
"365 929 OFFCURVE",
"327 983 OFFCURVE",
"269 983 CURVE SMOOTH",
"210 983 OFFCURVE",
"176 928 OFFCURVE",
"175 894 CURVE"
);
}
);
};
components = (
{
name = E;
},
{
name = circumflexcomb_tildecomb.case;
transform = "{1, 0, 0, 1, 316, 0}";
}
);
layerId = "809C3DC2-6073-4494-AA7C-C910FAB1DD5E";
width = 662;
}
);
leftKerningGroup = H;
rightKerningGroup = E;
unicode = 1EC4;
},
{
color = 4;
glyphname = Edieresis;
lastChange = "2019-02-05 19:05:58 +0000";
layers = (
{
background = {
anchors = (
{
name = bottom;
position = "{325, 0}";
},
{
name = mark0;
position = "{341, -83}";
},
{
name = ogonek;
position = "{584, 10}";
},
{
name = top;
position = "{341, 903}";
},
{
name = topleft;
position = "{20, 743}";
}
);
paths = (
{
closed = 1;
nodes = (
"50 43 LINE",
"50 0 LINE",
"592 0 LINE",
"623 169 LINE",
"575 184 LINE",
"524 59 LINE",
"218 51 LINE",
"218 359 LINE",
"402 356 LINE",
"415 271 LINE",
"465 271 LINE",
"465 492 LINE",
"415 492 LINE",
"402 409 LINE",
"218 406 LINE",
"218 697 LINE",
"486 692 LINE",
"513 596 LINE",
"561 596 LINE",
"547 743 LINE",
"52 743 LINE",
"52 700 LINE",
"136 689 LINE",
"136 52 LINE"
);
},
{
closed = 1;
nodes = (
"217 826 LINE",
"258 826 OFFCURVE",
"278 856 OFFCURVE",
"278 891 CURVE SMOOTH",
"278 920 OFFCURVE",
"258 950 OFFCURVE",
"225 950 CURVE",
"224 950 LINE",
"185 950 OFFCURVE",
"166 917 OFFCURVE",
"166 883 CURVE SMOOTH",
"166 852 OFFCURVE",
"185 826 OFFCURVE",
"216 826 CURVE"
);
},
{
closed = 1;
nodes = (
"495 826 OFFCURVE",
"515 856 OFFCURVE",
"515 891 CURVE SMOOTH",
"515 920 OFFCURVE",
"497 950 OFFCURVE",
"463 950 CURVE",
"462 950 LINE",
"423 950 OFFCURVE",
"404 917 OFFCURVE",
"404 883 CURVE SMOOTH",
"404 852 OFFCURVE",
"423 826 OFFCURVE",
"454 826 CURVE SMOOTH"
);
}
);
};
components = (
{
name = E;
},
{
name = dieresiscomb.case;
transform = "{1, 0, 0, 1, 285, 0}";
}
);
layerId = UUID0;
width = 592;
},
{
background = {
anchors = (
{
name = bottom;
position = "{330, 0}";
},
{
name = mark0;
position = "{351, -83}";
},
{
name = ogonek;
position = "{594, 10}";
},
{
name = top;
position = "{341, 938}";
},
{
name = topleft;
position = "{20, 743}";
}
);
paths = (
{
closed = 1;
nodes = (
"29 74 LINE",
"29 0 LINE",
"634 0 LINE",
"655 195 LINE",
"557 222 LINE",
"493 91 LINE",
"305 76 LINE",
"305 334 LINE",
"406 332 LINE",
"424 244 LINE",
"500 244 LINE",
"500 505 LINE",
"424 505 LINE",
"405 424 LINE",
"305 421 LINE",
"305 670 LINE",
"477 658 LINE",
"514 556 LINE",
"604 556 LINE",
"591 743 LINE",
"26 743 LINE",
"26 664 LINE",
"102 649 LINE",
"102 85 LINE"
);
},
{
closed = 1;
nodes = (
"194 794 LINE",
"268 794 OFFCURVE",
"297 838 OFFCURVE",
"297 894 CURVE SMOOTH",
"297 938 OFFCURVE",
"273 977 OFFCURVE",
"211 977 CURVE",
"210 977 LINE",
"144 977 OFFCURVE",
"117 934 OFFCURVE",
"117 878 CURVE SMOOTH",
"117 833 OFFCURVE",
"147 794 OFFCURVE",
"193 794 CURVE"
);
},
{
closed = 1;
nodes = (
"537 794 OFFCURVE",
"565 838 OFFCURVE",
"565 894 CURVE SMOOTH",
"565 938 OFFCURVE",
"542 977 OFFCURVE",
"479 977 CURVE",
"478 977 LINE",
"412 977 OFFCURVE",
"386 934 OFFCURVE",
"386 878 CURVE SMOOTH",
"386 839 OFFCURVE",
"415 794 OFFCURVE",
"462 794 CURVE SMOOTH"
);
}
);
};
components = (
{
name = E;
},
{
name = dieresiscomb.case;
transform = "{1, 0, 0, 1, 318, 0}";
}
);
layerId = "809C3DC2-6073-4494-AA7C-C910FAB1DD5E";
width = 662;
}
);
leftKerningGroup = H;
rightKerningGroup = E;
unicode = 00CB;
},
{
color = 4;
glyphname = Edotaccent;
lastChange = "2019-02-05 19:05:58 +0000";
layers = (
{
background = {
anchors = (
{
name = bottom;
position = "{325, 0}";
},
{
name = mark0;
position = "{341, -83}";
},
{
name = ogonek;
position = "{584, 10}";
},
{
name = top;
position = "{341, 959}";
},
{
name = topleft;
position = "{20, 743}";
}
);
paths = (
{
closed = 1;
nodes = (
"50 43 LINE",
"50 0 LINE",
"592 0 LINE",
"623 169 LINE",
"575 184 LINE",
"524 59 LINE",
"218 51 LINE",
"218 359 LINE",
"402 356 LINE",
"415 271 LINE",
"465 271 LINE",
"465 492 LINE",
"415 492 LINE",
"402 409 LINE",
"218 406 LINE",
"218 697 LINE",
"486 692 LINE",
"513 596 LINE",
"561 596 LINE",
"547 743 LINE",
"52 743 LINE",
"52 700 LINE",
"136 689 LINE",
"136 52 LINE"
);
},
{
closed = 1;
nodes = (
"377 836 OFFCURVE",
"397 866 OFFCURVE",
"397 901 CURVE SMOOTH",
"397 930 OFFCURVE",
"378 959 OFFCURVE",
"344 959 CURVE SMOOTH",
"304 959 OFFCURVE",
"285 927 OFFCURVE",
"285 893 CURVE SMOOTH",
"285 861 OFFCURVE",
"304 836 OFFCURVE",
"336 836 CURVE SMOOTH"
);
}
);
};
components = (
{
name = E;
},
{
name = dotaccentcomb.case;
transform = "{1, 0, 0, 1, 284, 0}";
}
);
layerId = UUID0;
width = 592;
},
{
background = {
anchors = (
{
name = bottom;
position = "{330, 0}";
},
{
name = mark0;
position = "{351, -83}";
},
{
name = ogonek;
position = "{594, 10}";
},
{
name = top;
position = "{341, 977}";
},
{
name = topleft;
position = "{20, 743}";
}
);
paths = (
{
closed = 1;
nodes = (
"29 74 LINE",
"29 0 LINE",
"634 0 LINE",
"655 195 LINE",
"557 222 LINE",
"493 91 LINE",
"305 76 LINE",
"305 334 LINE",
"406 332 LINE",
"424 244 LINE",
"500 244 LINE",
"500 505 LINE",
"424 505 LINE",
"405 424 LINE",
"305 421 LINE",
"305 670 LINE",
"477 658 LINE",
"514 556 LINE",
"604 556 LINE",
"591 743 LINE",
"26 743 LINE",
"26 664 LINE",
"102 649 LINE",
"102 85 LINE"
);
},
{
closed = 1;
nodes = (
"408 800 OFFCURVE",
"443 837 OFFCURVE",
"443 896 CURVE SMOOTH",
"443 943 OFFCURVE",
"406 977 OFFCURVE",
"342 977 CURVE",
"276 977 OFFCURVE",
"239 941 OFFCURVE",
"239 882 CURVE SMOOTH",
"239 835 OFFCURVE",
"278 800 OFFCURVE",
"332 800 CURVE"
);
}
);
};
components = (
{
name = E;
},
{
name = dotaccentcomb.case;
transform = "{1, 0, 0, 1, 318, 0}";
}
);
layerId = "809C3DC2-6073-4494-AA7C-C910FAB1DD5E";
width = 662;
}
);
leftKerningGroup = H;
rightKerningGroup = E;
unicode = 0116;
},
{
color = 4;
glyphname = Edotbelow;
lastChange = "2019-02-05 19:05:58 +0000";
layers = (
{
background = {
anchors = (
{
name = bottom;
position = "{325, -173}";
},
{
name = mark0;
position = "{341, -83}";
},
{
name = ogonek;
position = "{584, 10}";
},
{
name = top;
position = "{341, 743}";
},
{
name = topleft;
position = "{20, 743}";
}
);
paths = (
{
closed = 1;
nodes = (
"50 43 LINE",
"50 0 LINE",
"592 0 LINE",
"623 169 LINE",
"575 184 LINE",
"524 59 LINE",
"218 51 LINE",
"218 359 LINE",
"402 356 LINE",
"415 271 LINE",
"465 271 LINE",
"465 492 LINE",
"415 492 LINE",
"402 409 LINE",
"218 406 LINE",
"218 697 LINE",
"486 692 LINE",
"513 596 LINE",
"561 596 LINE",
"547 743 LINE",
"52 743 LINE",
"52 700 LINE",
"136 689 LINE",
"136 52 LINE"
);
},
{
closed = 1;
nodes = (
"320 -196 LINE",
"363 -196 OFFCURVE",
"383 -165 OFFCURVE",
"383 -126 CURVE SMOOTH",
"383 -97 OFFCURVE",
"364 -66 OFFCURVE",
"328 -66 CURVE SMOOTH",
"286 -66 OFFCURVE",
"265 -101 OFFCURVE",
"265 -136 CURVE SMOOTH",
"265 -169 OFFCURVE",
"286 -196 OFFCURVE",
"318 -196 CURVE"
);
}
);
};
components = (
{
name = E;
},
{
name = dotbelowcomb.case;
transform = "{1, 0, 0, 1, 278, 0}";
}
);
layerId = UUID0;
width = 592;
},
{
background = {
anchors = (
{
name = bottom;
position = "{330, -194}";
},
{
name = mark0;
position = "{351, -83}";
},
{
name = ogonek;
position = "{594, 10}";
},
{
name = top;
position = "{341, 743}";
},
{
name = topleft;
position = "{20, 743}";
}
);
paths = (
{
closed = 1;
nodes = (
"29 74 LINE",
"29 0 LINE",
"634 0 LINE",
"655 195 LINE",
"557 222 LINE",
"493 91 LINE",
"305 76 LINE",
"305 334 LINE",
"406 332 LINE",
"424 244 LINE",
"500 244 LINE",
"500 505 LINE",
"424 505 LINE",
"405 424 LINE",
"305 421 LINE",
"305 670 LINE",
"477 658 LINE",
"514 556 LINE",
"604 556 LINE",
"591 743 LINE",
"26 743 LINE",
"26 664 LINE",
"102 649 LINE",
"102 85 LINE"
);
},
{
closed = 1;
nodes = (
"323 -234 LINE",
"393 -234 OFFCURVE",
"428 -191 OFFCURVE",
"428 -136 CURVE SMOOTH",
"428 -89 OFFCURVE",
"396 -52 OFFCURVE",
"334 -52 CURVE SMOOTH",
"270 -52 OFFCURVE",
"233 -95 OFFCURVE",
"233 -151 CURVE SMOOTH",
"233 -198 OFFCURVE",
"270 -234 OFFCURVE",
"323 -234 CURVE"
);
}
);
};
components = (
{
name = E;
},
{
name = dotbelowcomb.case;
transform = "{1, 0, 0, 1, 300, 0}";
}
);
layerId = "809C3DC2-6073-4494-AA7C-C910FAB1DD5E";
width = 662;
}
);
leftKerningGroup = H;
rightKerningGroup = E;
unicode = 1EB8;
},
{
color = 4;
glyphname = Egrave;
lastChange = "2019-02-05 19:05:58 +0000";
layers = (
{
background = {
anchors = (
{
name = bottom;
position = "{325, 0}";
},
{
name = mark0;
position = "{341, -83}";
},
{
name = ogonek;
position = "{584, 10}";
},
{
name = top;
position = "{341, 980}";
},
{
name = topleft;
position = "{20, 743}";
}
);
paths = (
{
closed = 1;
nodes = (
"50 43 LINE",
"50 0 LINE",
"592 0 LINE",
"623 169 LINE",
"575 184 LINE",
"524 59 LINE",
"218 51 LINE",
"218 359 LINE",
"402 356 LINE",
"415 271 LINE",
"465 271 LINE",
"465 492 LINE",
"415 492 LINE",
"402 409 LINE",
"218 406 LINE",
"218 697 LINE",
"486 692 LINE",
"513 596 LINE",
"561 596 LINE",
"547 743 LINE",
"52 743 LINE",
"52 700 LINE",
"136 689 LINE",
"136 52 LINE"
);
},
{
closed = 1;
nodes = (
"412 827 LINE",
"276 980 LINE",
"207 936 LINE",
"240 892 OFFCURVE",
"319 828 OFFCURVE",
"370 802 CURVE"
);
}
);
};
components = (
{
name = E;
},
{
name = gravecomb.case;
transform = "{1, 0, 0, 1, 284, 0}";
}
);
layerId = UUID0;
width = 592;
},
{
background = {
anchors = (
{
name = bottom;
position = "{330, 0}";
},
{
name = mark0;
position = "{351, -83}";
},
{
name = ogonek;
position = "{594, 10}";
},
{
name = top;
position = "{341, 983}";
},
{
name = topleft;
position = "{20, 743}";
}
);
paths = (
{
closed = 1;
nodes = (
"29 74 LINE",
"29 0 LINE",
"634 0 LINE",
"655 195 LINE",
"557 222 LINE",
"493 91 LINE",
"305 76 LINE",
"305 334 LINE",
"406 332 LINE",
"424 244 LINE",
"500 244 LINE",
"500 505 LINE",
"424 505 LINE",
"405 424 LINE",
"305 421 LINE",
"305 670 LINE",
"477 658 LINE",
"514 556 LINE",
"604 556 LINE",
"591 743 LINE",
"26 743 LINE",
"26 664 LINE",
"102 649 LINE",
"102 85 LINE"
);
},
{
closed = 1;
nodes = (
"423 839 LINE",
"289 983 LINE",
"170 905 LINE",
"217 849 OFFCURVE",
"312 799 OFFCURVE",
"351 789 CURVE"
);
}
);
};
components = (
{
name = E;
},
{
name = gravecomb.case;
transform = "{1, 0, 0, 1, 317, 0}";
}
);
layerId = "809C3DC2-6073-4494-AA7C-C910FAB1DD5E";
width = 662;
}
);
leftKerningGroup = H;
rightKerningGroup = E;
unicode = 00C8;
},
{
color = 4;
glyphname = Ehookabove;
lastChange = "2019-02-05 19:05:58 +0000";
layers = (
{
background = {
anchors = (
{
name = bottom;
position = "{325, 0}";
},
{
name = mark0;
position = "{341, -83}";
},
{
name = ogonek;
position = "{584, 10}";
},
{
name = top;
position = "{341, 1002}";
},
{
name = topleft;
position = "{20, 743}";
}
);
paths = (
{
closed = 1;
nodes = (
"50 43 LINE",
"50 0 LINE",
"592 0 LINE",
"623 169 LINE",
"575 184 LINE",
"524 59 LINE",
"218 51 LINE",
"218 359 LINE",
"402 356 LINE",
"415 271 LINE",
"465 271 LINE",
"465 492 LINE",
"415 492 LINE",
"402 409 LINE",
"218 406 LINE",
"218 697 LINE",
"486 692 LINE",
"513 596 LINE",
"561 596 LINE",
"547 743 LINE",
"52 743 LINE",
"52 700 LINE",
"136 689 LINE",
"136 52 LINE"
);
},
{
closed = 1;
nodes = (
"363 812 LINE",
"358 828 OFFCURVE",
"357 852 OFFCURVE",
"365 859 CURVE SMOOTH",
"392 883 OFFCURVE",
"437 893 OFFCURVE",
"437 944 CURVE SMOOTH",
"437 1006 OFFCURVE",
"396 1044 OFFCURVE",
"325 1044 CURVE SMOOTH",
"301 1044 OFFCURVE",
"280 1037 OFFCURVE",
"263 1029 CURVE",
"266 976 LINE",
"277 982 OFFCURVE",
"293 986 OFFCURVE",
"309 986 CURVE SMOOTH",
"348 986 OFFCURVE",
"366 963 OFFCURVE",
"366 931 CURVE",
"366 896 OFFCURVE",
"305 889 OFFCURVE",
"305 862 CURVE",
"305 845 OFFCURVE",
"318 822 OFFCURVE",
"326 812 CURVE"
);
}
);
};
components = (
{
name = E;
},
{
name = hookabovecomb.case;
transform = "{1, 0, 0, 1, 284, 0}";
}
);
layerId = UUID0;
width = 592;
},
{
background = {
anchors = (
{
name = bottom;
position = "{330, 0}";
},
{
name = mark0;
position = "{351, -83}";
},
{
name = ogonek;
position = "{594, 10}";
},
{
name = top;
position = "{341, 1021}";
},
{
name = topleft;
position = "{20, 743}";
}
);
paths = (
{
closed = 1;
nodes = (
"29 74 LINE",
"29 0 LINE",
"634 0 LINE",
"655 195 LINE",
"557 222 LINE",
"493 91 LINE",
"305 76 LINE",
"305 334 LINE",
"406 332 LINE",
"424 244 LINE",
"500 244 LINE",
"500 505 LINE",
"424 505 LINE",
"405 424 LINE",
"305 421 LINE",
"305 670 LINE",
"477 658 LINE",
"514 556 LINE",
"604 556 LINE",
"591 743 LINE",
"26 743 LINE",
"26 664 LINE",
"102 649 LINE",
"102 85 LINE"
);
},
{
closed = 1;
nodes = (
"386 796 LINE",
"379 824 OFFCURVE",
"389 846 OFFCURVE",
"400 856 CURVE SMOOTH",
"422 876 OFFCURVE",
"450 903 OFFCURVE",
"450 945 CURVE SMOOTH",
"450 1026 OFFCURVE",
"393 1067 OFFCURVE",
"304 1067 CURVE SMOOTH",
"281 1067 OFFCURVE",
"248 1062 OFFCURVE",
"227 1052 CURVE",
"229 953 LINE",
"240 962 OFFCURVE",
"265 966 OFFCURVE",
"279 966 CURVE SMOOTH",
"318 966 OFFCURVE",
"331 945 OFFCURVE",
"331 919 CURVE SMOOTH",
"331 875 OFFCURVE",
"293 875 OFFCURVE",
"293 843 CURVE",
"293 824 OFFCURVE",
"306 803 OFFCURVE",
"313 796 CURVE"
);
}
);
};
components = (
{
name = E;
},
{
name = hookabovecomb.case;
transform = "{1, 0, 0, 1, 317, 0}";
}
);
layerId = "809C3DC2-6073-4494-AA7C-C910FAB1DD5E";
width = 662;
}
);
leftKerningGroup = H;
rightKerningGroup = E;
unicode = 1EBA;
},
{
color = 4;
glyphname = Emacron;
lastChange = "2019-02-05 19:05:58 +0000";
layers = (
{
background = {
anchors = (
{
name = bottom;
position = "{325, 0}";
},
{
name = mark0;
position = "{341, -83}";
},
{
name = ogonek;
position = "{584, 10}";
},
{
name = top;
position = "{341, 920}";
},
{
name = topleft;
position = "{20, 743}";
}
);
paths = (
{
closed = 1;
nodes = (
"50 43 LINE",
"50 0 LINE",
"592 0 LINE",
"623 169 LINE",
"575 184 LINE",
"524 59 LINE",
"218 51 LINE",
"218 359 LINE",
"402 356 LINE",
"415 271 LINE",
"465 271 LINE",
"465 492 LINE",
"415 492 LINE",
"402 409 LINE",
"218 406 LINE",
"218 697 LINE",
"486 692 LINE",
"513 596 LINE",
"561 596 LINE",
"547 743 LINE",
"52 743 LINE",
"52 700 LINE",
"136 689 LINE",
"136 52 LINE"
);
},
{
closed = 1;
nodes = (
"199 922 LINE",
"199 859 LINE",
"483 859 LINE",
"483 922 LINE"
);
}
);
};
components = (
{
name = E;
},
{
name = macroncomb.case;
transform = "{1, 0, 0, 1, 284, 0}";
}
);
layerId = UUID0;
width = 592;
},
{
background = {
anchors = (
{
name = bottom;
position = "{330, 0}";
},
{
name = mark0;
position = "{351, -83}";
},
{
name = ogonek;
position = "{594, 10}";
},
{
name = top;
position = "{341, 937}";
},
{
name = topleft;
position = "{20, 743}";
}
);
paths = (
{
closed = 1;
nodes = (
"29 74 LINE",
"29 0 LINE",
"634 0 LINE",
"655 195 LINE",
"557 222 LINE",
"493 91 LINE",
"305 76 LINE",
"305 334 LINE",
"406 332 LINE",
"424 244 LINE",
"500 244 LINE",
"500 505 LINE",
"424 505 LINE",
"405 424 LINE",
"305 421 LINE",
"305 670 LINE",
"477 658 LINE",
"514 556 LINE",
"604 556 LINE",
"591 743 LINE",
"26 743 LINE",
"26 664 LINE",
"102 649 LINE",
"102 85 LINE"
);
},
{
closed = 1;
nodes = (
"171 937 LINE",
"171 829 LINE",
"511 829 LINE",
"511 937 LINE"
);
}
);
};
components = (
{
name = E;
},
{
name = macroncomb.case;
transform = "{1, 0, 0, 1, 318, 0}";
}
);
layerId = "809C3DC2-6073-4494-AA7C-C910FAB1DD5E";
width = 662;
}
);
leftKerningGroup = H;
rightKerningGroup = E;
unicode = 0112;
},
{
color = 4;
glyphname = Eogonek;
lastChange = "2019-02-05 19:05:58 +0000";
layers = (
{
background = {
paths = (
{
closed = 1;
nodes = (
"50 43 LINE",
"50 0 LINE",
"499 0 LINE",
"423 -30 OFFCURVE",
"357 -100 OFFCURVE",
"357 -155 CURVE SMOOTH",
"357 -226 OFFCURVE",
"418 -249 OFFCURVE",
"479 -249 CURVE SMOOTH",
"520 -249 OFFCURVE",
"564 -236 OFFCURVE",
"592 -215 CURVE",
"592 -173 LINE",
"569 -185 OFFCURVE",
"540 -193 OFFCURVE",
"514 -193 CURVE SMOOTH",
"473 -193 OFFCURVE",
"437 -176 OFFCURVE",
"437 -129 CURVE SMOOTH",
"437 -83 OFFCURVE",
"512 -13 OFFCURVE",
"579 0 CURVE",
"592 0 LINE",
"623 169 LINE",
"575 184 LINE",
"524 59 LINE",
"218 51 LINE",
"218 359 LINE",
"402 356 LINE",
"415 271 LINE",
"465 271 LINE",
"465 492 LINE",
"415 492 LINE",
"402 409 LINE",
"218 406 LINE",
"218 697 LINE",
"486 692 LINE",
"513 596 LINE",
"561 596 LINE",
"547 743 LINE",
"52 743 LINE",
"52 700 LINE",
"136 689 LINE",
"136 52 LINE"
);
}
);
};
components = (
{
name = E;
},
{
name = ogonekcomb.case;
transform = "{1, 0, 0, 1, 371, 8}";
}
);
layerId = UUID0;
width = 592;
},
{
background = {
paths = (
{
closed = 1;
nodes = (
"29 74 LINE",
"29 0 LINE",
"508 0 LINE",
"410 -33 OFFCURVE",
"361 -89 OFFCURVE",
"361 -149 CURVE SMOOTH",
"361 -209 OFFCURVE",
"410 -251 OFFCURVE",
"499 -251 CURVE SMOOTH",
"540 -251 OFFCURVE",
"597 -240 OFFCURVE",
"625 -219 CURVE",
"625 -139 LINE",
"603 -148 OFFCURVE",
"594 -150 OFFCURVE",
"571 -150 CURVE SMOOTH",
"531 -150 OFFCURVE",
"511 -129 OFFCURVE",
"511 -100 CURVE SMOOTH",
"511 -68 OFFCURVE",
"560 -17 OFFCURVE",
"627 0 CURVE",
"634 0 LINE",
"655 195 LINE",
"557 222 LINE",
"493 91 LINE",
"305 76 LINE",
"305 334 LINE",
"406 332 LINE",
"424 244 LINE",
"500 244 LINE",
"500 505 LINE",
"424 505 LINE",
"405 424 LINE",
"305 421 LINE",
"305 670 LINE",
"477 658 LINE",
"514 556 LINE",
"604 556 LINE",
"591 743 LINE",
"26 743 LINE",
"26 664 LINE",
"102 649 LINE",
"102 85 LINE"
);
}
);
};
components = (
{
name = E;
},
{
name = ogonekcomb.case;
transform = "{1, 0, 0, 1, 351, 10}";
}
);
layerId = "809C3DC2-6073-4494-AA7C-C910FAB1DD5E";
width = 662;
}
);
leftKerningGroup = H;
rightKerningGroup = Eogonek;
unicode = 0118;
},
{
color = 4;
glyphname = Etilde;
lastChange = "2019-02-05 19:05:58 +0000";
layers = (
{
background = {
anchors = (
{
name = bottom;
position = "{325, 0}";
},
{
name = mark0;
position = "{341, -83}";
},
{
name = ogonek;
position = "{584, 10}";
},
{
name = top;
position = "{341, 928}";
},
{
name = topleft;
position = "{20, 743}";
}
);
paths = (
{
closed = 1;
nodes = (
"50 43 LINE",
"50 0 LINE",
"592 0 LINE",
"623 169 LINE",
"575 184 LINE",
"524 59 LINE",
"218 51 LINE",
"218 359 LINE",
"402 356 LINE",
"415 271 LINE",
"465 271 LINE",
"465 492 LINE",
"415 492 LINE",
"402 409 LINE",
"218 406 LINE",
"218 697 LINE",
"486 692 LINE",
"513 596 LINE",
"561 596 LINE",
"547 743 LINE",
"52 743 LINE",
"52 700 LINE",
"136 689 LINE",
"136 52 LINE"
);
},
{
closed = 1;
nodes = (
"484 819 OFFCURVE",
"506 868 OFFCURVE",
"522 915 CURVE",
"480 937 LINE",
"471 912 OFFCURVE",
"455 876 OFFCURVE",
"422 876 CURVE SMOOTH",
"375 876 OFFCURVE",
"355 952 OFFCURVE",
"275 952 CURVE SMOOTH",
"213 952 OFFCURVE",
"182 903 OFFCURVE",
"166 856 CURVE",
"208 834 LINE",
"217 859 OFFCURVE",
"227 892 OFFCURVE",
"267 892 CURVE SMOOTH",
"317 892 OFFCURVE",
"339 819 OFFCURVE",
"419 819 CURVE SMOOTH"
);
}
);
};
components = (
{
name = E;
},
{
name = tildecomb.case;
transform = "{1, 0, 0, 1, 284, 0}";
}
);
layerId = UUID0;
width = 592;
},
{
background = {
anchors = (
{
name = bottom;
position = "{330, 0}";
},
{
name = mark0;
position = "{351, -83}";
},
{
name = ogonek;
position = "{594, 10}";
},
{
name = top;
position = "{341, 943}";
},
{
name = topleft;
position = "{20, 743}";
}
);
paths = (
{
closed = 1;
nodes = (
"29 74 LINE",
"29 0 LINE",
"634 0 LINE",
"655 195 LINE",
"557 222 LINE",
"493 91 LINE",
"305 76 LINE",
"305 334 LINE",
"406 332 LINE",
"424 244 LINE",
"500 244 LINE",
"500 505 LINE",
"424 505 LINE",
"405 424 LINE",
"305 421 LINE",
"305 670 LINE",
"477 658 LINE",
"514 556 LINE",
"604 556 LINE",
"591 743 LINE",
"26 743 LINE",
"26 664 LINE",
"102 649 LINE",
"102 85 LINE"
);
},
{
closed = 1;
nodes = (
"470 799 OFFCURVE",
"521 840 OFFCURVE",
"543 922 CURVE",
"474 966 LINE",
"462 927 OFFCURVE",
"444 905 OFFCURVE",
"414 906 CURVE SMOOTH",
"364 908 OFFCURVE",
"350 968 OFFCURVE",
"272 968 CURVE SMOOTH",
"212 968 OFFCURVE",
"163 927 OFFCURVE",
"141 845 CURVE",
"210 801 LINE",
"222 840 OFFCURVE",
"241 862 OFFCURVE",
"271 862 CURVE SMOOTH",
"325 862 OFFCURVE",
"332 799 OFFCURVE",
"410 799 CURVE SMOOTH"
);
}
);
};
components = (
{
name = E;
},
{
name = tildecomb.case;
transform = "{1, 0, 0, 1, 318, 0}";
}
);
layerId = "809C3DC2-6073-4494-AA7C-C910FAB1DD5E";
width = 662;
}
);
leftKerningGroup = H;
rightKerningGroup = E;
unicode = 1EBC;
},
{
color = 3;
glyphname = Ezh;
layers = (
{
layerId = UUID0;
paths = (
{
closed = 1;
nodes = (
"413 -6 OFFCURVE",
"537 97 OFFCURVE",
"537 245 CURVE",
"537 365 OFFCURVE",
"460 420 OFFCURVE",
"366 420 CURVE SMOOTH",
"340 420 OFFCURVE",
"308 418 OFFCURVE",
"288 413 CURVE",
"556 704 LINE",
"561 743 LINE",
"135 743 LINE",
"122 571 LINE",
"166 571 LINE",
"194 682 LINE",
"468 695 LINE",
"208 385 LINE",
"220 370 LINE SMOOTH",
"242 374 OFFCURVE",
"267 379 OFFCURVE",
"302 379 CURVE",
"401 378 OFFCURVE",
"458 328 OFFCURVE",
"458 245 CURVE",
"458 145 OFFCURVE",
"388 43 OFFCURVE",
"235 43 CURVE",
"147 43 OFFCURVE",
"113 66 OFFCURVE",
"105 70 CURVE SMOOTH",
"105 194 LINE",
"65 194 LINE",
"25 32 LINE SMOOTH",
"48 27 OFFCURVE",
"130 -6 OFFCURVE",
"220 -6 CURVE"
);
}
);
width = 581;
},
{
layerId = "809C3DC2-6073-4494-AA7C-C910FAB1DD5E";
paths = (
{
closed = 1;
nodes = (
"444 -6 OFFCURVE",
"557 114 OFFCURVE",
"557 262 CURVE SMOOTH",
"557 392 OFFCURVE",
"458 439 OFFCURVE",
"361 439 CURVE SMOOTH",
"351 439 OFFCURVE",
"340 439 OFFCURVE",
"330 438 CURVE",
"577 672 LINE",
"587 743 LINE",
"102 743 LINE",
"75 557 LINE",
"166 557 LINE",
"198 658 LINE",
"444 664 LINE",
"194 399 LINE",
"223 363 LINE",
"235 364 OFFCURVE",
"246 365 OFFCURVE",
"256 365 CURVE SMOOTH",
"345 365 OFFCURVE",
"384 312 OFFCURVE",
"384 230 CURVE SMOOTH",
"384 142 OFFCURVE",
"319 65 OFFCURVE",
"242 65 CURVE SMOOTH",
"178 65 OFFCURVE",
"145 95 OFFCURVE",
"141 99 CURVE",
"123 216 LINE",
"47 216 LINE",
"12 32 LINE",
"37 27 OFFCURVE",
"104 -6 OFFCURVE",
"226 -6 CURVE SMOOTH"
);
}
);
width = 586;
}
);
leftKerningGroup = Ezh;
rightKerningGroup = Ezh;
unicode = 01B7;
},
{
color = 3;
glyphname = F;
lastChange = "2019-02-05 18:39:32 +0000";
layers = (
{
anchors = (
{
name = btm;
position = "{282, -82}";
},
{
name = top;
position = "{357, 743}";
}
);
background = {
anchors = (
{
name = bottom;
position = "{306, 0}";
},
{
name = mark0;
position = "{311, -83}";
},
{
name = top;
position = "{336, 743}";
}
);
paths = (
{
closed = 1;
nodes = (
"51 43 LINE",
"51 0 LINE",
"372 0 LINE",
"372 43 LINE",
"215 52 LINE",
"215 353 LINE",
"415 349 LINE",
"432 264 LINE",
"478 264 LINE",
"478 485 LINE",
"432 485 LINE",
"415 404 LINE",
"215 401 LINE",
"215 697 LINE",
"497 692 LINE",
"524 579 LINE",
"579 579 LINE",
"569 743 LINE",
"45 743 LINE",
"45 700 LINE",
"133 689 LINE",
"133 52 LINE"
);
}
);
};
layerId = UUID0;
paths = (
{
closed = 1;
nodes = (
"101 704 LINE",
"168 694 LINE",
"87 46 LINE",
"13 34 LINE",
"10 0 LINE",
"273 0 LINE",
"277 34 LINE",
"160 47 LINE",
"202 357 LINE",
"449 351 LINE",
"454 413 LINE",
"206 409 LINE",
"242 700 LINE",
"508 693 LINE",
"518 592 LINE",
"564 592 LINE",
"573 743 LINE",
"106 743 LINE"
);
}
);
width = 561;
},
{
anchors = (
{
name = btm;
position = "{327, -82}";
},
{
name = top;
position = "{381, 743}";
}
);
background = {
anchors = (
{
name = bottom;
position = "{318, 0}";
},
{
name = mark0;
position = "{329, -83}";
},
{
name = top;
position = "{338, 743}";
}
);
paths = (
{
closed = 1;
nodes = (
"34 74 LINE",
"34 0 LINE",
"461 0 LINE",
"461 74 LINE",
"310 86 LINE",
"310 312 LINE",
"416 308 LINE",
"438 213 LINE",
"516 213 LINE",
"516 496 LINE",
"437 496 LINE",
"416 403 LINE",
"310 400 LINE",
"310 670 LINE",
"470 655 LINE",
"515 548 LINE",
"617 548 LINE",
"606 743 LINE",
"30 743 LINE",
"30 664 LINE",
"107 649 LINE",
"107 86 LINE"
);
}
);
};
layerId = "809C3DC2-6073-4494-AA7C-C910FAB1DD5E";
paths = (
{
closed = 1;
nodes = (
"81 689 LINE",
"152 677 LINE",
"72 66 LINE",
"5 52 LINE",
"-1 0 LINE",
"375 0 LINE",
"379 52 LINE",
"244 66 LINE",
"279 342 LINE",
"508 323 LINE",
"524 433 LINE",
"289 419 LINE",
"325 684 LINE",
"499 672 LINE",
"513 556 LINE",
"621 556 LINE",
"641 743 LINE",
"88 743 LINE"
);
}
);
width = 617;
}
);
leftKerningGroup = H;
leftMetricsKey = H;
rightKerningGroup = F;
unicode = 0046;
},
{
color = 4;
glyphname = Fdotaccent;
lastChange = "2019-02-05 18:39:38 +0000";
layers = (
{
background = {
anchors = (
{
name = bottom;
position = "{309, 0}";
},
{
name = mark0;
position = "{314, -83}";
},
{
name = top;
position = "{339, 959}";
}
);
paths = (
{
closed = 1;
nodes = (
"54 43 LINE",
"54 0 LINE",
"375 0 LINE",
"375 43 LINE",
"218 52 LINE",
"218 353 LINE",
"418 349 LINE",
"435 264 LINE",
"481 264 LINE",
"481 485 LINE",
"435 485 LINE",
"418 404 LINE",
"218 401 LINE",
"218 697 LINE",
"500 692 LINE",
"527 579 LINE",
"582 579 LINE",
"572 743 LINE",
"48 743 LINE",
"48 700 LINE",
"136 689 LINE",
"136 52 LINE"
);
},
{
closed = 1;
nodes = (
"375 836 OFFCURVE",
"395 866 OFFCURVE",
"395 901 CURVE SMOOTH",
"395 930 OFFCURVE",
"376 959 OFFCURVE",
"342 959 CURVE SMOOTH",
"302 959 OFFCURVE",
"283 927 OFFCURVE",
"283 893 CURVE SMOOTH",
"283 861 OFFCURVE",
"302 836 OFFCURVE",
"334 836 CURVE SMOOTH"
);
}
);
};
components = (
{
name = F;
},
{
name = dotaccentcomb.case;
transform = "{1, 0, 0, 1, 291, 0}";
}
);
layerId = UUID0;
width = 561;
},
{
background = {
anchors = (
{
name = bottom;
position = "{313, 0}";
},
{
name = mark0;
position = "{324, -83}";
},
{
name = top;
position = "{333, 977}";
}
);
paths = (
{
closed = 1;
nodes = (
"29 74 LINE",
"29 0 LINE",
"456 0 LINE",
"456 74 LINE",
"305 86 LINE",
"305 312 LINE",
"411 308 LINE",
"433 213 LINE",
"511 213 LINE",
"511 496 LINE",
"432 496 LINE",
"411 403 LINE",
"305 400 LINE",
"305 670 LINE",
"465 655 LINE",
"510 548 LINE",
"612 548 LINE",
"601 743 LINE",
"25 743 LINE",
"25 664 LINE",
"102 649 LINE",
"102 86 LINE"
);
},
{
closed = 1;
nodes = (
"400 800 OFFCURVE",
"435 837 OFFCURVE",
"435 896 CURVE SMOOTH",
"435 943 OFFCURVE",
"398 977 OFFCURVE",
"334 977 CURVE",
"268 977 OFFCURVE",
"231 941 OFFCURVE",
"231 882 CURVE SMOOTH",
"231 835 OFFCURVE",
"270 800 OFFCURVE",
"324 800 CURVE"
);
}
);
};
components = (
{
name = F;
},
{
name = dotaccentcomb.case;
transform = "{1, 0, 0, 1, 316, 0}";
}
);
layerId = "809C3DC2-6073-4494-AA7C-C910FAB1DD5E";
width = 617;
}
);
leftKerningGroup = H;
rightKerningGroup = F;
unicode = 1E1E;
},
{
color = 3;
glyphname = G;
lastChange = "2019-02-05 19:01:38 +0000";
layers = (
{
anchors = (
{
name = bottom;
position = "{334, 0}";
},
{
name = top;
position = "{410, 743}";
}
);
background = {
anchors = (
{
name = bottom;
position = "{372, 0}";
},
{
name = mark0;
position = "{386, -83}";
},
{
name = top;
position = "{402, 743}";
}
);
paths = (
{
closed = 1;
nodes = (
"529 -11 OFFCURVE",
"607 38 OFFCURVE",
"660 40 CURVE",
"660 311 LINE",
"721 321 LINE",
"721 374 LINE",
"437 374 LINE",
"437 321 LINE",
"576 311 LINE",
"576 83 LINE",
"540 55 OFFCURVE",
"472 37 OFFCURVE",
"401 37 CURVE SMOOTH",
"227 37 OFFCURVE",
"145 209 OFFCURVE",
"145 385 CURVE SMOOTH",
"145 596 OFFCURVE",
"262 703 OFFCURVE",
"417 703 CURVE SMOOTH",
"511 703 OFFCURVE",
"555 681 OFFCURVE",
"570 669 CURVE",
"592 554 LINE",
"644 554 LINE",
"652 720 LINE",
"618 728 OFFCURVE",
"529 751 OFFCURVE",
"426 751 CURVE SMOOTH",
"217 751 OFFCURVE",
"51 610 OFFCURVE",
"51 359 CURVE SMOOTH",
"51 148 OFFCURVE",
"178 -11 OFFCURVE",
"395 -11 CURVE SMOOTH"
);
}
);
};
layerId = UUID0;
paths = (
{
closed = 1;
nodes = (
"603 353 LINE",
"388 353 LINE",
"383 308 LINE",
"520 301 LINE",
"490 87 LINE",
"453 54 OFFCURVE",
"378 38 OFFCURVE",
"321 38 CURVE SMOOTH",
"185 38 OFFCURVE",
"131 181 OFFCURVE",
"129 315 CURVE",
"128 488 OFFCURVE",
"217 705 OFFCURVE",
"403 705 CURVE SMOOTH",
"487 705 OFFCURVE",
"523 690 OFFCURVE",
"549 672 CURVE",
"551 574 LINE",
"598 574 LINE",
"626 718 LINE",
"607 724 LINE SMOOTH",
"572 734 OFFCURVE",
"511 751 OFFCURVE",
"412 751 CURVE SMOOTH",
"220 751 OFFCURVE",
"49 577 OFFCURVE",
"52 306 CURVE SMOOTH",
"54 155 OFFCURVE",
"125 -8 OFFCURVE",
"300 -8 CURVE SMOOTH",
"377 -8 OFFCURVE",
"449 15 OFFCURVE",
"497 30 CURVE SMOOTH",
"524 38 OFFCURVE",
"540 44 OFFCURVE",
"559 46 CURVE"
);
}
);
width = 667;
},
{
anchors = (
{
name = bottom;
position = "{324, 0}";
},
{
name = top;
position = "{442, 743}";
}
);
background = {
anchors = (
{
name = bottom;
position = "{379, 0}";
},
{
name = mark0;
position = "{381, -83}";
},
{
name = top;
position = "{409, 743}";
}
);
paths = (
{
closed = 1;
nodes = (
"521 -11 OFFCURVE",
"636 38 OFFCURVE",
"689 40 CURVE",
"689 300 LINE",
"735 308 LINE",
"735 387 LINE",
"414 387 LINE",
"414 308 LINE",
"491 297 LINE",
"491 95 LINE",
"477 79 OFFCURVE",
"444 66 OFFCURVE",
"404 66 CURVE SMOOTH",
"299 66 OFFCURVE",
"263 187 OFFCURVE",
"263 377 CURVE SMOOTH",
"263 574 OFFCURVE",
"314 679 OFFCURVE",
"419 679 CURVE SMOOTH",
"466 679 OFFCURVE",
"488 666 OFFCURVE",
"495 657 CURVE",
"525 519 LINE",
"670 519 LINE",
"683 722 LINE",
"647 730 OFFCURVE",
"528 753 OFFCURVE",
"421 753 CURVE SMOOTH",
"170 753 OFFCURVE",
"27 618 OFFCURVE",
"27 367 CURVE SMOOTH",
"27 154 OFFCURVE",
"151 -11 OFFCURVE",
"385 -11 CURVE SMOOTH"
);
}
);
};
layerId = "809C3DC2-6073-4494-AA7C-C910FAB1DD5E";
paths = (
{
closed = 1;
nodes = (
"664 368 LINE",
"392 368 LINE",
"383 296 LINE",
"482 288 LINE",
"456 80 LINE",
"427 69 OFFCURVE",
"393 66 OFFCURVE",
"348 66 CURVE SMOOTH",
"256 66 OFFCURVE",
"215 179 OFFCURVE",
"215 321 CURVE SMOOTH",
"215 520 OFFCURVE",
"264 689 OFFCURVE",
"445 689 CURVE SMOOTH",
"479 689 OFFCURVE",
"507 681 OFFCURVE",
"531 668 CURVE",
"536 556 LINE",
"653 556 LINE",
"685 718 LINE",
"655 724 LINE",
"612 734 OFFCURVE",
"565 752 OFFCURVE",
"443 752 CURVE SMOOTH",
"169 752 OFFCURVE",
"28 574 OFFCURVE",
"33 306 CURVE SMOOTH",
"36 140 OFFCURVE",
"116 -8 OFFCURVE",
"315 -8 CURVE SMOOTH",
"406 -8 OFFCURVE",
"470 10 OFFCURVE",
"527 25 CURVE",
"556 33 OFFCURVE",
"599 39 OFFCURVE",
"620 41 CURVE"
);
}
);
width = 701;
}
);
leftKerningGroup = O;
rightKerningGroup = G;
unicode = 0047;
},
{
color = 4;
glyphname = Gacute;
lastChange = "2019-02-05 19:05:58 +0000";
layers = (
{
background = {
anchors = (
{
name = bottom;
position = "{369, 0}";
},
{
name = mark0;
position = "{383, -83}";
},
{
name = top;
position = "{399, 980}";
}
);
paths = (
{
closed = 1;
nodes = (
"526 -11 OFFCURVE",
"604 38 OFFCURVE",
"657 40 CURVE",
"657 311 LINE",
"718 321 LINE",
"718 374 LINE",
"434 374 LINE",
"434 321 LINE",
"573 311 LINE",
"573 83 LINE",
"537 55 OFFCURVE",
"469 37 OFFCURVE",
"398 37 CURVE SMOOTH",
"224 37 OFFCURVE",
"142 209 OFFCURVE",
"142 385 CURVE SMOOTH",
"142 596 OFFCURVE",
"259 703 OFFCURVE",
"414 703 CURVE SMOOTH",
"508 703 OFFCURVE",
"552 681 OFFCURVE",
"567 669 CURVE",
"589 554 LINE",
"641 554 LINE",
"649 720 LINE",
"615 728 OFFCURVE",
"526 751 OFFCURVE",
"423 751 CURVE SMOOTH",
"214 751 OFFCURVE",
"48 610 OFFCURVE",
"48 359 CURVE SMOOTH",
"48 148 OFFCURVE",
"175 -11 OFFCURVE",
"392 -11 CURVE SMOOTH"
);
},
{
closed = 1;
nodes = (
"421 828 OFFCURVE",
"500 892 OFFCURVE",
"533 936 CURVE",
"464 980 LINE",
"328 827 LINE",
"370 802 LINE"
);
}
);
};
components = (
{
name = G;
},
{
name = acutecomb.case;
transform = "{1, 0, 0, 1, 344, 0}";
}
);
layerId = UUID0;
width = 667;
},
{
background = {
anchors = (
{
name = bottom;
position = "{375, 0}";
},
{
name = mark0;
position = "{377, -83}";
},
{
name = top;
position = "{405, 983}";
}
);
paths = (
{
closed = 1;
nodes = (
"517 -11 OFFCURVE",
"632 38 OFFCURVE",
"685 40 CURVE",
"685 300 LINE",
"731 308 LINE",
"731 387 LINE",
"410 387 LINE",
"410 308 LINE",
"487 297 LINE",
"487 95 LINE",
"473 79 OFFCURVE",
"440 66 OFFCURVE",
"400 66 CURVE SMOOTH",
"295 66 OFFCURVE",
"259 187 OFFCURVE",
"259 377 CURVE SMOOTH",
"259 574 OFFCURVE",
"310 679 OFFCURVE",
"415 679 CURVE SMOOTH",
"462 679 OFFCURVE",
"484 666 OFFCURVE",
"491 657 CURVE",
"521 519 LINE",
"666 519 LINE",
"679 722 LINE",
"643 730 OFFCURVE",
"524 753 OFFCURVE",
"417 753 CURVE SMOOTH",
"166 753 OFFCURVE",
"23 618 OFFCURVE",
"23 367 CURVE SMOOTH",
"23 154 OFFCURVE",
"147 -11 OFFCURVE",
"381 -11 CURVE SMOOTH"
);
},
{
closed = 1;
nodes = (
"430 798 OFFCURVE",
"507 840 OFFCURVE",
"569 905 CURVE",
"441 983 LINE",
"315 839 LINE",
"396 789 LINE"
);
}
);
};
components = (
{
name = G;
},
{
name = acutecomb.case;
transform = "{1, 0, 0, 1, 377, 0}";
}
);
layerId = "809C3DC2-6073-4494-AA7C-C910FAB1DD5E";
width = 701;
}
);
leftKerningGroup = O;
rightKerningGroup = G;
unicode = 01F4;
},
{
color = 4;
glyphname = Gbreve;
lastChange = "2019-02-05 19:05:58 +0000";
layers = (
{
background = {
anchors = (
{
name = bottom;
position = "{369, 0}";
},
{
name = mark0;
position = "{384, -83}";
},
{
name = top;
position = "{399, 974}";
}
);
paths = (
{
closed = 1;
nodes = (
"526 -11 OFFCURVE",
"604 38 OFFCURVE",
"657 40 CURVE",
"657 311 LINE",
"718 321 LINE",
"718 374 LINE",
"434 374 LINE",
"434 321 LINE",
"573 311 LINE",
"573 83 LINE",
"537 55 OFFCURVE",
"469 37 OFFCURVE",
"398 37 CURVE SMOOTH",
"224 37 OFFCURVE",
"142 209 OFFCURVE",
"142 385 CURVE SMOOTH",
"142 596 OFFCURVE",
"259 703 OFFCURVE",
"414 703 CURVE SMOOTH",
"508 703 OFFCURVE",
"552 681 OFFCURVE",
"567 669 CURVE",
"589 554 LINE",
"641 554 LINE",
"649 720 LINE",
"615 728 OFFCURVE",
"526 751 OFFCURVE",
"423 751 CURVE SMOOTH",
"214 751 OFFCURVE",
"48 610 OFFCURVE",
"48 359 CURVE SMOOTH",
"48 148 OFFCURVE",
"175 -11 OFFCURVE",
"392 -11 CURVE SMOOTH"
);
},
{
closed = 1;
nodes = (
"498 808 OFFCURVE",
"561 872 OFFCURVE",
"561 955 CURVE SMOOTH",
"561 961 OFFCURVE",
"561 967 OFFCURVE",
"560 974 CURVE",
"516 974 LINE",
"516 971 OFFCURVE",
"516 967 OFFCURVE",
"515 961 CURVE SMOOTH",
"509 925 OFFCURVE",
"486 874 OFFCURVE",
"399 874 CURVE SMOOTH",
"316 874 OFFCURVE",
"291 924 OFFCURVE",
"285 960 CURVE SMOOTH",
"284 966 OFFCURVE",
"284 971 OFFCURVE",
"284 974 CURVE",
"238 974 LINE",
"237 967 OFFCURVE",
"237 961 OFFCURVE",
"237 954 CURVE SMOOTH",
"237 872 OFFCURVE",
"295 808 OFFCURVE",
"399 808 CURVE SMOOTH"
);
}
);
};
components = (
{
name = G;
},
{
name = brevecomb.case;
transform = "{1, 0, 0, 1, 344, 0}";
}
);
layerId = UUID0;
width = 667;
},
{
background = {
anchors = (
{
name = bottom;
position = "{375, 0}";
},
{
name = mark0;
position = "{376, -83}";
},
{
name = top;
position = "{405, 981}";
}
);
paths = (
{
closed = 1;
nodes = (
"517 -11 OFFCURVE",
"632 38 OFFCURVE",
"685 40 CURVE",
"685 300 LINE",
"731 308 LINE",
"731 387 LINE",
"410 387 LINE",
"410 308 LINE",
"487 297 LINE",
"487 95 LINE",
"473 79 OFFCURVE",
"440 66 OFFCURVE",
"400 66 CURVE SMOOTH",
"295 66 OFFCURVE",
"259 187 OFFCURVE",
"259 377 CURVE SMOOTH",
"259 574 OFFCURVE",
"310 679 OFFCURVE",
"415 679 CURVE SMOOTH",
"462 679 OFFCURVE",
"484 666 OFFCURVE",
"491 657 CURVE",
"521 519 LINE",
"666 519 LINE",
"679 722 LINE",
"643 730 OFFCURVE",
"524 753 OFFCURVE",
"417 753 CURVE SMOOTH",
"166 753 OFFCURVE",
"23 618 OFFCURVE",
"23 367 CURVE SMOOTH",
"23 154 OFFCURVE",
"147 -11 OFFCURVE",
"381 -11 CURVE SMOOTH"
);
},
{
closed = 1;
nodes = (
"535 789 OFFCURVE",
"604 871 OFFCURVE",
"604 959 CURVE SMOOTH",
"604 967 OFFCURVE",
"604 974 OFFCURVE",
"603 981 CURVE",
"510 981 LINE",
"510 979 OFFCURVE",
"510 975 OFFCURVE",
"509 971 CURVE SMOOTH",
"502 944 OFFCURVE",
"484 902 OFFCURVE",
"405 902 CURVE SMOOTH",
"325 902 OFFCURVE",
"306 945 OFFCURVE",
"299 971 CURVE SMOOTH",
"298 975 OFFCURVE",
"298 979 OFFCURVE",
"298 981 CURVE",
"207 981 LINE",
"206 974 OFFCURVE",
"206 966 OFFCURVE",
"206 958 CURVE SMOOTH",
"206 870 OFFCURVE",
"269 789 OFFCURVE",
"404 789 CURVE SMOOTH"
);
}
);
};
components = (
{
name = G;
},
{
name = brevecomb.case;
transform = "{1, 0, 0, 1, 376, 0}";
}
);
layerId = "809C3DC2-6073-4494-AA7C-C910FAB1DD5E";
width = 701;
}
);
leftKerningGroup = O;
rightKerningGroup = G;
unicode = 011E;
},
{
color = 4;
glyphname = Gcaron;
lastChange = "2019-02-05 19:05:58 +0000";
layers = (
{
background = {
anchors = (
{
name = bottom;
position = "{369, 0}";
},
{
name = mark0;
position = "{383, -83}";
},
{
name = top;
position = "{399, 982}";
}
);
paths = (
{
closed = 1;
nodes = (
"526 -11 OFFCURVE",
"604 38 OFFCURVE",
"657 40 CURVE",
"657 311 LINE",
"718 321 LINE",
"718 374 LINE",
"434 374 LINE",
"434 321 LINE",
"573 311 LINE",
"573 83 LINE",
"537 55 OFFCURVE",
"469 37 OFFCURVE",
"398 37 CURVE SMOOTH",
"224 37 OFFCURVE",
"142 209 OFFCURVE",
"142 385 CURVE SMOOTH",
"142 596 OFFCURVE",
"259 703 OFFCURVE",
"414 703 CURVE SMOOTH",
"508 703 OFFCURVE",
"552 681 OFFCURVE",
"567 669 CURVE",
"589 554 LINE",
"641 554 LINE",
"649 720 LINE",
"615 728 OFFCURVE",
"526 751 OFFCURVE",
"423 751 CURVE SMOOTH",
"214 751 OFFCURVE",
"48 610 OFFCURVE",
"48 359 CURVE SMOOTH",
"48 148 OFFCURVE",
"175 -11 OFFCURVE",
"392 -11 CURVE SMOOTH"
);
},
{
closed = 1;
nodes = (
"241 960 LINE",
"362 826 LINE",
"438 826 LINE",
"557 961 LINE",
"524 982 LINE",
"400 882 LINE",
"277 982 LINE"
);
}
);
};
components = (
{
name = G;
},
{
name = caroncomb.case;
transform = "{1, 0, 0, 1, 344, 0}";
}
);
layerId = UUID0;
width = 667;
},
{
background = {
anchors = (
{
name = bottom;
position = "{375, 0}";
},
{
name = mark0;
position = "{377, -83}";
},
{
name = top;
position = "{405, 983}";
}
);
paths = (
{
closed = 1;
nodes = (
"517 -11 OFFCURVE",
"632 38 OFFCURVE",
"685 40 CURVE",
"685 300 LINE",
"731 308 LINE",
"731 387 LINE",
"410 387 LINE",
"410 308 LINE",
"487 297 LINE",
"487 95 LINE",
"473 79 OFFCURVE",
"440 66 OFFCURVE",
"400 66 CURVE SMOOTH",
"295 66 OFFCURVE",
"259 187 OFFCURVE",
"259 377 CURVE SMOOTH",
"259 574 OFFCURVE",
"310 679 OFFCURVE",
"415 679 CURVE SMOOTH",
"462 679 OFFCURVE",
"484 666 OFFCURVE",
"491 657 CURVE",
"521 519 LINE",
"666 519 LINE",
"679 722 LINE",
"643 730 OFFCURVE",
"524 753 OFFCURVE",
"417 753 CURVE SMOOTH",
"166 753 OFFCURVE",
"23 618 OFFCURVE",
"23 367 CURVE SMOOTH",
"23 154 OFFCURVE",
"147 -11 OFFCURVE",
"381 -11 CURVE SMOOTH"
);
},
{
closed = 1;
nodes = (
"206 931 LINE",
"355 789 LINE",
"457 789 LINE",
"604 930 LINE",
"543 983 LINE",
"406 898 LINE",
"268 983 LINE"
);
}
);
};
components = (
{
name = G;
},
{
name = caroncomb.case;
transform = "{1, 0, 0, 1, 377, 0}";
}
);
layerId = "809C3DC2-6073-4494-AA7C-C910FAB1DD5E";
width = 701;
}
);
leftKerningGroup = O;
rightKerningGroup = G;
unicode = 01E6;
},
{
color = 4;
glyphname = Gcircumflex;
lastChange = "2019-02-05 19:05:58 +0000";
layers = (
{
background = {
anchors = (
{
name = bottom;
position = "{369, 0}";
},
{
name = mark0;
position = "{383, -83}";
},
{
name = top;
position = "{399, 983}";
}
);
paths = (
{
closed = 1;
nodes = (
"526 -11 OFFCURVE",
"604 38 OFFCURVE",
"657 40 CURVE",
"657 311 LINE",
"718 321 LINE",
"718 374 LINE",
"434 374 LINE",
"434 321 LINE",
"573 311 LINE",
"573 83 LINE",
"537 55 OFFCURVE",
"469 37 OFFCURVE",
"398 37 CURVE SMOOTH",
"224 37 OFFCURVE",
"142 209 OFFCURVE",
"142 385 CURVE SMOOTH",
"142 596 OFFCURVE",
"259 703 OFFCURVE",
"414 703 CURVE SMOOTH",
"508 703 OFFCURVE",
"552 681 OFFCURVE",
"567 669 CURVE",
"589 554 LINE",
"641 554 LINE",
"649 720 LINE",
"615 728 OFFCURVE",
"526 751 OFFCURVE",
"423 751 CURVE SMOOTH",
"214 751 OFFCURVE",
"48 610 OFFCURVE",
"48 359 CURVE SMOOTH",
"48 148 OFFCURVE",
"175 -11 OFFCURVE",
"392 -11 CURVE SMOOTH"
);
},
{
closed = 1;
nodes = (
"234 838 LINE",
"267 817 LINE",
"400 923 LINE",
"530 817 LINE",
"566 839 LINE",
"437 983 LINE",
"362 983 LINE"
);
}
);
};
components = (
{
name = G;
},
{
name = circumflexcomb.case;
transform = "{1, 0, 0, 1, 344, 0}";
}
);
layerId = UUID0;
width = 667;
},
{
background = {
anchors = (
{
name = bottom;
position = "{375, 0}";
},
{
name = mark0;
position = "{377, -83}";
},
{
name = top;
position = "{405, 979}";
}
);
paths = (
{
closed = 1;
nodes = (
"517 -11 OFFCURVE",
"632 38 OFFCURVE",
"685 40 CURVE",
"685 300 LINE",
"731 308 LINE",
"731 387 LINE",
"410 387 LINE",
"410 308 LINE",
"487 297 LINE",
"487 95 LINE",
"473 79 OFFCURVE",
"440 66 OFFCURVE",
"400 66 CURVE SMOOTH",
"295 66 OFFCURVE",
"259 187 OFFCURVE",
"259 377 CURVE SMOOTH",
"259 574 OFFCURVE",
"310 679 OFFCURVE",
"415 679 CURVE SMOOTH",
"462 679 OFFCURVE",
"484 666 OFFCURVE",
"491 657 CURVE",
"521 519 LINE",
"666 519 LINE",
"679 722 LINE",
"643 730 OFFCURVE",
"524 753 OFFCURVE",
"417 753 CURVE SMOOTH",
"166 753 OFFCURVE",
"23 618 OFFCURVE",
"23 367 CURVE SMOOTH",
"23 154 OFFCURVE",
"147 -11 OFFCURVE",
"381 -11 CURVE SMOOTH"
);
},
{
closed = 1;
nodes = (
"197 832 LINE",
"258 779 LINE",
"406 870 LINE",
"554 779 LINE",
"615 833 LINE",
"458 979 LINE",
"356 979 LINE"
);
}
);
};
components = (
{
name = G;
},
{
name = circumflexcomb.case;
transform = "{1, 0, 0, 1, 377, 0}";
}
);
layerId = "809C3DC2-6073-4494-AA7C-C910FAB1DD5E";
width = 701;
}
);
leftKerningGroup = O;
rightKerningGroup = G;
unicode = 011C;
},
{
color = 4;
glyphname = Gcommaaccent;
lastChange = "2019-02-05 19:05:58 +0000";
layers = (
{
background = {
anchors = (
{
name = bottom;
position = "{369, -272}";
},
{
name = mark0;
position = "{386, -83}";
},
{
name = top;
position = "{399, 743}";
}
);
paths = (
{
closed = 1;
nodes = (
"526 -11 OFFCURVE",
"604 38 OFFCURVE",
"657 40 CURVE",
"657 311 LINE",
"718 321 LINE",
"718 374 LINE",
"434 374 LINE",
"434 321 LINE",
"573 311 LINE",
"573 83 LINE",
"537 55 OFFCURVE",
"469 37 OFFCURVE",
"398 37 CURVE SMOOTH",
"224 37 OFFCURVE",
"142 209 OFFCURVE",
"142 385 CURVE SMOOTH",
"142 596 OFFCURVE",
"259 703 OFFCURVE",
"414 703 CURVE SMOOTH",
"508 703 OFFCURVE",
"552 681 OFFCURVE",
"567 669 CURVE",
"589 554 LINE",
"641 554 LINE",
"649 720 LINE",
"615 728 OFFCURVE",
"526 751 OFFCURVE",
"423 751 CURVE SMOOTH",
"214 751 OFFCURVE",
"48 610 OFFCURVE",
"48 359 CURVE SMOOTH",
"48 148 OFFCURVE",
"175 -11 OFFCURVE",
"392 -11 CURVE SMOOTH"
);
},
{
closed = 1;
nodes = (
"433 -86 OFFCURVE",
"409 -58 OFFCURVE",
"372 -58 CURVE SMOOTH",
"368 -58 LINE SMOOTH",
"356 -58 OFFCURVE",
"324 -65 OFFCURVE",
"324 -102 CURVE SMOOTH",
"324 -123 OFFCURVE",
"333 -132 OFFCURVE",
"343 -139 CURVE SMOOTH",
"353 -146 OFFCURVE",
"364 -155 OFFCURVE",
"364 -175 CURVE SMOOTH",
"364 -206 OFFCURVE",
"350 -237 OFFCURVE",
"330 -247 CURVE",
"330 -253 LINE",
"357 -272 LINE",
"358 -272 LINE",
"369 -268 OFFCURVE",
"433 -219 OFFCURVE",
"433 -138 CURVE SMOOTH"
);
}
);
};
components = (
{
name = G;
},
{
name = commaaccentcomb.case;
transform = "{1, 0, 0, 1, 373, 0}";
}
);
layerId = UUID0;
width = 667;
},
{
background = {
anchors = (
{
name = bottom;
position = "{375, -273}";
},
{
name = mark0;
position = "{376, -83}";
},
{
name = top;
position = "{405, 743}";
}
);
paths = (
{
closed = 1;
nodes = (
"517 -11 OFFCURVE",
"632 38 OFFCURVE",
"685 40 CURVE",
"685 300 LINE",
"731 308 LINE",
"731 387 LINE",
"410 387 LINE",
"410 308 LINE",
"487 297 LINE",
"487 95 LINE",
"473 79 OFFCURVE",
"440 66 OFFCURVE",
"400 66 CURVE SMOOTH",
"295 66 OFFCURVE",
"259 187 OFFCURVE",
"259 377 CURVE SMOOTH",
"259 574 OFFCURVE",
"310 679 OFFCURVE",
"415 679 CURVE SMOOTH",
"462 679 OFFCURVE",
"484 666 OFFCURVE",
"491 657 CURVE",
"521 519 LINE",
"666 519 LINE",
"679 722 LINE",
"643 730 OFFCURVE",
"524 753 OFFCURVE",
"417 753 CURVE SMOOTH",
"166 753 OFFCURVE",
"23 618 OFFCURVE",
"23 367 CURVE SMOOTH",
"23 154 OFFCURVE",
"147 -11 OFFCURVE",
"381 -11 CURVE SMOOTH"
);
},
{
closed = 1;
nodes = (
"463 -70 OFFCURVE",
"427 -42 OFFCURVE",
"378 -42 CURVE SMOOTH",
"375 -42 LINE SMOOTH",
"339 -42 OFFCURVE",
"288 -57 OFFCURVE",
"288 -107 CURVE SMOOTH",
"288 -134 OFFCURVE",
"301 -150 OFFCURVE",
"312 -158 CURVE SMOOTH",
"320 -164 OFFCURVE",
"330 -172 OFFCURVE",
"330 -193 CURVE SMOOTH",
"330 -215 OFFCURVE",
"322 -247 OFFCURVE",
"309 -252 CURVE",
"312 -260 LINE",
"372 -273 LINE",
"374 -273 LINE",
"402 -263 OFFCURVE",
"461 -195 OFFCURVE",
"462 -123 CURVE SMOOTH"
);
}
);
};
components = (
{
name = G;
},
{
name = commaaccentcomb.case;
transform = "{1, 0, 0, 1, 363, 0}";
}
);
layerId = "809C3DC2-6073-4494-AA7C-C910FAB1DD5E";
width = 701;
}
);
leftKerningGroup = O;
rightKerningGroup = G;
unicode = 0122;
},
{
color = 4;
glyphname = Gdotaccent;
lastChange = "2019-02-05 19:05:58 +0000";
layers = (
{
background = {
anchors = (
{
name = bottom;
position = "{369, 0}";
},
{
name = mark0;
position = "{384, -83}";
},
{
name = top;
position = "{399, 959}";
}
);
paths = (
{
closed = 1;
nodes = (
"526 -11 OFFCURVE",
"604 38 OFFCURVE",
"657 40 CURVE",
"657 311 LINE",
"718 321 LINE",
"718 374 LINE",
"434 374 LINE",
"434 321 LINE",
"573 311 LINE",
"573 83 LINE",
"537 55 OFFCURVE",
"469 37 OFFCURVE",
"398 37 CURVE SMOOTH",
"224 37 OFFCURVE",
"142 209 OFFCURVE",
"142 385 CURVE SMOOTH",
"142 596 OFFCURVE",
"259 703 OFFCURVE",
"414 703 CURVE SMOOTH",
"508 703 OFFCURVE",
"552 681 OFFCURVE",
"567 669 CURVE",
"589 554 LINE",
"641 554 LINE",
"649 720 LINE",
"615 728 OFFCURVE",
"526 751 OFFCURVE",
"423 751 CURVE SMOOTH",
"214 751 OFFCURVE",
"48 610 OFFCURVE",
"48 359 CURVE SMOOTH",
"48 148 OFFCURVE",
"175 -11 OFFCURVE",
"392 -11 CURVE SMOOTH"
);
},
{
closed = 1;
nodes = (
"435 836 OFFCURVE",
"455 866 OFFCURVE",
"455 901 CURVE SMOOTH",
"455 930 OFFCURVE",
"436 959 OFFCURVE",
"402 959 CURVE SMOOTH",
"362 959 OFFCURVE",
"343 927 OFFCURVE",
"343 893 CURVE SMOOTH",
"343 861 OFFCURVE",
"362 836 OFFCURVE",
"394 836 CURVE SMOOTH"
);
}
);
};
components = (
{
name = G;
},
{
name = dotaccentcomb.case;
transform = "{1, 0, 0, 1, 344, 0}";
}
);
layerId = UUID0;
width = 667;
},
{
background = {
anchors = (
{
name = bottom;
position = "{375, 0}";
},
{
name = mark0;
position = "{376, -83}";
},
{
name = top;
position = "{405, 977}";
}
);
paths = (
{
closed = 1;
nodes = (
"517 -11 OFFCURVE",
"632 38 OFFCURVE",
"685 40 CURVE",
"685 300 LINE",
"731 308 LINE",
"731 387 LINE",
"410 387 LINE",
"410 308 LINE",
"487 297 LINE",
"487 95 LINE",
"473 79 OFFCURVE",
"440 66 OFFCURVE",
"400 66 CURVE SMOOTH",
"295 66 OFFCURVE",
"259 187 OFFCURVE",
"259 377 CURVE SMOOTH",
"259 574 OFFCURVE",
"310 679 OFFCURVE",
"415 679 CURVE SMOOTH",
"462 679 OFFCURVE",
"484 666 OFFCURVE",
"491 657 CURVE",
"521 519 LINE",
"666 519 LINE",
"679 722 LINE",
"643 730 OFFCURVE",
"524 753 OFFCURVE",
"417 753 CURVE SMOOTH",
"166 753 OFFCURVE",
"23 618 OFFCURVE",
"23 367 CURVE SMOOTH",
"23 154 OFFCURVE",
"147 -11 OFFCURVE",
"381 -11 CURVE SMOOTH"
);
},
{
closed = 1;
nodes = (
"472 800 OFFCURVE",
"507 837 OFFCURVE",
"507 896 CURVE SMOOTH",
"507 943 OFFCURVE",
"470 977 OFFCURVE",
"406 977 CURVE",
"340 977 OFFCURVE",
"303 941 OFFCURVE",
"303 882 CURVE SMOOTH",
"303 835 OFFCURVE",
"342 800 OFFCURVE",
"396 800 CURVE"
);
}
);
};
components = (
{
name = G;
},
{
name = dotaccentcomb.case;
transform = "{1, 0, 0, 1, 377, 0}";
}
);
layerId = "809C3DC2-6073-4494-AA7C-C910FAB1DD5E";
width = 701;
}
);
leftKerningGroup = O;
rightKerningGroup = G;
unicode = 0120;
},
